<?xml version="1.0" standalone="no"?>
<!DOCTYPE svg PUBLIC "-//W3C//DTD SVG 1.1//EN" "http://www.w3.org/Graphics/SVG/1.1/DTD/svg11.dtd" >
<svg xmlns="http://www.w3.org/2000/svg" xmlns:xlink="http://www.w3.org/1999/xlink" version="1.1">
<metadata></metadata>
<defs>
<font id="thongtermoblique" horiz-adv-x="0" >
<font-face units-per-em="2048" ascent="1638" descent="-410" />
<missing-glyph horiz-adv-x="624" />
<glyph unicode="&#xe2f;&#xe2f;" horiz-adv-x="1443" d="M1180 0h-166l260 1204h166zM496 1034q0 35 -22.5 55.5t-59.5 20.5q-46 0 -71.5 -24.5t-25.5 -67.5q0 -30 22.5 -50t57.5 -20q46 0 72.5 22.5t26.5 63.5zM838 0h-164l160 745q23 117 59 183l-14 4q-60 -104 -163.5 -173t-228.5 -69q-127 0 -213 81t-86 198 q0 115 67.5 183.5t174.5 68.5q81 0 131.5 -46.5t50.5 -119.5q0 -51 -21.5 -93.5t-53.5 -66t-66.5 -35t-62.5 -8.5l-2 -4q35 -21 112 -21q211 0 418 377h162z" />
<glyph unicode="&#xe4f;&#x22;" horiz-adv-x="980" d="M688 573q0 -76 -60.5 -132t-138.5 -56q-56 0 -92.5 37.5t-36.5 93.5q0 76 60.5 133.5t136.5 57.5q58 0 94.5 -38t36.5 -96zM858 600q0 117 -73.5 194.5t-190.5 77.5q-102 0 -195 -53.5t-149.5 -143t-56.5 -188.5q0 -114 73 -190t189 -76q102 0 195 52t150.5 140t57.5 187 zM909 610q0 -117 -67 -218.5t-174.5 -159.5t-225.5 -58q-132 0 -215.5 86.5t-83.5 218.5q0 116 65.5 218.5t172.5 162.5t223 60q135 0 220 -89t85 -221zM524 991h-100l98 443h101zM721 991h-103l99 443h102z" />
<glyph unicode="&#xe24;&#xe32;" horiz-adv-x="1996" d="M1612 -578h-166l289 1346q10 44 10 94q0 207 -242 207q-99 0 -185 -36t-140 -87q6 -38 6 -78q0 -56 -10 -100l-289 -1346h-166l291 1346q10 52 10 86q0 103 -67.5 159t-200.5 56q-108 0 -199 -37.5t-145 -89.5l-5 -16q58 -9 124.5 -38t103.5 -59l-17 -73 q-93 -9 -159.5 -75t-89.5 -177l-5 -25q-8 -49 -47 -112l4 -5q32 29 95 29q75 0 124.5 -48.5t49.5 -129.5q0 -98 -70 -159.5t-178 -61.5q-90 0 -146.5 49.5t-56.5 128.5q0 29 4 45l60 289q22 107 89 184.5t150 108.5q-42 23 -108 36t-131 13l20 94q72 110 223 192t322 82 q245 0 356 -139q63 52 176 95.5t224 43.5q190 0 291.5 -86t101.5 -241q0 -57 -12 -119zM457 209q0 33 -23 54.5t-59 21.5q-48 0 -75.5 -28t-27.5 -73q0 -32 22.5 -52.5t55.5 -20.5q47 0 77 24.5t30 73.5z" />
<glyph unicode="&#xe26;&#xe32;" horiz-adv-x="2078" d="M1694 -578h-166l289 1346q10 44 10 94q0 207 -242 207q-96 0 -180 -34t-139 -83q8 -36 8 -84q0 -56 -10 -100l-289 -1346h-166l291 1346q10 52 10 88q0 102 -67 157.5t-199 55.5q-108 0 -198 -37.5t-144 -89.5l-4 -16q58 -9 124 -38t103 -59l-16 -73q-81 -9 -123.5 -59.5 t-63.5 -151.5l-73 -350q-45 -203 -250 -203q-90 0 -146.5 51t-56.5 131q0 101 67 163t158 62q82 0 113 -39l8 5q-8 28 -8 51q0 13 8 63l14 64q44 197 176 254q-42 23 -108 36t-131 13l20 94q72 110 222 192t321 82q241 0 350 -135q66 51 176.5 93t219.5 42q190 0 291.5 -86 t101.5 -241q0 -52 -13 -119zM311 209q0 34 -24 55t-60 21q-47 0 -73.5 -26.5t-26.5 -72.5q0 -33 23 -54t57 -21q46 0 75 25t29 73z" />
<glyph unicode="fi" horiz-adv-x="1198" d="M301 0h-147l208 938h-180l27 127h180l27 121q28 124 73 193.5t104.5 94.5t151.5 25q27 0 129 -10l-28 -131q-10 1 -47 7.5t-56 6.5q-77 0 -114.5 -32t-57.5 -119l-34 -156h231l-27 -127h-231zM905 0h-147l235 1065h148zM1198 1323h-147l39 176h147z" />
<glyph unicode="fl" horiz-adv-x="1198" d="M301 0h-147l208 938h-180l27 127h180l27 121q28 124 73 193.5t104.5 94.5t151.5 25q27 0 129 -10l-28 -131q-10 1 -47 7.5t-56 6.5q-77 0 -114.5 -32t-57.5 -119l-34 -156h231l-27 -127h-231zM905 0h-147l327 1479h148z" />
<glyph unicode="&#xd;" horiz-adv-x="399" />
<glyph unicode=" "  horiz-adv-x="624" />
<glyph unicode="&#x09;" horiz-adv-x="624" />
<glyph unicode="&#xa0;" horiz-adv-x="624" />
<glyph unicode="!" horiz-adv-x="681" d="M428 467h-131l180 1012h217zM358 0h-200l49 225h201z" />
<glyph unicode="&#x22;" horiz-adv-x="681" d="M406 926h-127l122 553h127zM649 926h-127l123 553h127z" />
<glyph unicode="#" horiz-adv-x="1251" d="M795 586l112 311h-278l-111 -311h277zM713 0h-127l168 471h-277l-168 -471h-127l168 471h-203l25 115h219l111 311h-203l27 115h219l166 467h127l-166 -467h278l164 467h127l-164 -467h193l-27 -115h-209l-112 -311h194l-24 -115h-211z" />
<glyph unicode="$" horiz-adv-x="1251" d="M670 854l110 498q-142 0 -232.5 -82t-90.5 -211q0 -160 213 -205zM766 659l-117 -532q87 4 165.5 42.5t130.5 109.5t52 157q0 39 -13.5 71.5t-33.5 54t-53.5 41t-61.5 31t-69 25.5zM565 -254h-139l55 254q-70 1 -132 25t-110 66t-82 83.5t-67 93.5l139 90q24 -53 61 -101 t96.5 -87t123.5 -43l127 571q-43 10 -84.5 26t-88.5 45t-82 64.5t-58 88t-23 112.5q0 88 32.5 163.5t84.5 126t119.5 86.5t136.5 52.5t135 16.5l35 157h139l-35 -157q116 -8 201.5 -78.5t124.5 -163.5l-125 -86q-30 76 -91 131t-138 70l-119 -535q178 -61 264 -142t86 -204 q0 -134 -78 -244t-198.5 -168.5t-253.5 -58.5z" />
<glyph unicode="%" horiz-adv-x="1820" d="M1571 391q0 73 -48.5 117.5t-125.5 44.5q-104 0 -186.5 -76t-82.5 -188q0 -73 48.5 -117.5t126.5 -44.5q104 0 186 76t82 188zM1700 416q0 -110 -62 -207t-160 -153t-204 -56q-123 0 -199 73t-76 189q0 111 62 208.5t160 153.5t204 56q122 0 198.5 -74t76.5 -190z M985 1214q0 -110 -62 -207t-160 -152.5t-204 -55.5q-122 0 -198 73t-76 189q0 111 62 208.5t160 153.5t204 56q122 0 198 -74.5t76 -190.5zM856 1190q0 73 -48.5 117.5t-125.5 44.5q-104 0 -186 -76.5t-82 -188.5q0 -73 48 -117t126 -44q105 0 186.5 76t81.5 188zM459 -20 h-121l1186 1519h121z" />
<glyph unicode="&#x26;" horiz-adv-x="1366" d="M670 934q116 65 202 151.5t86 171.5q0 52 -33.5 83.5t-82.5 31.5q-90 0 -148.5 -75t-58.5 -173q0 -78 35 -190zM1217 0h-54q-56 0 -131.5 43t-126.5 104q-194 -167 -459 -167q-155 0 -256.5 89t-101.5 238q0 306 430 543q-49 106 -49 250q0 168 112 283.5t296 115.5 q112 0 181.5 -55t69.5 -154q0 -50 -16.5 -98t-51 -92t-69 -79.5t-89 -76t-90 -64.5t-93.5 -61q68 -203 233 -446q48 48 110.5 153t106.5 219l127 -32q-47 -117 -120.5 -241t-143.5 -200q35 -49 104.5 -87t112.5 -38zM561 737q-60 -34 -101 -62.5t-85 -70t-72.5 -94 t-42.5 -117.5q-8 -33 -8 -67q0 -99 72.5 -153t173.5 -54q174 0 325 123q-173 270 -262 495z" />
<glyph unicode="'" horiz-adv-x="454" d="M414 926h-127l123 553h127z" />
<glyph unicode="(" horiz-adv-x="681" d="M453 -172h-152q-133 248 -133 543q0 297 131.5 592t366.5 536h159q-119 -123 -209 -247t-159.5 -262t-105.5 -289.5t-36 -311.5q0 -272 138 -561z" />
<glyph unicode=")" horiz-adv-x="681" d="M145 -172h-159q246 254 378 526t132 588q0 275 -138 557h152q135 -252 135 -541q0 -298 -131.5 -594t-368.5 -536z" />
<glyph unicode="*" horiz-adv-x="1024" d="M889 868l-129 -86l-90 275h-17l-209 -271l-88 80l265 234v14l-293 47l65 133l252 -133l14 8l23 310h137l-104 -305l12 -13l301 142l21 -138l-320 -63l-10 -17z" />
<glyph unicode="+" horiz-adv-x="1228" d="M1169 469h-469l-104 -469h-127l104 469h-469l29 127h469l103 469h126l-102 -469h469z" />
<glyph unicode="," horiz-adv-x="624" d="M133 -303h-86l164 303h-82l49 225h201l-49 -225z" />
<glyph unicode="-" horiz-adv-x="681" d="M621 469h-517l29 127h516z" />
<glyph unicode="." horiz-adv-x="624" d="M330 0h-201l49 225h201z" />
<glyph unicode="/" horiz-adv-x="569" d="M20 -20h-122l813 1519h125z" />
<glyph unicode="0" horiz-adv-x="1251" d="M539 -20q-191 0 -293.5 107.5t-102.5 332.5q0 132 41 319q87 389 263.5 574.5t426.5 185.5q191 0 293.5 -108.5t102.5 -331.5q0 -133 -41 -320q-87 -389 -263.5 -574t-426.5 -185zM567 106q184 0 308 151t198 482q41 187 41 314q0 165 -66.5 242t-199.5 77 q-184 0 -309 -151.5t-199 -481.5q-41 -174 -41 -311q0 -166 67.5 -244t200.5 -78z" />
<glyph unicode="1" horiz-adv-x="1251" d="M891 0h-655l28 127h256l266 1202l-290 -29l20 97q15 4 55 15t58.5 16.5t52.5 15.5t54.5 17.5t44.5 17.5t42 20h148l-303 -1372h252z" />
<glyph unicode="2" horiz-adv-x="1251" d="M1014 0h-961l35 156q72 110 169.5 204.5t191.5 159t192.5 124.5t181 113.5t148.5 112.5t103.5 136t37.5 170q0 95 -63 145.5t-183 50.5q-101 0 -190 -50.5t-144 -120.5t-86 -150l-139 32q187 416 590 416q164 0 269.5 -80.5t105.5 -224.5q0 -104 -43.5 -196.5 t-117.5 -165.5t-165 -139.5t-194 -131.5t-196.5 -128t-180 -143t-137.5 -163h804z" />
<glyph unicode="3" horiz-adv-x="1251" d="M602 725h-145l28 127h88q233 0 361.5 84.5t128.5 245.5q0 87 -63 138.5t-158 51.5q-66 0 -120 -13t-103 -43t-88 -62.5t-93 -86.5l-102 82q110 117 238 183.5t294 66.5q168 0 261.5 -71.5t93.5 -202.5q0 -83 -28 -156t-75 -124t-99.5 -86.5t-109.5 -55.5 q207 -88 207 -289q0 -150 -80.5 -272.5t-220 -192t-309.5 -69.5q-81 0 -152 19.5t-120 49t-88.5 70t-62.5 77t-38 74.5l137 82q62 -117 151 -181.5t202 -64.5q188 0 304.5 103.5t116.5 273.5q0 242 -356 242z" />
<glyph unicode="4" horiz-adv-x="1251" d="M823 0h-147l78 348h-680l26 127l834 1004h217l-223 -1004h254l-27 -127h-254zM780 475l189 848h-6l-707 -848h524z" />
<glyph unicode="5" horiz-adv-x="1251" d="M1243 1352h-635l-141 -473q160 120 330 120q165 0 272 -94.5t107 -267.5q0 -49 -9.5 -105.5t-32.5 -120.5t-56.5 -124.5t-84.5 -116.5t-113.5 -98t-148 -67t-182.5 -25q-306 0 -426 282l149 70q34 -105 107.5 -165.5t185.5 -60.5q128 0 232.5 71t161.5 185.5t57 245.5 q0 121 -69 192.5t-193 71.5q-105 0 -198.5 -59t-162.5 -164l-123 29l244 801h758z" />
<glyph unicode="6" horiz-adv-x="1251" d="M1280 1413l-92 -125q-44 43 -97 63.5t-135 20.5q-90 0 -177.5 -37.5t-168 -111t-145 -194.5t-100.5 -275q64 54 120 89t141.5 61t182.5 26q150 0 251 -89.5t101 -254.5q0 -116 -36.5 -216.5t-97 -170.5t-138 -120.5t-160.5 -74.5t-164 -24q-411 0 -411 415q0 118 34 269 q39 176 111.5 327.5t172.5 265t231 178t276 64.5q112 0 192 -25.5t109 -60.5zM309 487q-8 -41 -8 -88q0 -129 74 -211t207 -82q177 0 299.5 128t122.5 315q0 119 -70 186.5t-174 67.5q-137 0 -276 -96t-175 -220z" />
<glyph unicode="7" horiz-adv-x="1251" d="M383 0h-172l907 1352h-749l28 127h938l-20 -90z" />
<glyph unicode="8" horiz-adv-x="1251" d="M934 791l-2 -5q110 -44 177 -125.5t67 -193.5q0 -98 -44.5 -186.5t-124.5 -155.5t-201.5 -106t-266.5 -39q-226 0 -342.5 87t-116.5 230q0 85 34 161.5t94.5 137t133 107t160.5 83.5l2 5q-95 38 -146 107t-51 159q0 84 31.5 156.5t86 124t127 88.5t154.5 55t168 18 q185 0 295.5 -74.5t110.5 -210.5q0 -141 -94.5 -254.5t-251.5 -168.5zM676 721q-55 -22 -91.5 -37.5t-86.5 -40t-83 -46t-69 -51.5t-57 -60.5t-35 -69.5t-14 -82q0 -97 81.5 -162.5t245.5 -65.5q108 0 197 31t142.5 80.5t82.5 105.5t29 111q0 96 -87.5 161.5t-254.5 125.5z M731 854q103 24 189 68t144 114.5t58 151.5q0 91 -78.5 137.5t-195.5 46.5q-64 0 -128.5 -16.5t-122 -48t-93 -85.5t-35.5 -122q0 -48 26 -90.5t68 -72.5t83.5 -50t84.5 -33z" />
<glyph unicode="9" horiz-adv-x="1251" d="M135 66l92 124q44 -42 98 -63t136 -21q184 0 347.5 162t242.5 457q-98 -83 -201.5 -129.5t-243.5 -46.5q-150 0 -252 89.5t-102 254.5q0 116 36.5 216.5t97.5 170.5t139 120.5t161 74.5t164 24q193 0 301.5 -100t108.5 -316q0 -122 -33 -268q-39 -176 -111.5 -327.5 t-172.5 -265t-231 -178t-276 -64.5q-112 0 -192 25.5t-109 60.5zM1094 950q14 66 14 129q0 137 -71 215t-201 78q-178 0 -301 -127.5t-123 -314.5q0 -120 70 -187t173 -67q131 0 249.5 76.5t189.5 197.5z" />
<glyph unicode=":" horiz-adv-x="624" d="M330 0h-201l49 225h201zM461 594h-201l51 225h201z" />
<glyph unicode=";" horiz-adv-x="624" d="M133 -303h-86l164 303h-82l49 225h201l-49 -225zM461 594h-201l51 225h201z" />
<glyph unicode="&#x3c;" horiz-adv-x="1228" d="M1053 0l-936 475l26 115l1145 475l-26 -127l-983 -406l802 -405z" />
<glyph unicode="=" horiz-adv-x="1228" d="M1214 678h-1064l28 127h1065zM1122 260h-1065l29 127h1065z" />
<glyph unicode="&#x3e;" horiz-adv-x="1228" d="M1157 473l-1145 -473l29 127l983 405l-803 406l27 127l936 -473z" />
<glyph unicode="?" horiz-adv-x="909" d="M473 467h-139l24 113q14 65 46.5 123t73 101.5t86 84.5t88 79.5t77 78.5t55.5 89.5t21 104.5q0 57 -32.5 94t-102.5 37q-71 0 -129.5 -36.5t-122.5 -121.5l-109 60q75 110 173.5 167.5t209.5 57.5q118 0 195.5 -63t77.5 -176q0 -65 -23 -124.5t-60.5 -107t-83.5 -92 t-94 -86.5t-90 -82.5t-73.5 -88.5t-42.5 -97zM395 0h-200l49 225h200z" />
<glyph unicode="@" horiz-adv-x="1638" d="M707 430q71 0 149 46t138.5 114.5t100.5 152.5t40 156q0 62 -32.5 94.5t-80.5 32.5q-69 0 -135.5 -34t-117 -87.5t-89.5 -116.5t-59.5 -125t-20.5 -110q0 -58 27 -90.5t80 -32.5zM1348 332h155q-133 -170 -331.5 -261t-407.5 -91q-135 0 -249.5 44.5t-194 122.5t-124 187 t-44.5 235q0 124 38.5 245t105 222t158.5 188t196 147t220.5 94t229.5 34q251 0 412 -137t161 -358q0 -124 -43 -240t-111.5 -200.5t-151 -148.5t-163 -96t-145.5 -32q-54 0 -85.5 29.5t-31.5 74.5q0 15 2 23l-4 -2q-60 -53 -133 -89t-139 -36q-108 0 -172 68.5t-64 174.5 q0 143 88.5 293t227.5 248t274 98q86 0 138.5 -37.5t72.5 -119.5l67 123h138l-289 -564q-45 -88 -45 -118q0 -33 35 -33q72 0 146.5 55.5t129 138t89 179.5t34.5 178q0 187 -130.5 292t-336.5 105q-146 0 -287 -64t-247 -169t-171 -250t-65 -299q0 -212 136 -343.5 t356 -131.5q155 0 300.5 57.5t254.5 163.5z" />
<glyph unicode="A" horiz-adv-x="1251" d="M901 602l-43 762h-22l-383 -762h448zM1120 0h-172l-37 463h-530l-242 -463h-172l783 1479h243z" />
<glyph unicode="B" horiz-adv-x="1366" d="M598 0h-459l328 1479h545q162 0 252 -80t90 -207q0 -147 -88.5 -257t-245.5 -161v-4q98 -26 155.5 -102.5t57.5 -182.5q0 -100 -38 -186t-113 -153.5t-199 -106.5t-285 -39zM334 139h307q200 0 314 83t114 251q0 110 -87 171t-241 61h-282zM489 844h287q108 0 191 30.5 t128.5 80t68 104.5t22.5 112q0 168 -234 168h-352z" />
<glyph unicode="C" horiz-adv-x="1251" d="M1047 471l141 -29q-214 -462 -623 -462q-203 0 -317.5 119.5t-114.5 355.5q0 136 35 284q79 360 272.5 560t460.5 200q201 0 301 -111t105 -319l-162 -45q-6 168 -72 252t-223 84q-169 0 -309.5 -158t-208.5 -463q-31 -129 -31 -256q0 -183 80.5 -273.5t226.5 -90.5 q82 0 151.5 28.5t122 81t91 110t74.5 132.5z" />
<glyph unicode="D" horiz-adv-x="1366" d="M317 139h222q129 0 239.5 45t189.5 123.5t135 182.5t83.5 223t27.5 245q0 196 -104.5 288.5t-296.5 92.5h-229zM535 0h-412l328 1479h397q251 0 391.5 -129.5t140.5 -374.5q0 -142 -35 -281.5t-106.5 -264.5t-170.5 -220.5t-237 -152t-296 -56.5z" />
<glyph unicode="E" horiz-adv-x="1251" d="M1067 0h-928l328 1479h887l-31 -140h-723l-111 -495h515l-31 -139h-514l-125 -566h764z" />
<glyph unicode="F" horiz-adv-x="1138" d="M287 0h-164l328 1479h876l-31 -140h-712l-111 -495h528l-30 -139h-529z" />
<glyph unicode="G" horiz-adv-x="1366" d="M1120 0h-135l31 135h-4q-73 -76 -184 -115.5t-238 -39.5q-208 0 -326.5 121t-118.5 360q0 120 35 278q42 190 117.5 336.5t173.5 238.5t212.5 138.5t242.5 46.5q197 0 309.5 -103.5t126.5 -330.5l-162 -31q-17 172 -90.5 249t-206.5 77q-68 0 -131.5 -18.5t-129 -64 t-119.5 -115t-101.5 -177.5t-77.5 -246q-31 -132 -31 -254q0 -99 24.5 -172t69.5 -114.5t100 -60.5t122 -19q174 0 283.5 91.5t142.5 235.5l28 125h-333l30 140h498z" />
<glyph unicode="H" horiz-adv-x="1478" d="M1176 0h-164l155 705h-708l-156 -705h-164l328 1479h164l-142 -635h709l141 635h164z" />
<glyph unicode="I" horiz-adv-x="681" d="M340 0h-164l328 1479h164z" />
<glyph unicode="J" horiz-adv-x="909" d="M535 338l251 1141h164l-243 -1098q-45 -206 -152 -303.5t-276 -97.5q-62 0 -112 15t-86 43.5t-61 59t-49 72.5l142 80q24 -59 74.5 -95t117.5 -36q180 0 230 219z" />
<glyph unicode="K" horiz-adv-x="1366" d="M1186 0h-187l-266 786l-303 -290l-111 -496h-163l327 1479h164l-170 -768h4l783 768h194l-581 -557z" />
<glyph unicode="L" horiz-adv-x="1138" d="M1004 0h-865l328 1479h164l-297 -1340h700z" />
<glyph unicode="M" horiz-adv-x="1705" d="M1403 0h-148l299 1352h-6l-712 -1352h-127l-117 1352h-6l-299 -1352h-148l328 1479h254l113 -1196h4l635 1196h258z" />
<glyph unicode="N" horiz-adv-x="1478" d="M1176 0h-136l-456 1319h-4l-293 -1319h-148l328 1479h235l394 -1139h8l252 1139h147z" />
<glyph unicode="O" horiz-adv-x="1366" d="M627 119q199 0 341 155.5t210 464.5q32 136 32 260q0 181 -79 271t-230 90q-199 0 -341 -156t-210 -465q-33 -143 -33 -262q0 -179 79.5 -268.5t230.5 -89.5zM596 -20q-216 0 -330 122.5t-114 356.5q0 126 34 280q81 367 276.5 563.5t469.5 196.5q216 0 329 -122.5 t113 -356.5q0 -132 -33 -281q-81 -367 -276 -563t-469 -196z" />
<glyph unicode="P" horiz-adv-x="1251" d="M463 799h278q433 0 433 346q0 194 -275 194h-315zM287 0h-164l328 1479h516q189 0 281.5 -81t92.5 -220q0 -236 -169.5 -377.5t-477.5 -141.5h-262z" />
<glyph unicode="Q" horiz-adv-x="1366" d="M1257 41l-34 -160q-68 0 -114.5 11.5t-78.5 38.5t-51.5 59.5t-40.5 85.5q-152 -96 -342 -96q-216 0 -330 122.5t-114 356.5q0 126 34 280q81 367 276.5 563.5t469.5 196.5q216 0 329 -122.5t113 -356.5q0 -242 -90.5 -479t-218.5 -365q23 -71 69 -103t123 -32zM731 322 l35 157q99 -14 154.5 -48t87.5 -103q79 106 140.5 304.5t61.5 366.5q0 181 -79 271t-230 90q-199 0 -341 -156t-210 -465q-33 -143 -33 -262q0 -179 79.5 -268.5t230.5 -89.5q142 0 258 82q-25 57 -59.5 84.5t-94.5 36.5z" />
<glyph unicode="R" horiz-adv-x="1366" d="M467 811h297q190 0 301 86t111 258q0 100 -76 142t-221 42h-295zM1110 0h-178l-150 672h-346l-149 -672h-164l328 1479h475q204 0 312 -76.5t108 -216.5q0 -95 -32.5 -177t-89 -140.5t-125 -99t-147.5 -64.5z" />
<glyph unicode="S" horiz-adv-x="1251" d="M1235 1135l-156 -33q-3 113 -76.5 185.5t-209.5 72.5t-234 -73t-98 -195q0 -29 10 -54.5t33.5 -47.5t45.5 -39t62.5 -36.5t67.5 -31t77.5 -32.5t76.5 -32q69 -30 119 -59t97 -69.5t72 -93.5t25 -116q0 -73 -20.5 -143t-66.5 -135.5t-112.5 -114.5t-165 -78.5 t-217.5 -29.5q-380 0 -465 385l162 53q48 -299 322 -299q170 0 280.5 90.5t110.5 224.5q0 34 -10.5 63t-34 54t-46.5 44t-64 40t-69.5 33.5t-78.5 33.5q-42 17 -62 26t-59 27t-59.5 30t-52.5 32t-49.5 37.5t-39.5 42t-32.5 49t-18.5 55.5t-8 64q0 122 70.5 221.5t191.5 156 t266 56.5q176 0 287 -92.5t129 -271.5z" />
<glyph unicode="T" horiz-adv-x="1138" d="M569 0h-163l296 1339h-442l31 140h1048l-30 -140h-443z" />
<glyph unicode="U" horiz-adv-x="1478" d="M1108 434l231 1045h164l-229 -1033q-49 -218 -218.5 -342t-402.5 -124q-199 0 -314.5 92.5t-115.5 257.5q0 54 15 116l229 1033h164l-232 -1045q-8 -36 -8 -74q0 -107 75.5 -174t217.5 -67q167 0 280 90t144 225z" />
<glyph unicode="V" horiz-adv-x="1138" d="M561 0h-149l-129 1479h163l97 -1213h4l635 1213h166z" />
<glyph unicode="W" horiz-adv-x="1705" d="M1217 0h-146l-39 1196h-4l-551 -1196h-145l-29 1479h156l12 -1180h4l549 1180h145l33 -1180h4l533 1180h155z" />
<glyph unicode="X" horiz-adv-x="1138" d="M1028 0h-188l-222 610l-483 -610h-188l614 772l-258 707h189l196 -543l432 543h189l-559 -707z" />
<glyph unicode="Y" horiz-adv-x="1138" d="M569 0h-163l137 623l-264 856h180l207 -678l505 678h181l-645 -856z" />
<glyph unicode="Z" horiz-adv-x="1138" d="M965 0h-955l27 119l1012 1220h-674l31 140h878l-22 -107l-1029 -1233h762z" />
<glyph unicode="[" horiz-adv-x="681" d="M459 -152h-418l360 1631h418l-18 -86h-271l-323 -1459h270z" />
<glyph unicode="\" horiz-adv-x="569" d="M500 -20h-123l-144 1519h125z" />
<glyph unicode="]" horiz-adv-x="681" d="M412 -152h-418l18 86h271l323 1459h-270l18 86h418z" />
<glyph unicode="^" horiz-adv-x="1228" d="M1178 571h-129l-222 768l-555 -768h-131l660 908h119z" />
<glyph unicode="_" horiz-adv-x="1024" d="M885 -256h-1024l22 102h1024z" />
<glyph unicode="`" horiz-adv-x="569" d="M600 1188h-137l-205 291h223z" />
<glyph unicode="a" horiz-adv-x="1024" d="M827 0h-151l16 147q-187 -167 -389 -167q-110 0 -179 56t-69 161q0 208 177.5 324.5t578.5 185.5l14 57q6 30 6 55q0 139 -182 139q-111 0 -189.5 -49.5t-119.5 -115.5l-115 67q77 100 192 162.5t257 62.5q62 0 115 -13.5t97 -41t69.5 -75t25.5 -109.5q0 -41 -8 -80 l-119 -537q-25 -112 -27 -229zM719 283l63 292q-575 -96 -575 -335q0 -59 43.5 -96.5t101.5 -37.5q77 0 180 50.5t187 126.5z" />
<glyph unicode="b" horiz-adv-x="1138" d="M193 0h-103q10 27 19.5 59.5t14.5 55t13.5 61.5t12.5 57l276 1246h147l-114 -516l10 4q167 118 305 118q60 0 116 -20.5t104.5 -62.5t78 -117t29.5 -174q0 -96 -22.5 -197t-70 -196.5t-113.5 -170.5t-160.5 -121t-203.5 -46q-172 0 -288 133zM426 811l-125 -561 q63 -78 116 -111t122 -33q78 0 151.5 41t132.5 115.5t95 190.5t36 254q0 251 -227 251q-65 0 -145.5 -40t-155.5 -107z" />
<glyph unicode="c" horiz-adv-x="1024" d="M797 303l106 -53q-116 -145 -218.5 -207.5t-252.5 -62.5q-160 0 -248 95.5t-88 268.5q0 90 23 188q60 258 208.5 405.5t348.5 147.5q80 0 138.5 -21t95 -61.5t58 -89.5t33.5 -116l-147 -49q-9 100 -60.5 155t-144.5 55q-137 0 -238 -112t-145 -314q-22 -99 -22 -170 q0 -123 56.5 -189.5t160.5 -66.5q103 0 176 42.5t160 154.5z" />
<glyph unicode="d" horiz-adv-x="1138" d="M885 0h-135l2 104q-50 -54 -133 -89t-175 -35q-63 0 -119.5 19t-106.5 59t-79.5 113.5t-29.5 172.5q0 89 22 188q26 119 74.5 216t105.5 158t124 103t127.5 59t117.5 17q138 0 256 -118l6 -4l115 516h147l-276 -1246q-2 -10 -10.5 -45t-11.5 -50t-8.5 -43t-8.5 -50.5 t-4 -44.5zM784 250l125 561q-47 68 -108.5 107.5t-126.5 39.5q-139 0 -243 -102.5t-155 -331.5q-20 -84 -20 -157q0 -127 59.5 -194t169.5 -67q69 0 135 32.5t164 111.5z" />
<glyph unicode="e" horiz-adv-x="1024" d="M821 287l103 -60q-42 -53 -81 -91t-95 -76.5t-129 -59t-160 -20.5q-76 0 -140.5 22t-114.5 66t-78 117.5t-28 168.5q0 79 21 178q57 256 207 404.5t348 148.5q144 0 230.5 -80.5t86.5 -240.5q0 -74 -18 -162l-21 -98h-692q-14 -57 -14 -117q0 -127 66 -204t175 -77 q96 0 182 48t152 133zM291 631h540q15 77 15 112q0 101 -50.5 158t-144.5 57q-130 0 -223 -87.5t-137 -239.5z" />
<glyph unicode="f" horiz-adv-x="681" d="M301 0h-147l208 938h-180l27 127h180l27 121q28 124 73 193.5t104.5 94.5t151.5 25q27 0 129 -10l-28 -131q-10 1 -47 7.5t-56 6.5q-77 0 -114.5 -32t-57.5 -119l-34 -156h231l-27 -127h-231z" />
<glyph unicode="g" horiz-adv-x="1024" d="M1147 1106l-33 -148q-106 0 -170 -28q33 -56 33 -139q0 -120 -70 -225.5t-180.5 -165.5t-228.5 -60q-87 0 -183 29q-51 -13 -79.5 -44.5t-28.5 -72.5q0 -59 74 -59q329 0 467.5 -54t138.5 -176q0 -71 -33.5 -133.5t-99.5 -113t-175.5 -80t-248.5 -29.5q-408 0 -408 203 q0 98 57 156.5t179 115.5q-48 15 -76.5 49.5t-28.5 75.5q0 31 11.5 58t26.5 46t44 40t50 33.5t57 31.5q-90 79 -90 209q0 132 66.5 238.5t175 164t233.5 57.5q182 0 270 -73q132 82 250 94zM741 -86q0 66 -80 98.5t-255 32.5q-76 0 -137 -15t-98 -37.5t-61.5 -51.5t-34 -55 t-9.5 -50q0 -34 25 -55t96.5 -34t195.5 -13q35 0 75.5 3.5t92.5 15.5t92.5 31t69 52.5t28.5 77.5zM836 778q0 86 -55.5 133t-166.5 47q-135 0 -227 -87.5t-92 -213.5q0 -86 60.5 -138t166.5 -52q128 0 221 89t93 222z" />
<glyph unicode="h" horiz-adv-x="1138" d="M874 0h-147l170 770q8 36 8 70q0 63 -35.5 90.5t-103.5 27.5q-76 0 -172.5 -49t-169.5 -112l-176 -797h-148l328 1479h147l-122 -557h4q180 163 350 163q52 0 95.5 -12t79 -37t55.5 -68.5t20 -101.5q0 -51 -10 -92z" />
<glyph unicode="i" horiz-adv-x="569" d="M276 0h-147l236 1065h147zM569 1323h-147l39 176h147z" />
<glyph unicode="j" horiz-adv-x="569" d="M123 -160l270 1225h148l-273 -1235q-22 -98 -96 -160.5t-174 -62.5q-80 0 -117 24l27 121q36 -18 74 -18q64 0 96 23.5t45 82.5zM598 1323h-147l38 176h148z" />
<glyph unicode="k" horiz-adv-x="1024" d="M891 0h-174l-162 545l-246 -226l-71 -319h-148l328 1479h147l-211 -953h4l549 539h178l-399 -393z" />
<glyph unicode="l" horiz-adv-x="569" d="M276 0h-147l328 1479h147z" />
<glyph unicode="m" horiz-adv-x="1705" d="M1454 0h-147l168 762q8 36 8 72q0 124 -129 124q-47 0 -92 -13t-90.5 -40.5t-75 -49.5t-76.5 -60l-176 -795h-148l168 762q8 36 8 72q0 124 -129 124q-47 0 -91.5 -13t-90.5 -41t-74.5 -49t-76.5 -60l-177 -795h-147l236 1065h147l-31 -141l11 8q83 74 173.5 113.5 t168.5 39.5q100 0 161.5 -45.5t73.5 -121.5q195 167 375 167q235 0 235 -211q0 -52 -14 -112z" />
<glyph unicode="n" horiz-adv-x="1138" d="M874 0h-147l170 770q8 36 8 70q0 63 -35.5 90.5t-103.5 27.5q-76 0 -172.5 -49t-169.5 -112l-176 -797h-148l236 1065h147l-30 -143h4q180 163 350 163q52 0 95.5 -12t79 -37t55.5 -68.5t20 -101.5q0 -51 -10 -92z" />
<glyph unicode="o" horiz-adv-x="1024" d="M455 106q72 0 143 40.5t128.5 114t93.5 188t36 249.5q0 126 -55 193t-158 67q-79 0 -147.5 -38.5t-114 -100.5t-78.5 -140.5t-48 -158t-15 -153.5q0 -127 56 -194t159 -67zM1006 702q0 -95 -22 -194.5t-69.5 -194t-113 -169t-160.5 -119.5t-205 -45q-167 0 -256.5 100.5 t-89.5 267.5q0 143 42 276.5t115.5 235.5t181 163.5t230.5 61.5q167 0 257 -106.5t90 -276.5z" />
<glyph unicode="p" horiz-adv-x="1138" d="M158 -393h-148l324 1458h147l-26 -125h4q55 61 143 103t164 42q63 0 120 -18.5t107.5 -59t80.5 -114.5t30 -174q0 -72 -23 -187q-26 -119 -75 -216t-106.5 -158t-124.5 -102.5t-127.5 -58.5t-117.5 -17q-139 0 -254 118l-8 4zM426 815l-125 -561q47 -68 110 -108t128 -40 q139 0 242.5 103t154.5 332q18 85 18 155q0 128 -59 195t-168 67q-69 0 -136.5 -32.5t-164.5 -110.5z" />
<glyph unicode="q" horiz-adv-x="1138" d="M788 -393h-147l111 495l-9 -4q-170 -118 -307 -118q-60 0 -115.5 20t-104.5 61.5t-78 116t-29 172.5q0 96 23.5 197.5t72.5 197.5t116 172t162.5 122t204.5 46q183 0 254 -133l51 113h119zM784 254l125 561q-63 79 -114.5 111t-120.5 32q-78 0 -152.5 -41.5t-133 -116 t-94.5 -190t-36 -252.5q0 -252 227 -252q65 0 144.5 40t154.5 108z" />
<glyph unicode="r" horiz-adv-x="681" d="M209 0h-148l236 1065h147l-47 -211h4q93 117 183 172t215 55l-33 -147q-133 -3 -233 -87.5t-193 -256.5z" />
<glyph unicode="s" horiz-adv-x="909" d="M915 899l-120 -90q-47 78 -102.5 113.5t-139.5 35.5q-98 0 -164.5 -51.5t-66.5 -130.5q0 -29 15 -52t50 -42.5t62.5 -30.5t82.5 -30q40 -14 63 -22t59.5 -24t58.5 -30t49 -35.5t41.5 -44t24.5 -53.5t10 -66q0 -90 -40.5 -162.5t-107 -115.5t-144 -65.5t-157.5 -22.5 q-127 0 -228 52.5t-153 149.5l135 88q36 -77 105 -120.5t166 -43.5q124 0 198 63.5t74 145.5q0 24 -8 44t-27 37t-36 28.5t-50.5 25.5t-53 21t-60.5 21q-35 12 -52 18t-49.5 19t-49.5 23t-42 25t-38.5 31t-27.5 36.5t-20 44.5t-6 52q0 109 61 189t154.5 117.5t204.5 37.5 q107 0 200.5 -52t128.5 -134z" />
<glyph unicode="t" horiz-adv-x="681" d="M555 117l-27 -121q-58 -16 -176 -16q-103 0 -149.5 25.5t-46.5 88.5q0 31 8 62l174 782h-174l26 127h175l77 350h148l-78 -350h246l-27 -127h-246l-168 -758q-2 -6 -2 -20q0 -54 107 -54q58 0 133 11z" />
<glyph unicode="u" horiz-adv-x="1138" d="M874 0h-147l33 143h-4q-184 -163 -353 -163q-110 0 -179.5 53t-69.5 166q0 51 10 92l172 774h147l-170 -770q-8 -36 -8 -68q0 -65 36 -93t105 -28q76 0 171 49.5t169 112.5l177 797h147z" />
<glyph unicode="v" horiz-adv-x="909" d="M475 0h-196l-93 1065h150l76 -881h4l465 881h149z" />
<glyph unicode="w" horiz-adv-x="1366" d="M967 0h-150l-31 823h-4l-393 -823h-149l-54 1065h150l35 -819h4l389 819h149l31 -823h4l389 823h150z" />
<glyph unicode="x" horiz-adv-x="909" d="M803 0h-170l-170 436l-354 -436h-166l460 559l-200 506h166l149 -379l307 379h166l-409 -506z" />
<glyph unicode="y" horiz-adv-x="909" d="M311 -12l-133 1077h156l106 -813h4l430 813h156l-631 -1159q-165 -299 -426 -299q-22 0 -39.5 2t-37.5 5.5t-25 4.5l27 121q60 -6 77 -6q32 0 60 4t67 19t72 41t70 74.5t67 115.5z" />
<glyph unicode="z" horiz-adv-x="909" d="M766 0h-786l24 106l766 832h-524l26 127h725l-22 -107l-766 -831h586z" />
<glyph unicode="{" horiz-adv-x="681" d="M422 -172h-127q-150 0 -150 145q0 27 11 80l90 408q6 30 6 59q0 48 -24.5 74.5t-73.5 26.5l18 86q63 0 105 41t59 118l90 408q24 107 84.5 166t155.5 59h127l-19 -86h-78q-91 0 -116 -115l-105 -471q-31 -138 -188 -161v-4q121 -20 121 -117q0 -17 -7 -45l-104 -471 q-6 -24 -6 -45q0 -70 74 -70h77z" />
<glyph unicode="|" horiz-adv-x="899" d="M592 -578h-119v2313h119v-2313z" />
<glyph unicode="}" horiz-adv-x="681" d="M145 -172h-127l21 86h78q91 0 116 115l105 471q31 139 188 162v4q-120 19 -120 114q0 20 6 47l104 471q4 16 4 43q0 72 -71 72h-78l18 86h127q75 0 113.5 -38.5t38.5 -108.5q0 -25 -11 -78l-90 -408q-8 -31 -8 -61q0 -98 98 -98l-18 -86q-126 0 -162 -160l-90 -408 q-24 -107 -85.5 -166t-156.5 -59z" />
<glyph unicode="~" horiz-adv-x="1228" d="M1081 674l60 -90q-43 -45 -68.5 -69t-66 -55t-82 -45t-86.5 -14q-54 0 -107.5 22t-90.5 48t-94.5 48t-119.5 22q-106 0 -207 -150l-59 92q67 85 138.5 135t164.5 50q52 0 114 -22t108.5 -48t98 -48t84.5 -22q38 0 80 25t66 49t67 72z" />
<glyph horiz-adv-x="1024" />
<glyph unicode="&#xa1;" horiz-adv-x="681" d="M276 -414h-217l269 1012h131zM547 840h-201l49 225h201z" />
<glyph unicode="&#xa2;" horiz-adv-x="1251" d="M393 188l443 754q-37 16 -84 16q-137 0 -238 -112t-145 -314q-53 -238 24 -344zM899 303l107 -53q-116 -145 -218.5 -207.5t-252.5 -62.5q-83 0 -134 22l-135 -229h-116l163 278q-169 140 -92 481q57 257 207 405t350 148q78 0 131 -18l105 182h116l-135 -231 q83 -69 109 -221l-148 -49q-6 82 -43 131l-440 -756q38 -17 90 -17q103 0 176 42.5t160 154.5z" />
<glyph unicode="&#xa3;" horiz-adv-x="1251" d="M1049 369l125 -25q-70 -182 -194.5 -273t-295.5 -91q-43 0 -81 4t-74.5 15t-62 19.5t-60.5 27.5t-51.5 28.5t-54.5 33.5t-50 31q-128 -139 -281 -159l35 159q95 16 186.5 112t122.5 234q25 128 27 187h-219l26 127h201q12 155 31 241q47 211 192.5 335t358.5 124 q187 0 281.5 -98t97.5 -283l-146 -24q-4 41 -10 74t-23.5 73t-43 67t-71 45.5t-104.5 18.5q-69 0 -126.5 -17.5t-97 -46t-70 -68.5t-48 -80.5t-28.5 -86.5q-21 -96 -41 -274h311l-27 -127h-295q0 -58 -18 -140q-35 -160 -119 -276q32 -18 85.5 -51t84.5 -51t74 -33t80 -15 q139 0 227.5 66.5t145.5 196.5z" />
<glyph unicode="&#xa4;" horiz-adv-x="1251" d="M1087 739q39 175 -46 282t-248 107t-295.5 -107t-171.5 -282q-39 -177 46 -283t249 -106t295.5 106t170.5 283zM1122 311l-106 -86l-88 115q-157 -109 -334 -109q-179 0 -285 109l-141 -115l-66 86l138 113q-81 137 -41 315q41 180 180 316l-88 112l106 86l88 -114 q156 108 334 108q180 0 285 -108l141 114l66 -86l-137 -112q81 -136 40 -316q-41 -179 -180 -315z" />
<glyph unicode="&#xa5;" horiz-adv-x="1251" d="M612 0h-139l107 479h-363l29 127h362l2 17l-49 163h-276l28 127h209l-176 566h148l219 -711l534 711h148l-426 -566h209l-29 -127h-275l-124 -163l-2 -17h362l-29 -127h-362z" />
<glyph unicode="&#xa6;" horiz-adv-x="897" d="M590 752h-117v809h117v-809zM590 -401h-117v804h117v-804z" />
<glyph unicode="&#xa7;" horiz-adv-x="1024" d="M119 8l119 66q58 -135 178 -135q62 0 110.5 36.5t61.5 94.5q9 42 -17 104t-71 124.5t-98 135.5t-98.5 137t-71 130t-15.5 114q22 97 97.5 154t197.5 63q-8 15 -28 47.5t-26 45t-14.5 38t-7.5 50.5t8 57q22 94 111 161.5t203 67.5q91 0 149 -38.5t113 -131.5l-111 -55 q-1 1 -12.5 19t-18 26t-22 24t-30 24t-37.5 15t-48 7q-59 0 -102.5 -35.5t-54.5 -83.5q-6 -33 3.5 -61.5t45.5 -80t129 -170.5q133 -171 167.5 -246t14.5 -163q-21 -97 -95.5 -152.5t-176.5 -68.5q21 -32 34 -58t22 -57t8.5 -65t-9.5 -74q-22 -99 -112.5 -172.5 t-223.5 -73.5q-102 0 -173.5 49t-98.5 131zM805 541q9 43 -16 100t-101 154q-70 90 -104 114.5t-78 24.5q-51 0 -94 -33.5t-54 -79.5q-2 -10 -2.5 -20.5t0 -19.5t4.5 -21l6.5 -19.5t11 -22t13 -22t17 -25.5t19 -27t22.5 -31l24 -33q67 -92 104 -123t82 -31q49 0 91.5 32 t54.5 83z" />
<glyph unicode="&#xa8;" horiz-adv-x="569" d="M723 1208h-180l43 193h180zM399 1208h-180l43 193h180z" />
<glyph unicode="&#xa9;" horiz-adv-x="1638" d="M1135 598h139q-64 -149 -186.5 -236.5t-262.5 -87.5q-200 0 -294 133.5t-50 335.5q45 203 194 333t351 130q149 0 235 -82.5t76 -230.5h-137q2 88 -52 139t-149 51q-141 0 -238 -93.5t-130 -244.5q-33 -146 26.5 -247t194.5 -101q96 0 173.5 55t109.5 146zM1671 741 q-28 -129 -94 -247.5t-158 -211t-202.5 -161t-234.5 -105t-247 -36.5q-124 0 -232.5 37t-188.5 104t-132.5 162t-64.5 210t14 248q47 213 191.5 388t342.5 272.5t406 97.5q123 0 230.5 -37t187 -104.5t132 -161.5t64.5 -208.5t-14 -246.5zM1524 741q32 136 7.5 252t-87 201 t-167 133.5t-233.5 48.5q-130 0 -256.5 -48.5t-228 -132.5t-176.5 -202.5t-104 -251.5q-32 -139 -8.5 -256.5t87 -202.5t169 -132.5t235.5 -47.5q172 0 332 81.5t275 228.5t155 329z" />
<glyph unicode="&#xaa;" horiz-adv-x="614" d="M676 848h-109l4 72q-42 -25 -66.5 -38t-75 -29.5t-97.5 -16.5q-86 0 -132.5 46t-27.5 130q23 105 133 167.5t340 100.5l4 27q12 48 -17 73t-91 25q-136 0 -197 -90l-72 49q111 135 289 135q63 0 111.5 -17.5t76 -62.5t11.5 -112l-70 -322q-20 -88 -14 -137zM586 1018 l37 168q-158 -29 -242.5 -70.5t-99.5 -105.5q-6 -34 15.5 -57t65.5 -23q52 0 115.5 26.5t108.5 61.5z" />
<glyph unicode="&#xab;" horiz-adv-x="1024" d="M539 209h-140l-198 323l338 324h143l-336 -324zM825 209h-139l-199 323l338 324h144l-336 -324z" />
<glyph unicode="&#xac;" horiz-adv-x="1228" d="M1122 260h-127l92 418h-937l28 127h1065z" />
<glyph unicode="&#xad;" horiz-adv-x="681" d="M621 469h-517l29 127h516z" />
<glyph unicode="&#xae;" horiz-adv-x="1638" d="M1178 301h-148l-149 381h-152l-84 -381h-135l192 877h336q158 0 221.5 -61t34.5 -189q-47 -214 -282 -242zM754 793h159q120 0 176.5 34.5t71.5 108.5q14 67 -20 99t-144 32h-182zM1671 741q-28 -129 -94 -247.5t-158 -211t-202.5 -161t-234.5 -105t-247 -36.5 q-124 0 -232.5 37t-188.5 104t-132.5 162t-64.5 210t14 248q47 213 191.5 388t342.5 272.5t406 97.5q123 0 230.5 -37t187 -104.5t132 -161.5t64.5 -208.5t-14 -246.5zM1524 741q32 136 7.5 252t-87 201t-167 133.5t-233.5 48.5q-130 0 -256.5 -48.5t-228 -132.5 t-176.5 -202.5t-104 -251.5q-32 -139 -8.5 -256.5t87 -202.5t169 -132.5t235.5 -47.5q172 0 332 81.5t275 228.5t155 329z" />
<glyph unicode="&#xaf;" horiz-adv-x="569" d="M801 1253h-639l26 123h639z" />
<glyph unicode="&#xb0;" horiz-adv-x="819" d="M889 1204q-26 -123 -132 -209t-229 -86t-189 86t-40 209q28 123 132.5 209t227.5 86t190.5 -86t39.5 -209zM791 1204q20 87 -24 146t-126 59t-153 -59t-91 -146q-19 -87 25.5 -146t126.5 -59t152.5 59t89.5 146z" />
<glyph unicode="&#xb1;" horiz-adv-x="1228" d="M1192 571h-469l-82 -366h-127l82 366h-469l29 127h469l80 367h126l-79 -367h469zM1065 0h-1065l29 127h1065z" />
<glyph unicode="&#xb2;" horiz-adv-x="749" d="M743 598h-634l24 111q53 70 123.5 130t134.5 97.5t130 76t116 69.5t87 74t48 93q15 66 -23.5 107t-125.5 41q-99 0 -170.5 -52t-110.5 -128l-88 32q56 109 157.5 179.5t239.5 70.5q130 0 195.5 -64t40.5 -173q-18 -80 -74 -145.5t-132 -113.5t-154.5 -90.5t-158.5 -97.5 t-126 -115h524z" />
<glyph unicode="&#xb3;" horiz-adv-x="749" d="M684 1083v-4q53 -18 83.5 -59.5t33.5 -86.5t-4 -91q-25 -115 -129 -185.5t-254 -70.5q-123 0 -198 53t-105 119l96 65q70 -135 229 -135q102 0 168.5 41t81.5 111q21 93 -29.5 137.5t-191.5 44.5h-92l22 102h84q120 0 186.5 36t84.5 118q11 47 -29 83t-113 36 q-83 0 -134 -23.5t-112 -81.5l-73 58q149 149 342 149q130 0 192 -58t37 -163q-16 -76 -64 -125.5t-112 -69.5z" />
<glyph unicode="&#xb4;" horiz-adv-x="569" d="M803 1479l-332 -291h-137l246 291h223z" />
<glyph unicode="&#xb5;" horiz-adv-x="1138" d="M874 0h-147l33 143h-4q-184 -163 -353 -163q-90 0 -153 32l-90 -405h-148l324 1458h147l-170 -770q-22 -101 13.5 -145t119.5 -44q76 0 171 49.5t169 112.5l177 797h147z" />
<glyph unicode="&#xb6;" horiz-adv-x="1024" d="M782 -172h-123l345 1548h-209l-344 -1548h-123l188 850q-183 0 -279.5 114.5t-60.5 278.5q44 198 188.5 303t362.5 105h567l-22 -103h-146z" />
<glyph unicode="&#xb7;" horiz-adv-x="624" d="M473 530q-10 -52 -55.5 -88t-98.5 -36q-55 0 -83 35.5t-17 88.5q12 55 56.5 92t99.5 37q53 0 81.5 -37.5t16.5 -91.5z" />
<glyph unicode="&#xb8;" horiz-adv-x="569" d="M-115 -416l56 90q51 -39 127 -39q60 0 97.5 28.5t37.5 78.5q0 25 -19 42t-51 17q-52 0 -96 -16l-27 39l168 176h98l-122 -119l4 -4q30 10 63 10q69 0 104 -34.5t35 -90.5q0 -104 -81 -162.5t-211 -58.5q-99 0 -183 43z" />
<glyph unicode="&#xb9;" horiz-adv-x="749" d="M662 598h-437l23 102h155l154 697l-180 -27l16 68q159 41 195 61h110l-176 -799h162z" />
<glyph unicode="&#xba;" horiz-adv-x="614" d="M432 934q81 0 136 61.5t79 171.5q25 111 -2.5 172.5t-107.5 61.5q-76 0 -134 -62t-81 -168q-54 -237 110 -237zM766 1167q-34 -154 -129.5 -242.5t-226.5 -88.5q-130 0 -186.5 88.5t-22.5 242.5q35 155 130.5 243.5t225.5 88.5q131 0 187.5 -88.5t21.5 -243.5z" />
<glyph unicode="&#xbb;" horiz-adv-x="1024" d="M897 532l-342 -323h-139l336 323l-193 324h143zM610 532l-342 -323h-139l336 323l-193 324h144z" />
<glyph unicode="&#xbc;" horiz-adv-x="1875" d="M1743 209h-166l-47 -209h-111l47 209h-426l21 92l508 588h157l-127 -578h166zM1489 311l100 459h-4l-397 -459h301zM686 598h-436l22 102h156l154 697l-181 -27l17 68q157 40 194 61h111l-176 -799h162zM483 -20h-121l1235 1519h127z" />
<glyph unicode="&#xbd;" horiz-adv-x="1875" d="M686 598h-436l22 102h156l154 697l-181 -27l17 68q157 40 194 61h111l-176 -799h162zM1679 0h-635l25 111q53 70 123.5 130t134.5 97.5t130 76t116 69.5t87 74t48 93q15 66 -23.5 107t-125.5 41q-99 0 -170.5 -52.5t-110.5 -128.5l-88 33q58 109 159.5 179.5t239.5 70.5 q130 0 194.5 -64t39.5 -173q-18 -80 -74 -145.5t-132 -113.5t-154.5 -90.5t-158.5 -97.5t-126 -115h524zM442 -20h-120l1234 1519h127z" />
<glyph unicode="&#xbe;" horiz-adv-x="1875" d="M1743 209h-166l-47 -209h-111l47 209h-426l21 92l508 588h157l-127 -578h166zM1489 311l100 459h-4l-397 -459h301zM758 1083v-4q53 -18 83 -59.5t33 -86.5t-4 -91q-25 -115 -129 -185.5t-254 -70.5q-123 0 -198 53t-105 119l97 65q70 -135 229 -135q102 0 168.5 41 t81.5 111q21 93 -29.5 137.5t-191.5 44.5h-93l23 102h84q120 0 186 36t84 118q11 47 -28.5 83t-112.5 36q-83 0 -134 -23.5t-112 -81.5l-74 58q149 149 343 149q130 0 192 -58t37 -163q-16 -76 -64 -125.5t-112 -69.5zM516 -20h-121l1235 1519h127z" />
<glyph unicode="&#xbf;" horiz-adv-x="909" d="M563 -150l109 -59q-75 -110 -173.5 -167.5t-209.5 -57.5q-137 0 -215.5 83.5t-46.5 227.5q14 62 51 121.5t82.5 104t98 93t97.5 89.5t80.5 93.5t46.5 104.5l27 115h139l-24 -113q-16 -72 -53.5 -136t-81.5 -107.5t-94 -89.5t-92.5 -84.5t-77 -90.5t-46.5 -108 q-15 -70 16.5 -123t116.5 -53q71 0 129 36.5t121 120.5zM737 840h-200l49 225h200z" />
<glyph unicode="&#xc0;" horiz-adv-x="1251" d="M901 602l-43 762h-22l-383 -762h448zM1120 0h-172l-37 463h-530l-242 -463h-172l783 1479h243zM1022 1577h-137l-203 291h223z" />
<glyph unicode="&#xc1;" horiz-adv-x="1251" d="M901 602l-43 762h-22l-383 -762h448zM1120 0h-172l-37 463h-530l-242 -463h-172l783 1479h243zM1227 1868l-334 -291h-137l248 291h223z" />
<glyph unicode="&#xc2;" horiz-adv-x="1251" d="M901 602l-43 762h-22l-383 -762h448zM1120 0h-172l-37 463h-530l-242 -463h-172l783 1479h243zM1188 1577h-164l-94 192l-176 -192h-164l266 291h193z" />
<glyph unicode="&#xc3;" horiz-adv-x="1251" d="M901 602l-43 762h-22l-383 -762h448zM1120 0h-172l-37 463h-530l-242 -463h-172l783 1479h243zM1194 1812h102q-27 -82 -98 -150.5t-149 -68.5q-54 0 -150.5 39t-144.5 39q-32 0 -66 -30.5t-43 -65.5h-102q33 98 103 160.5t167 62.5q60 0 142 -38t122 -38q38 0 70 25 t47 65z" />
<glyph unicode="&#xc4;" horiz-adv-x="1251" d="M901 602l-43 762h-22l-383 -762h448zM1120 0h-172l-37 463h-530l-242 -463h-172l783 1479h243zM1147 1577h-180l43 192h180zM823 1577h-180l43 192h180z" />
<glyph unicode="&#xc5;" horiz-adv-x="1251" d="M901 602l-43 762h-22l-383 -762h448zM1120 0h-172l-37 463h-530l-242 -463h-172l783 1479h243zM1145 1804q0 -94 -78.5 -171t-177.5 -77q-72 0 -118 45t-46 113q0 98 79.5 175t176.5 77q73 0 118.5 -46t45.5 -116zM909 1647q52 0 98 41.5t46 97.5q0 39 -25.5 64.5 t-66.5 25.5q-55 0 -99.5 -42.5t-44.5 -98.5q0 -39 25.5 -63.5t66.5 -24.5z" />
<glyph unicode="&#xc6;" horiz-adv-x="2048" d="M1864 0h-928l102 463h-544l-357 -463h-186l1161 1479h1038l-30 -140h-723l-111 -495h514l-31 -139h-514l-125 -566h764zM1069 602l170 762h-45l-590 -762h465z" />
<glyph unicode="&#xc7;" horiz-adv-x="1251" d="M246 -416l55 90q51 -39 127 -39q60 0 97.5 28.5t37.5 78.5q0 25 -19 42t-50 17q-53 0 -97 -16l-26 39l149 158q-183 12 -285 131.5t-102 343.5q0 121 35 282q79 360 272.5 560t460.5 200q201 0 301 -111t105 -319l-162 -45q-6 168 -72 252t-223 84q-169 0 -309.5 -158 t-208.5 -463q-31 -129 -31 -256q0 -183 80.5 -273.5t226.5 -90.5q82 0 151.5 28.5t122 81t91 110t74.5 132.5l141 -29q-200 -433 -570 -460l-104 -101l4 -4q30 10 64 10q69 0 104 -34.5t35 -90.5q0 -104 -81 -162.5t-212 -58.5q-98 0 -182 43z" />
<glyph unicode="&#xc8;" horiz-adv-x="1251" d="M1067 0h-928l328 1479h887l-31 -140h-723l-111 -495h515l-31 -139h-514l-125 -566h764zM1079 1577h-137l-203 291h224z" />
<glyph unicode="&#xc9;" horiz-adv-x="1251" d="M1067 0h-928l328 1479h887l-31 -140h-723l-111 -495h515l-31 -139h-514l-125 -566h764zM1284 1868l-334 -291h-137l248 291h223z" />
<glyph unicode="&#xca;" horiz-adv-x="1251" d="M1067 0h-928l328 1479h887l-31 -140h-723l-111 -495h515l-31 -139h-514l-125 -566h764zM1245 1577h-164l-94 192l-176 -192h-164l266 291h193z" />
<glyph unicode="&#xcb;" horiz-adv-x="1251" d="M1067 0h-928l328 1479h887l-31 -140h-723l-111 -495h515l-31 -139h-514l-125 -566h764zM1204 1577h-180l43 192h180zM881 1577h-181l43 192h181z" />
<glyph unicode="&#xcc;" horiz-adv-x="681" d="M340 0h-164l328 1479h164zM737 1577h-137l-203 291h224z" />
<glyph unicode="&#xcd;" horiz-adv-x="681" d="M340 0h-164l328 1479h164zM942 1868l-334 -291h-137l248 291h223z" />
<glyph unicode="&#xce;" horiz-adv-x="681" d="M340 0h-164l328 1479h164zM903 1577h-164l-94 192l-176 -192h-164l266 291h193z" />
<glyph unicode="&#xcf;" horiz-adv-x="681" d="M340 0h-164l328 1479h164zM862 1577h-180l43 192h180zM539 1577h-181l43 192h181z" />
<glyph unicode="&#xd0;" horiz-adv-x="1366" d="M317 139h222q255 0 419 151.5t230 448.5q33 162 24.5 276t-62.5 186t-137 105t-200 33h-229l-111 -495h385l-31 -139h-385zM512 0h-389l156 705h-140l31 139h139l142 635h397q308 0 446 -192t58 -548q-36 -163 -110 -298.5t-179.5 -233.5t-246.5 -152.5t-304 -54.5z" />
<glyph unicode="&#xd1;" horiz-adv-x="1478" d="M1176 0h-136l-456 1319h-4l-293 -1319h-148l328 1479h235l394 -1139h8l252 1139h147zM1307 1812h102q-27 -82 -98.5 -150.5t-149.5 -68.5q-54 0 -150.5 39t-144.5 39q-32 0 -65.5 -30.5t-42.5 -65.5h-103q33 98 103.5 160.5t167.5 62.5q60 0 142 -38t122 -38q38 0 70 25 t47 65z" />
<glyph unicode="&#xd2;" horiz-adv-x="1366" d="M627 119q199 0 341 155.5t210 464.5q32 136 32 260q0 181 -79 271t-230 90q-199 0 -341 -156t-210 -465q-33 -143 -33 -262q0 -179 79.5 -268.5t230.5 -89.5zM596 -20q-216 0 -330 122.5t-114 356.5q0 126 34 280q81 367 276.5 563.5t469.5 196.5q216 0 329 -122.5 t113 -356.5q0 -132 -33 -281q-81 -367 -276 -563t-469 -196zM1079 1577h-137l-203 291h224z" />
<glyph unicode="&#xd3;" horiz-adv-x="1366" d="M627 119q199 0 341 155.5t210 464.5q32 136 32 260q0 181 -79 271t-230 90q-199 0 -341 -156t-210 -465q-33 -143 -33 -262q0 -179 79.5 -268.5t230.5 -89.5zM596 -20q-216 0 -330 122.5t-114 356.5q0 126 34 280q81 367 276.5 563.5t469.5 196.5q216 0 329 -122.5 t113 -356.5q0 -132 -33 -281q-81 -367 -276 -563t-469 -196zM1284 1868l-334 -291h-137l248 291h223z" />
<glyph unicode="&#xd4;" horiz-adv-x="1366" d="M627 119q199 0 341 155.5t210 464.5q32 136 32 260q0 181 -79 271t-230 90q-199 0 -341 -156t-210 -465q-33 -143 -33 -262q0 -179 79.5 -268.5t230.5 -89.5zM596 -20q-216 0 -330 122.5t-114 356.5q0 126 34 280q81 367 276.5 563.5t469.5 196.5q216 0 329 -122.5 t113 -356.5q0 -132 -33 -281q-81 -367 -276 -563t-469 -196zM1245 1577h-164l-94 192l-176 -192h-164l266 291h193z" />
<glyph unicode="&#xd5;" horiz-adv-x="1366" d="M627 119q199 0 341 155.5t210 464.5q32 136 32 260q0 181 -79 271t-230 90q-199 0 -341 -156t-210 -465q-33 -143 -33 -262q0 -179 79.5 -268.5t230.5 -89.5zM596 -20q-216 0 -330 122.5t-114 356.5q0 126 34 280q81 367 276.5 563.5t469.5 196.5q216 0 329 -122.5 t113 -356.5q0 -132 -33 -281q-81 -367 -276 -563t-469 -196zM1251 1812h103q-27 -82 -98.5 -150.5t-149.5 -68.5q-54 0 -150.5 39t-144.5 39q-32 0 -66 -30.5t-43 -65.5h-102q33 98 103 160.5t167 62.5q60 0 142.5 -38t122.5 -38q38 0 69.5 25t46.5 65z" />
<glyph unicode="&#xd6;" horiz-adv-x="1366" d="M627 119q199 0 341 155.5t210 464.5q32 136 32 260q0 181 -79 271t-230 90q-199 0 -341 -156t-210 -465q-33 -143 -33 -262q0 -179 79.5 -268.5t230.5 -89.5zM596 -20q-216 0 -330 122.5t-114 356.5q0 126 34 280q81 367 276.5 563.5t469.5 196.5q216 0 329 -122.5 t113 -356.5q0 -132 -33 -281q-81 -367 -276 -563t-469 -196zM1204 1577h-180l43 192h180zM881 1577h-181l43 192h181z" />
<glyph unicode="&#xd7;" horiz-adv-x="1228" d="M1085 90l-110 -90l-344 442l-541 -442l-70 90l541 442l-344 443l109 90l344 -447l540 447l72 -90l-541 -443z" />
<glyph unicode="&#xd8;" horiz-adv-x="1366" d="M340 324l797 940q-78 96 -236 96q-199 0 -341 -156t-210 -465q-31 -149 -31 -256q0 -91 21 -159zM1188 1159l-797 -940q69 -100 236 -100q199 0 341 155.5t210 464.5q32 157 32 256q0 90 -22 164zM92 -131h-137l260 305q-63 114 -63 285q0 129 34 280q81 367 276.5 563.5 t469.5 196.5q204 0 313 -106l156 184h143l-231 -270q63 -114 63 -285q0 -125 -35 -283q-81 -367 -276 -563t-469 -196q-202 0 -315 110z" />
<glyph unicode="&#xd9;" horiz-adv-x="1478" d="M1108 434l231 1045h164l-229 -1033q-49 -218 -218.5 -342t-402.5 -124q-199 0 -314.5 92.5t-115.5 257.5q0 54 15 116l229 1033h164l-232 -1045q-8 -36 -8 -74q0 -107 75.5 -174t217.5 -67q167 0 280 90t144 225zM1135 1556h-138l-202 291h223z" />
<glyph unicode="&#xda;" horiz-adv-x="1478" d="M1339 1868l-333 -291h-138l248 291h223zM1108 434l231 1045h164l-229 -1033q-49 -218 -218.5 -342t-402.5 -124q-199 0 -314.5 92.5t-115.5 257.5q0 54 15 116l229 1033h164l-232 -1045q-8 -36 -8 -74q0 -107 75.5 -174t217.5 -67q167 0 280 90t144 225z" />
<glyph unicode="&#xdb;" horiz-adv-x="1478" d="M1300 1577h-163l-95 192l-176 -192h-164l267 291h192zM1108 434l231 1045h164l-229 -1033q-49 -218 -218.5 -342t-402.5 -124q-199 0 -314.5 92.5t-115.5 257.5q0 54 15 116l229 1033h164l-232 -1045q-8 -36 -8 -74q0 -107 75.5 -174t217.5 -67q167 0 280 90t144 225z " />
<glyph unicode="&#xdc;" horiz-adv-x="1478" d="M1108 434l231 1045h164l-229 -1033q-49 -218 -218.5 -342t-402.5 -124q-199 0 -314.5 92.5t-115.5 257.5q0 54 15 116l229 1033h164l-232 -1045q-8 -36 -8 -74q0 -107 75.5 -174t217.5 -67q167 0 280 90t144 225zM1260 1577h-181l43 192h181zM936 1577h-180l43 192h180z " />
<glyph unicode="&#xdd;" horiz-adv-x="1138" d="M569 0h-163l137 623l-264 856h180l207 -678l505 678h181l-645 -856zM1169 1868l-333 -291h-138l248 291h223z" />
<glyph unicode="&#xde;" horiz-adv-x="1251" d="M399 512h279q198 0 296 66.5t128 203.5q60 271 -266 271h-316zM287 0h-164l328 1479h163l-63 -287h352q92 0 163.5 -20.5t115 -58t69 -89t26.5 -114t-13 -132.5q-41 -190 -201 -297.5t-432 -107.5h-262z" />
<glyph unicode="&#xdf;" horiz-adv-x="1138" d="M399 35l82 121q18 -20 53.5 -35t83.5 -15q105 0 176 79.5t99 205.5q42 193 -34 278t-255 85l27 127h59q91 0 172.5 71t104.5 178q27 116 -16 179t-158 63q-117 0 -186 -67.5t-105 -206.5l-244 -1098h-147l251 1135q27 125 102 209.5t166 119.5t193 35q179 0 254.5 -98.5 t40.5 -257.5q-24 -106 -88 -185.5t-164 -123.5v-5q130 -40 172 -151.5t4 -276.5q-21 -98 -68 -179t-107 -133t-128.5 -80.5t-136.5 -28.5q-126 0 -203 55z" />
<glyph unicode="&#xe0;" horiz-adv-x="1024" d="M817 1188h-137l-205 291h223zM827 0h-151l16 147q-187 -167 -389 -167q-110 0 -179 56t-69 161q0 208 177.5 324.5t578.5 185.5l14 57q6 30 6 55q0 139 -182 139q-111 0 -189.5 -49.5t-119.5 -115.5l-115 67q77 100 192 162.5t257 62.5q62 0 115 -13.5t97 -41t69.5 -75 t25.5 -109.5q0 -41 -8 -80l-119 -537q-25 -112 -27 -229zM719 283l63 292q-575 -96 -575 -335q0 -59 43.5 -96.5t101.5 -37.5q77 0 180 50.5t187 126.5z" />
<glyph unicode="&#xe1;" horiz-adv-x="1024" d="M1020 1479l-332 -291h-137l246 291h223zM827 0h-151l16 147q-187 -167 -389 -167q-110 0 -179 56t-69 161q0 208 177.5 324.5t578.5 185.5l14 57q6 30 6 55q0 139 -182 139q-111 0 -189.5 -49.5t-119.5 -115.5l-115 67q77 100 192 162.5t257 62.5q62 0 115 -13.5t97 -41 t69.5 -75t25.5 -109.5q0 -41 -8 -80l-119 -537q-25 -112 -27 -229zM719 283l63 292q-575 -96 -575 -335q0 -59 43.5 -96.5t101.5 -37.5q77 0 180 50.5t187 126.5z" />
<glyph unicode="&#xe2;" horiz-adv-x="1024" d="M983 1188h-164l-96 192l-174 -192h-164l264 291h193zM827 0h-151l16 147q-187 -167 -389 -167q-110 0 -179 56t-69 161q0 208 177.5 324.5t578.5 185.5l14 57q6 30 6 55q0 139 -182 139q-111 0 -189.5 -49.5t-119.5 -115.5l-115 67q77 100 192 162.5t257 62.5 q62 0 115 -13.5t97 -41t69.5 -75t25.5 -109.5q0 -41 -8 -80l-119 -537q-25 -112 -27 -229zM719 283l63 292q-575 -96 -575 -335q0 -59 43.5 -96.5t101.5 -37.5q77 0 180 50.5t187 126.5z" />
<glyph unicode="&#xe3;" horiz-adv-x="1024" d="M987 1444h103q-27 -82 -97.5 -150.5t-148.5 -68.5q-50 0 -152 39q-96 39 -145 39q-32 0 -65.5 -31.5t-41.5 -65.5h-102q31 98 101 161t167 63q58 0 142 -37q84 -39 124 -39q38 0 69.5 25t45.5 65zM827 0h-151l16 147q-187 -167 -389 -167q-110 0 -179 56t-69 161 q0 208 177.5 324.5t578.5 185.5l14 57q6 30 6 55q0 139 -182 139q-111 0 -189.5 -49.5t-119.5 -115.5l-115 67q77 100 192 162.5t257 62.5q62 0 115 -13.5t97 -41t69.5 -75t25.5 -109.5q0 -41 -8 -80l-119 -537q-25 -112 -27 -229zM719 283l63 292q-575 -96 -575 -335 q0 -59 43.5 -96.5t101.5 -37.5q77 0 180 50.5t187 126.5z" />
<glyph unicode="&#xe4;" horiz-adv-x="1024" d="M940 1208h-180l43 193h180zM616 1208h-180l43 193h180zM827 0h-151l16 147q-187 -167 -389 -167q-110 0 -179 56t-69 161q0 208 177.5 324.5t578.5 185.5l14 57q6 30 6 55q0 139 -182 139q-111 0 -189.5 -49.5t-119.5 -115.5l-115 67q77 100 192 162.5t257 62.5 q62 0 115 -13.5t97 -41t69.5 -75t25.5 -109.5q0 -41 -8 -80l-119 -537q-25 -112 -27 -229zM719 283l63 292q-575 -96 -575 -335q0 -59 43.5 -96.5t101.5 -37.5q77 0 180 50.5t187 126.5z" />
<glyph unicode="&#xe5;" horiz-adv-x="1024" d="M934 1393q-19 -85 -92 -145t-158 -60t-132 60t-28 145t92 144.5t158 59.5t132 -59.5t28 -144.5zM844 1393q10 47 -16.5 80.5t-73.5 33.5t-88.5 -33.5t-51.5 -80.5q-11 -47 15 -81t73 -34t89.5 34t52.5 81zM827 0h-151l16 147q-187 -167 -389 -167q-110 0 -179 56t-69 161 q0 208 177.5 324.5t578.5 185.5l14 57q6 30 6 55q0 139 -182 139q-111 0 -189.5 -49.5t-119.5 -115.5l-115 67q77 100 192 162.5t257 62.5q62 0 115 -13.5t97 -41t69.5 -75t25.5 -109.5q0 -41 -8 -80l-119 -537q-25 -112 -27 -229zM719 283l63 292q-575 -96 -575 -335 q0 -59 43.5 -96.5t101.5 -37.5q77 0 180 50.5t187 126.5z" />
<glyph unicode="&#xe6;" horiz-adv-x="1593" d="M668 274l65 301q-65 -13 -118.5 -26t-120.5 -33.5t-117 -46.5t-94.5 -59.5t-68.5 -78t-24 -95.5q0 -58 40.5 -94t101.5 -36q95 0 191.5 53.5t144.5 114.5zM1391 287l102 -60q-42 -53 -81 -91t-94 -76.5t-125.5 -59t-152.5 -20.5q-54 0 -96.5 7t-85.5 25.5t-77 55.5 t-58 92q-132 -107 -232.5 -143.5t-216.5 -36.5q-98 0 -168.5 56.5t-70.5 153.5q0 75 24.5 139t63 111t99 87t120 66.5t138 49.5t141 36.5t141.5 27.5l14 57q6 34 6 61q0 133 -164 133q-106 0 -183 -49.5t-118 -115.5l-110 67q72 99 185 162t245 63q216 0 276 -143 q147 143 338 143q139 0 224.5 -80t85.5 -241q0 -69 -19 -162l-20 -98h-656q-18 -82 -18 -152q0 -246 233 -246q79 0 162 48.5t148 132.5zM893 631h508q12 59 12 110q0 101 -51 159t-145 58q-124 0 -205 -86.5t-119 -240.5z" />
<glyph unicode="&#xe7;" horiz-adv-x="1024" d="M113 -416l55 90q51 -39 127 -39q60 0 97.5 28.5t37.5 78.5q0 25 -19 42t-51 17q-52 0 -96 -16l-26 39l149 158q-141 13 -216 107.5t-75 254.5q0 87 23 188q57 257 206.5 405t350.5 148q80 0 138.5 -21t95 -61.5t58 -89.5t33.5 -116l-147 -49q-9 100 -60.5 155t-144.5 55 q-137 0 -238 -112t-145 -314q-22 -99 -22 -170q0 -123 56.5 -189.5t160.5 -66.5q103 0 176 42.5t160 154.5l106 -53q-107 -133 -199.5 -195.5t-218.5 -72.5l-104 -101l4 -4q30 10 64 10q69 0 104 -34.5t35 -90.5q0 -104 -81 -162.5t-212 -58.5q-98 0 -182 43z" />
<glyph unicode="&#xe8;" horiz-adv-x="1024" d="M821 287l103 -60q-42 -53 -81 -91t-95 -76.5t-129 -59t-160 -20.5q-76 0 -140.5 22t-114.5 66t-78 117.5t-28 168.5q0 79 21 178q57 256 207 404.5t348 148.5q144 0 230.5 -80.5t86.5 -240.5q0 -74 -18 -162l-21 -98h-692q-14 -57 -14 -117q0 -127 66 -204t175 -77 q96 0 182 48t152 133zM291 631h540q15 77 15 112q0 101 -50.5 158t-144.5 57q-130 0 -223 -87.5t-137 -239.5zM827 1188h-137l-205 291h224z" />
<glyph unicode="&#xe9;" horiz-adv-x="1024" d="M821 287l103 -60q-42 -53 -81 -91t-95 -76.5t-129 -59t-160 -20.5q-76 0 -140.5 22t-114.5 66t-78 117.5t-28 168.5q0 79 21 178q57 256 207 404.5t348 148.5q144 0 230.5 -80.5t86.5 -240.5q0 -74 -18 -162l-21 -98h-692q-14 -57 -14 -117q0 -127 66 -204t175 -77 q96 0 182 48t152 133zM291 631h540q15 77 15 112q0 101 -50.5 158t-144.5 57q-130 0 -223 -87.5t-137 -239.5zM1030 1479l-332 -291h-137l246 291h223z" />
<glyph unicode="&#xea;" horiz-adv-x="1024" d="M821 287l103 -60q-42 -53 -81 -91t-95 -76.5t-129 -59t-160 -20.5q-76 0 -140.5 22t-114.5 66t-78 117.5t-28 168.5q0 79 21 178q57 256 207 404.5t348 148.5q144 0 230.5 -80.5t86.5 -240.5q0 -74 -18 -162l-21 -98h-692q-14 -57 -14 -117q0 -127 66 -204t175 -77 q96 0 182 48t152 133zM291 631h540q15 77 15 112q0 101 -50.5 158t-144.5 57q-130 0 -223 -87.5t-137 -239.5zM993 1188h-164l-96 192l-174 -192h-164l264 291h193z" />
<glyph unicode="&#xeb;" horiz-adv-x="1024" d="M291 631h540q15 77 15 112q0 101 -50.5 158t-144.5 57q-130 0 -223 -87.5t-137 -239.5zM821 287l103 -60q-42 -53 -81 -91t-95 -76.5t-129 -59t-160 -20.5q-76 0 -140.5 22t-114.5 66t-78 117.5t-28 168.5q0 79 21 178q57 256 207 404.5t348 148.5q144 0 230.5 -80.5 t86.5 -240.5q0 -74 -18 -162l-21 -98h-692q-14 -57 -14 -117q0 -127 66 -204t175 -77q96 0 182 48t152 133zM950 1208h-180l43 193h180zM627 1208h-181l43 193h181z" />
<glyph unicode="&#xec;" horiz-adv-x="569" d="M276 0h-147l236 1065h147zM600 1188h-137l-205 291h223z" />
<glyph unicode="&#xed;" horiz-adv-x="569" d="M276 0h-147l236 1065h147zM803 1479l-332 -291h-137l246 291h223z" />
<glyph unicode="&#xee;" horiz-adv-x="569" d="M276 0h-147l236 1065h147zM766 1188h-164l-96 192l-174 -192h-164l264 291h193z" />
<glyph unicode="&#xef;" horiz-adv-x="569" d="M276 0h-147l236 1065h147zM723 1208h-180l43 193h180zM399 1208h-180l43 193h180z" />
<glyph unicode="&#xf0;" horiz-adv-x="1024" d="M455 106q142 0 237.5 105.5t138.5 292.5q40 181 -10 285t-192 104t-239 -104.5t-136 -284.5q-42 -186 8 -292t193 -106zM1071 1360l-223 -113q64 -99 103.5 -213.5t50.5 -245t-19 -260.5q-54 -248 -199.5 -398t-357.5 -150q-213 0 -294 141t-26 383q53 237 195 376.5 t354 139.5q56 0 146 -29q-20 88 -88 189l-244 -119l-49 98l233 113q-80 100 -155 158l139 49q78 -56 143 -140l252 123z" />
<glyph unicode="&#xf1;" horiz-adv-x="1138" d="M874 0h-147l170 770q24 101 -11 144.5t-120 43.5q-76 0 -172.5 -49t-169.5 -112l-176 -797h-148l236 1065h147l-30 -143h4q180 163 350 163q62 0 111.5 -16.5t87 -53t47.5 -96t-6 -145.5zM1055 1444h102q-27 -82 -97.5 -150.5t-148.5 -68.5q-49 0 -151 39q-96 39 -146 39 q-32 0 -65 -31.5t-41 -65.5h-102q31 98 101 161t167 63q57 0 141 -37q84 -39 125 -39q38 0 69.5 25t45.5 65z" />
<glyph unicode="&#xf2;" horiz-adv-x="1024" d="M455 106q134 0 236 111.5t147 314.5q44 203 -8.5 314.5t-186.5 111.5t-236.5 -111.5t-146.5 -314.5q-45 -203 8 -314.5t187 -111.5zM985 532q-36 -157 -110.5 -279.5t-191 -197.5t-257.5 -75q-106 0 -181.5 43t-110.5 118t-42.5 175.5t21.5 215.5q35 157 109 280 t190.5 198t257.5 75q85 0 150.5 -28t106 -78t60.5 -119.5t19.5 -152t-21.5 -175.5zM827 1188h-137l-205 291h224z" />
<glyph unicode="&#xf3;" horiz-adv-x="1024" d="M455 106q134 0 236 111.5t147 314.5q44 203 -8.5 314.5t-186.5 111.5t-236.5 -111.5t-146.5 -314.5q-45 -203 8 -314.5t187 -111.5zM985 532q-36 -157 -110.5 -279.5t-191 -197.5t-257.5 -75q-106 0 -181.5 43t-110.5 118t-42.5 175.5t21.5 215.5q35 157 109 280 t190.5 198t257.5 75q85 0 150.5 -28t106 -78t60.5 -119.5t19.5 -152t-21.5 -175.5zM1030 1479l-332 -291h-137l246 291h223z" />
<glyph unicode="&#xf4;" horiz-adv-x="1024" d="M455 106q134 0 236 111.5t147 314.5q44 203 -8.5 314.5t-186.5 111.5t-236.5 -111.5t-146.5 -314.5q-45 -203 8 -314.5t187 -111.5zM985 532q-36 -157 -110.5 -279.5t-191 -197.5t-257.5 -75q-106 0 -181.5 43t-110.5 118t-42.5 175.5t21.5 215.5q35 157 109 280 t190.5 198t257.5 75q85 0 150.5 -28t106 -78t60.5 -119.5t19.5 -152t-21.5 -175.5zM993 1188h-164l-96 192l-174 -192h-164l264 291h193z" />
<glyph unicode="&#xf5;" horiz-adv-x="1024" d="M455 106q134 0 236 111.5t147 314.5q44 203 -8.5 314.5t-186.5 111.5t-236.5 -111.5t-146.5 -314.5q-45 -203 8 -314.5t187 -111.5zM985 532q-36 -157 -110.5 -279.5t-191 -197.5t-257.5 -75q-106 0 -181.5 43t-110.5 118t-42.5 175.5t21.5 215.5q35 157 109 280 t190.5 198t257.5 75q85 0 150.5 -28t106 -78t60.5 -119.5t19.5 -152t-21.5 -175.5zM997 1444h103q-27 -82 -97.5 -150.5t-148.5 -68.5q-50 0 -152 39q-96 39 -145 39q-32 0 -65 -31.5t-41 -65.5h-103q31 98 101 161t167 63q58 0 142 -37q84 -39 125 -39q38 0 69 25t45 65z " />
<glyph unicode="&#xf6;" horiz-adv-x="1024" d="M455 106q134 0 236 111.5t147 314.5q44 203 -8.5 314.5t-186.5 111.5t-236.5 -111.5t-146.5 -314.5q-45 -203 8 -314.5t187 -111.5zM985 532q-36 -157 -110.5 -279.5t-191 -197.5t-257.5 -75q-106 0 -181.5 43t-110.5 118t-42.5 175.5t21.5 215.5q35 157 109 280 t190.5 198t257.5 75q85 0 150.5 -28t106 -78t60.5 -119.5t19.5 -152t-21.5 -175.5zM950 1208h-180l43 193h180zM627 1208h-181l43 193h181z" />
<glyph unicode="&#xf7;" horiz-adv-x="1228" d="M1169 469h-1065l29 127h1065zM872 958q-12 -53 -57.5 -90t-97.5 -37q-53 0 -82 37.5t-17 89.5q10 52 55.5 89.5t98.5 37.5q52 0 81.5 -37t18.5 -90zM684 106q-12 -52 -57.5 -89t-98.5 -37t-81.5 37t-16.5 89q10 52 55.5 89.5t98.5 37.5q52 0 81.5 -37t18.5 -90z" />
<glyph unicode="&#xf8;" horiz-adv-x="1024" d="M842 811l-533 -653q52 -52 146 -52q134 0 236 111.5t147 314.5q36 169 4 279zM45 -168h-131l233 289q-93 150 -34 411q35 157 109 280t190.5 198t257.5 75q131 0 209 -63l170 211h133l-232 -287q93 -153 35 -414q-36 -157 -110.5 -279.5t-191 -197.5t-257.5 -75 q-137 0 -209 63zM254 254l530 653q-51 51 -141 51q-134 0 -236.5 -111.5t-146.5 -314.5q-39 -167 -6 -278z" />
<glyph unicode="&#xf9;" horiz-adv-x="1138" d="M874 0h-147l33 143h-4q-184 -163 -353 -163q-62 0 -111 16.5t-86 53t-47.5 96t5.5 145.5l172 774h147l-170 -770q-22 -101 13.5 -145t119.5 -44q76 0 171 49.5t169 112.5l177 797h147zM885 1188h-137l-205 291h223z" />
<glyph unicode="&#xfa;" horiz-adv-x="1138" d="M874 0h-147l33 143h-4q-184 -163 -353 -163q-62 0 -111 16.5t-86 53t-47.5 96t5.5 145.5l172 774h147l-170 -770q-22 -101 13.5 -145t119.5 -44q76 0 171 49.5t169 112.5l177 797h147zM1087 1479l-331 -291h-138l246 291h223z" />
<glyph unicode="&#xfb;" horiz-adv-x="1138" d="M874 0h-147l33 143h-4q-184 -163 -353 -163q-62 0 -111 16.5t-86 53t-47.5 96t5.5 145.5l172 774h147l-170 -770q-22 -101 13.5 -145t119.5 -44q76 0 171 49.5t169 112.5l177 797h147zM1051 1188h-164l-96 192l-175 -192h-163l264 291h192z" />
<glyph unicode="&#xfc;" horiz-adv-x="1138" d="M874 0h-147l33 143h-4q-184 -163 -353 -163q-62 0 -111 16.5t-86 53t-47.5 96t5.5 145.5l172 774h147l-170 -770q-22 -101 13.5 -145t119.5 -44q76 0 171 49.5t169 112.5l177 797h147zM1008 1208h-181l43 193h181zM684 1208h-180l43 193h180z" />
<glyph unicode="&#xfd;" horiz-adv-x="909" d="M311 -12l-133 1077h156l106 -813h4l430 813h156l-631 -1159q-165 -299 -426 -299q-22 0 -39.5 2t-37.5 5.5t-25 4.5l27 121q60 -6 77 -6q32 0 60 4t67 19t72 41t70 74.5t67 115.5zM973 1479l-332 -291h-137l246 291h223z" />
<glyph unicode="&#xfe;" horiz-adv-x="1138" d="M158 -393h-148l416 1872h147l-118 -539h4q55 61 143 103t164 42q49 0 95 -11.5t91 -37.5t77 -68t54 -103.5t20.5 -144t-22.5 -188.5q-26 -119 -75 -216t-106.5 -158t-124.5 -102.5t-127.5 -58.5t-117.5 -17q-139 0 -254 118l-8 4zM426 815l-125 -561q47 -68 110 -108 t128 -40q139 0 242.5 103t154.5 332q44 200 -12.5 308.5t-196.5 108.5q-69 0 -136.5 -32.5t-164.5 -110.5z" />
<glyph unicode="&#xff;" horiz-adv-x="909" d="M311 -12l-133 1077h156l106 -813h4l430 813h156l-631 -1159q-165 -299 -426 -299q-22 0 -39.5 2t-37.5 5.5t-25 4.5l27 121q60 -6 77 -6q32 0 60 4t67 19t72 41t70 74.5t67 115.5zM893 1208h-180l43 193h180zM569 1208h-180l43 193h180z" />
<glyph unicode="&#x131;" horiz-adv-x="569" d="M276 0h-147l236 1065h147z" />
<glyph unicode="&#x141;" horiz-adv-x="1138" d="M1004 0h-865l140 625l-207 -76l30 139l207 76l158 715h164l-144 -650l428 160l-30 -139l-428 -160l-123 -551h700z" />
<glyph unicode="&#x142;" horiz-adv-x="569" d="M276 0h-147l162 727l-203 -94l31 139l203 94l135 613h147l-119 -537l203 92l-31 -139l-202 -92z" />
<glyph unicode="&#x152;" horiz-adv-x="2048" d="M1890 0h-923q-45 0 -159.5 -10t-184.5 -10q-130 0 -226.5 36t-155.5 102.5t-87.5 156t-28.5 202.5q0 119 31 262q36 165 102 300t163.5 239.5t234.5 162.5t302 58q72 0 182 -10t154 -10h883l-31 -140h-723l-110 -495h514l-31 -139h-514l-125 -566h764zM1049 385l155 709 q10 52 10 82q0 99 -72.5 141.5t-217.5 42.5q-234 0 -385.5 -158t-219.5 -463q-30 -138 -30 -247q0 -373 360 -373q173 0 270 60t130 206z" />
<glyph unicode="&#x153;" horiz-adv-x="1593" d="M401 106q133 0 226 110.5t139 315.5q93 426 -176 426q-127 0 -221 -111.5t-138 -314.5q-46 -202 -1.5 -314t171.5 -112zM1411 287l102 -60q-33 -49 -72.5 -90t-94 -78t-125.5 -58t-152 -21q-129 0 -205.5 46t-103.5 148q-158 -194 -387 -194q-184 0 -265.5 149t-23.5 403 q56 255 202 404t330 149q229 0 304 -190q132 190 380 190q79 0 141.5 -27.5t105.5 -86.5t52.5 -150t-16.5 -219l-20 -98h-656q-20 -90 -21 -161t19.5 -125t69 -83t123.5 -29q94 0 177 48.5t136 132.5zM938 631h504q34 149 -13.5 238t-166.5 89q-243 0 -324 -327z" />
<glyph unicode="&#x160;" horiz-adv-x="1251" d="M983 1577h-192l-136 291h164l90 -193l181 193h163zM1235 1135l-156 -33q-3 113 -76.5 185.5t-209.5 72.5t-234 -73t-98 -195q0 -29 10 -54.5t33.5 -47.5t45.5 -39t62.5 -36.5t67.5 -31t77.5 -32.5t76.5 -32q69 -30 119 -59t97 -69.5t72 -93.5t25 -116q0 -73 -20.5 -143 t-66.5 -135.5t-112.5 -114.5t-165 -78.5t-217.5 -29.5q-380 0 -465 385l162 53q48 -299 322 -299q170 0 280.5 90.5t110.5 224.5q0 34 -10.5 63t-34 54t-46.5 44t-64 40t-69.5 33.5t-78.5 33.5q-42 17 -62 26t-59 27t-59.5 30t-52.5 32t-49.5 37.5t-39.5 42t-32.5 49 t-18.5 55.5t-8 64q0 122 70.5 221.5t191.5 156t266 56.5q176 0 287 -92.5t129 -271.5z" />
<glyph unicode="&#x161;" horiz-adv-x="909" d="M915 899l-120 -90q-47 78 -102.5 113.5t-139.5 35.5q-92 0 -152 -42.5t-75 -114.5q-9 -41 10.5 -72t59 -49.5t90.5 -37t105.5 -34.5t104 -42t85 -60t50 -88.5t-1.5 -126.5q-22 -99 -91 -171.5t-159 -106t-190 -33.5q-127 0 -228 52.5t-153 149.5l135 88 q36 -77 105 -120.5t166 -43.5q113 0 182.5 51.5t85.5 125.5q11 48 -8.5 83.5t-59.5 56t-92 39.5t-107.5 34t-106 40t-86.5 56.5t-50 84t4 122.5q35 136 148 212t268 74q105 -2 196.5 -53.5t126.5 -132.5zM731 1188h-192l-138 291h164l90 -193l181 193h163z" />
<glyph unicode="&#x178;" horiz-adv-x="1138" d="M569 0h-163l137 623l-264 856h180l207 -678l505 678h181l-645 -856zM1090 1577h-181l43 192h181zM766 1577h-180l43 192h180z" />
<glyph unicode="&#x17d;" horiz-adv-x="1138" d="M965 0h-955l27 119l1012 1220h-674l31 140h878l-22 -107l-1029 -1233h762zM926 1577h-193l-135 291h164l90 -193l180 193h164z" />
<glyph unicode="&#x17e;" horiz-adv-x="909" d="M766 0h-786l24 106l766 832h-524l26 127h725l-22 -107l-766 -831h586zM731 1188h-192l-138 291h164l90 -193l181 193h163z" />
<glyph unicode="&#x192;" horiz-adv-x="1251" d="M328 -61l356 880h-233l26 123h258l49 119q100 241 206.5 339.5t271.5 98.5q73 0 110 -16l-65 -133q-37 22 -86 22q-81 0 -142 -67t-139 -248l-47 -111h237l-26 -127h-260l-361 -862q-49 -117 -104 -190.5t-140 -116.5t-200 -43q-34 0 -96 12l51 135q40 -20 94 -20 q94 0 144 45t96 160z" />
<glyph unicode="&#x2c6;" horiz-adv-x="569" d="M766 1188h-164l-96 192l-174 -192h-164l264 291h193z" />
<glyph unicode="&#x2c7;" horiz-adv-x="569" d="M561 1188h-192l-138 291h164l90 -193l181 193h163z" />
<glyph unicode="&#x2d8;" horiz-adv-x="569" d="M745 1475h101q-50 -138 -147.5 -208.5t-231.5 -70.5q-123 0 -188.5 59t-65.5 175q0 29 2 45h100q0 -160 179 -160q180 0 251 160z" />
<glyph unicode="&#x2d9;" horiz-adv-x="569" d="M561 1208h-180l43 193h180z" />
<glyph unicode="&#x2da;" horiz-adv-x="569" d="M721 1436q0 -95 -77 -171.5t-177 -76.5q-73 0 -118.5 46t-45.5 116q0 97 78.5 172t175.5 75q73 0 118.5 -45.5t45.5 -115.5zM485 1278q52 0 98 41.5t46 97.5q0 39 -25.5 64.5t-66.5 25.5q-55 0 -99.5 -42.5t-44.5 -98.5q0 -39 25.5 -63.5t66.5 -24.5z" />
<glyph unicode="&#x2db;" horiz-adv-x="569" d="M401 -252l19 -61q-59 -41 -150.5 -79t-185.5 -38q-82 0 -123 34t-41 95q0 124 132 211t397 129l-5 -21q-48 -16 -84.5 -29.5t-93 -40.5t-93 -55t-64 -68.5t-27.5 -84.5q0 -76 100 -76q69 0 219 84z" />
<glyph unicode="&#x2dc;" horiz-adv-x="569" d="M770 1444h102q-27 -83 -97 -151t-148 -68q-56 0 -152.5 39t-144.5 39q-32 0 -65.5 -31.5t-41.5 -65.5h-102q31 98 101 161t167 63q60 0 144 -38t122 -38t69.5 25t45.5 65z" />
<glyph unicode="&#x2dd;" horiz-adv-x="569" d="M647 1479l-315 -291h-129l225 291h219zM958 1479l-331 -291h-138l246 291h223z" />
<glyph unicode="&#x3a9;" horiz-adv-x="1634" d="M1434 0h-531l19 82q80 41 156.5 104t147 147.5t126 196t82.5 234.5q15 71 15.5 143t-13.5 140t-46 127.5t-78.5 104t-115.5 70t-152 25.5q-119 0 -231 -48.5t-198.5 -132t-150 -195.5t-91.5 -238q-37 -160 -12.5 -296t82 -232t139.5 -150l-19 -82h-528l24 111h344l3 6 q-54 51 -94 116t-67 150t-28.5 182t21.5 213q45 205 171 368t300 252t362 89q116 0 213 -37.5t160.5 -103t104 -154.5t45.5 -191.5t-17 -214.5q-49 -219 -180 -394.5t-285 -274.5l-2 -6h348z" />
<glyph unicode="&#x3bc;" horiz-adv-x="1138" d="M874 0h-147l33 143h-4q-184 -163 -353 -163q-90 0 -153 32l-90 -405h-148l324 1458h147l-170 -770q-22 -101 13.5 -145t119.5 -44q76 0 171 49.5t169 112.5l177 797h147z" />
<glyph unicode="&#x3c0;" horiz-adv-x="1261" d="M967 0h-136q-22 61 29 299l150 672h-435q-60 -229 -177 -533t-205 -438h-138q96 156 208 446t175 525q-174 0 -266 -29l-4 90q108 53 321 53h885l-39 -114h-188l-146 -656q-46 -206 -34 -315z" />
<glyph unicode="&#xe00;" horiz-adv-x="399" />
<glyph unicode="&#xe01;" horiz-adv-x="1261" d="M975 0h-166l166 768q31 143 -32.5 222t-223.5 79q-108 0 -198 -37.5t-144 -89.5l-4 -16q58 -9 124 -38t103 -59l-16 -73q-92 -9 -153.5 -74t-84.5 -178l-106 -504h-166l106 502q23 109 85 187t143 108q-42 23 -108.5 36t-131.5 13l20 94q72 110 222 192t321 82 q232 0 341.5 -123.5t66.5 -322.5z" />
<glyph unicode="&#xe02;" horiz-adv-x="1196" d="M932 0h-721l31 150h133l78 366q10 47 39 93.5t62 84.5t65.5 77.5t53.5 88.5t21 101q0 58 -43 93.5t-114 35.5q-67 0 -105 -15v-4q67 -3 109.5 -47.5t42.5 -116.5q0 -91 -67.5 -151t-162.5 -60q-90 0 -147 51t-57 146q0 130 122 225.5t281 95.5q149 0 224 -68.5t75 -180.5 q0 -55 -21 -107.5t-52.5 -95t-64 -81.5t-60.5 -82.5t-36 -82.5l-77 -366h256l225 1048h166zM463 905q0 34 -21.5 57t-58.5 23q-45 0 -73.5 -27.5t-28.5 -74.5q0 -33 21.5 -55.5t53.5 -22.5q49 0 78 27t29 73z" />
<glyph unicode="&#xe03;" horiz-adv-x="1292" d="M1028 0h-733l31 150h143l94 432q26 123 72 197.5t125 138.5l65 53l-49 88l-147 -94h-11q-9 58 -48 93.5t-103 35.5q-54 0 -101 -32.5t-57 -68.5l2 -2q47 37 111 37q69 0 113.5 -47.5t44.5 -114.5q0 -97 -66 -157t-162 -60q-89 0 -149 58t-60 153q0 83 29 151.5t77 112 t108 67t124 23.5q63 0 116 -27.5t71 -66.5l135 78q51 26 71 -10l99 -187q28 -51 -29 -94l-53 -43q-72 -59 -106.5 -118.5t-57.5 -167.5l-92 -428h258l225 1048h166zM463 856q0 32 -20.5 55t-57.5 23q-44 0 -73 -27t-29 -67q0 -32 23 -56t59 -24q43 0 70.5 26t27.5 70z" />
<glyph unicode="&#xe04;" horiz-adv-x="1359" d="M834 651q0 35 -22.5 60.5t-61.5 25.5q-48 0 -75.5 -29t-27.5 -75q0 -31 23.5 -54.5t58.5 -23.5q47 0 76 25t29 71zM1100 0h-166l149 696q36 173 -27 273t-227 100q-165 0 -275.5 -103t-145.5 -270l-48 -221q-27 -127 -81 -272l12 -4q50 132 123 264l110 199 q51 94 107 139t139 45q75 0 126.5 -49t51.5 -127q0 -100 -64 -163t-163 -63q-53 0 -97 27t-53 64l-4 -3q-28 -91 -57 -143l-211 -389h-203l150 696q23 111 71 203t120.5 163.5t176.5 111.5t230 40q97 0 174.5 -27.5t127.5 -75.5t81 -113.5t34 -141.5t-12 -160z" />
<glyph unicode="&#xe05;" horiz-adv-x="1384" d="M836 651q0 35 -22.5 60.5t-61.5 25.5q-48 0 -75.5 -29t-27.5 -75q0 -31 23.5 -54.5t58.5 -23.5q47 0 76 25t29 71zM1122 0h-166l185 862q44 199 -80 199q-9 0 -18 -1t-19 -4t-16.5 -4.5t-18 -7t-16 -7.5t-18 -10t-16.5 -10t-19 -12t-19 -12l-80 -49h-20l-60 49 q-5 4 -18 15t-18 15t-16 12t-18 11l-17.5 7.5t-21 6t-22.5 1.5q-122 0 -166 -199l-82 -387q-27 -127 -81 -272l12 -4q50 132 123 264l110 199q51 94 107 139t139 45q75 0 126.5 -49t51.5 -127q0 -100 -64 -163t-163 -63q-53 0 -97 27t-53 64l-4 -3q-28 -91 -57 -143 l-211 -389h-203l187 866q15 72 40.5 130.5t64 107t94 75.5t124.5 27q99 0 172 -69l45 -43l64 43q101 69 205 69q88 0 145 -48t71.5 -126t-3.5 -178z" />
<glyph unicode="&#xe06;" horiz-adv-x="1486" d="M492 203l40 186q-180 -44 -180 -196q0 -38 15.5 -58t42.5 -20q65 0 82 88zM1223 0h-185q-22 137 -111.5 247t-232.5 142l-43 -194q-24 -106 -91.5 -158.5t-164.5 -52.5q-90 0 -147.5 55.5t-57.5 144.5q0 140 104 232.5t263 115.5l18 86q25 108 67.5 171.5t121.5 128.5 l65 53l-49 88l-147 -94h-10q-9 58 -48.5 93.5t-103.5 35.5q-54 0 -101 -32.5t-57 -68.5l2 -2q47 37 111 37q69 0 113.5 -47.5t44.5 -114.5q0 -97 -66 -157t-162 -60q-89 0 -149 58t-60 153q0 83 29 151.5t77 112t108 67t124 23.5q63 0 116 -27.5t71 -66.5l135 78 q52 27 72 -10l98 -187q28 -51 -29 -94l-53 -43q-75 -61 -104.5 -106.5t-49.5 -139.5l-18 -86q123 -20 220.5 -96t150.5 -170h16l201 932h168zM467 856q0 32 -20.5 55t-57.5 23q-44 0 -73 -27t-29 -67q0 -32 23 -56t59 -24q43 0 70.5 26t27.5 70z" />
<glyph unicode="&#xe07;" horiz-adv-x="991" d="M729 0h-166l-491 641l121 104l282 -366q90 -115 127 -211l12 4q-5 48 33 223l72 332q10 48 49 104l-6 5q-36 -29 -96 -29q-70 0 -121 53t-51 127q0 98 68.5 162.5t174.5 64.5q113 0 169 -67.5t36 -159.5zM809 1022q0 32 -23 54t-57 22q-44 0 -74 -26.5t-30 -70.5 q0 -32 23.5 -54.5t58.5 -22.5q47 0 74.5 26.5t27.5 71.5z" />
<glyph unicode="&#xe08;" horiz-adv-x="1218" d="M674 639q0 34 -23.5 58t-58.5 24q-47 0 -76 -26.5t-29 -71.5q0 -32 24 -56t58 -24q48 0 76.5 25.5t28.5 70.5zM961 0h-203l-58 377q-8 56 9 133l-7 2q-51 -80 -155 -80q-73 0 -123.5 48.5t-50.5 123.5q0 104 66.5 167t164.5 63q173 0 205 -209l27 -164q19 -120 8 -266 l14 4q15 154 41 276l49 221q37 170 -25.5 271.5t-234.5 101.5q-162 0 -266 -84t-137 -233l-11 -47h-165l10 47q45 210 195.5 336t390.5 126q101 0 180 -27t128 -74.5t79 -113t31.5 -142t-13.5 -161.5z" />
<glyph unicode="&#xe09;" horiz-adv-x="1261" d="M758 209l-6 2q-20 -25 -33.5 -40.5t-35 -34.5t-44.5 -34l-166 -102h-145l96 440q-51 17 -81 62.5t-30 101.5q0 98 71.5 164t178.5 66q90 0 144.5 -51.5t54.5 -125.5q0 -72 -49 -130.5t-123 -80.5l-60 -266l258 164q68 44 134 55l69 330q33 155 -40 247.5t-244 92.5 q-166 0 -278 -86.5t-142 -228.5l-11 -49h-165l10 49q20 98 68.5 181t122.5 145.5t179.5 98t231.5 35.5q166 0 275 -65.5t147.5 -174t9.5 -245.5l-72 -334q46 -19 75.5 -63t29.5 -111q0 -110 -72.5 -173.5t-181.5 -63.5q-91 0 -142 46t-51 113q0 32 17 66zM944 96 q51 0 81 30.5t30 82.5q0 34 -25 58t-61 24q-52 0 -81.5 -29t-29.5 -80q0 -36 25 -61t61 -25zM633 641q0 34 -24 58t-62 24q-46 0 -76.5 -27t-30.5 -73q0 -33 23.5 -57.5t60.5 -24.5q48 0 78.5 27t30.5 73z" />
<glyph unicode="&#xe0a;" horiz-adv-x="1236" d="M838 150l123 573q10 59 2 83t-37 46l-52 39l-75 -62q-48 -39 -69.5 -83t-37.5 -115l-104 -481h250zM971 0h-729l30 150h150l104 481q20 93 61.5 163t127.5 138l57 45q-117 113 -235 113q-67 0 -105 -15v-4q67 -3 109.5 -47.5t42.5 -116.5q0 -91 -67.5 -151t-162.5 -60 q-90 0 -147 51t-57 146q0 130 122 225.5t281 95.5q116 0 193 -30t157 -99l260 203l88 -104l-237 -189l55 -47q50 -39 63 -93.5t-6 -135.5zM463 905q0 34 -21.5 57t-58.5 23q-45 0 -73.5 -27.5t-28.5 -74.5q0 -33 21.5 -55.5t53.5 -22.5q49 0 78 27t29 73z" />
<glyph unicode="&#xe0b;" horiz-adv-x="1251" d="M852 150l121 567q10 49 0.5 78t-35.5 59l-31 35l-82 -68q-51 -42 -76.5 -84.5t-39.5 -105.5l-105 -481h248zM985 0h-729l31 150h151l105 481q20 93 61.5 161t128.5 136l84 65l-49 60l-139 -88h-11q-9 58 -48 93.5t-103 35.5q-54 0 -101 -32.5t-57 -68.5l2 -2 q47 37 111 37q69 0 113.5 -47.5t44.5 -114.5q0 -97 -66 -157t-162 -60q-89 0 -149 58t-60 153q0 83 29 151.5t77 112t108 67t124 23.5q63 0 116 -27.5t71 -66.5l133 80q44 25 73 -4l72 -88l223 180l91 -108l-224 -179l45 -49q26 -29 40 -50t22.5 -48.5t7 -60t-11.5 -76.5z M463 856q0 32 -20.5 55t-57.5 23q-44 0 -73 -27t-29 -67q0 -32 23 -56t59 -24q43 0 70.5 26t27.5 70z" />
<glyph unicode="&#xe0c;" horiz-adv-x="1886" d="M457 209q0 33 -23 54.5t-59 21.5q-48 0 -75.5 -28t-27.5 -73q0 -32 22.5 -52.5t55.5 -20.5q47 0 77 24.5t30 73.5zM1622 0h-188q-21 131 -112 226t-237 128l-36 -174q-21 -99 -83.5 -147.5t-150.5 -48.5q-87 0 -136.5 54.5t-49.5 135.5q0 133 96 218t223 95l62 281 q31 142 -33.5 221.5t-224.5 79.5q-108 0 -199 -37.5t-145 -89.5l-5 -16q58 -9 124.5 -38t103.5 -59l-17 -73q-93 -9 -159.5 -75t-89.5 -177l-5 -25q-8 -49 -47 -112l4 -5q32 29 95 29q75 0 124.5 -48.5t49.5 -129.5q0 -98 -70 -159.5t-178 -61.5q-102 0 -160.5 63t-38.5 160 l60 289q22 107 89 184.5t150 108.5q-42 23 -108 36t-131 13l20 94q72 110 223 192t322 82q232 0 342.5 -123.5t67.5 -322.5l-60 -281q125 -21 227 -90.5t154 -158.5h10l209 960h166zM891 197l35 165q-160 -27 -160 -176q0 -37 14 -57t37 -20q55 0 74 88z" />
<glyph unicode="&#xe0d;" horiz-adv-x="1880" d="M457 209q0 33 -23 54.5t-59 21.5q-48 0 -75.5 -28t-27.5 -73q0 -32 22.5 -52.5t55.5 -20.5q47 0 77 24.5t30 73.5zM1616 0h-805l166 768q66 301 -242 301q-196 0 -327 -127l-5 -16q58 -9 124.5 -38t103.5 -59l-17 -73q-93 -9 -159.5 -75t-89.5 -177l-5 -25 q-8 -49 -47 -112l4 -5q32 29 95 29q75 0 124.5 -48.5t49.5 -129.5q0 -98 -70 -159.5t-178 -61.5q-102 0 -160.5 63t-38.5 160l60 289q22 107 89 184.5t150 108.5q-42 23 -108 36t-131 13l20 94q73 112 216 193t313 81q230 0 332.5 -122.5t60.5 -323.5l-131 -623h471 l227 1053h166zM1593 -104l-14 -68q-39 -185 -174 -289t-322 -104q-161 0 -259.5 73t-98.5 183q0 97 63.5 158t161.5 61q84 0 134.5 -46.5t50.5 -113.5q0 -66 -43 -108t-103 -58v-4q38 -10 90 -10q136 0 225 66.5t115 191.5l15 68h159zM1016 -262q0 29 -21 49t-57 20 q-42 0 -67 -24t-25 -66q0 -29 20 -48t52 -19q42 0 70 23.5t28 64.5z" />
<glyph unicode="&#xe0e;" horiz-adv-x="1361" d="M297 -360q0 37 -26 63.5t-64 26.5q-54 0 -86.5 -31.5t-32.5 -83.5q0 -36 25.5 -63t64.5 -27q53 0 86 31.5t33 83.5zM1034 -303l-332 -297h-20l-170 123q-78 57 -88 102h-8q-19 -91 -84.5 -152t-169.5 -61q-96 0 -151.5 55.5t-55.5 135.5q0 104 72.5 173.5t189.5 69.5 q30 0 57 -8t37 -18l8 6q-14 28 -4 78l4 18h162l-35 -153l244 -181l193 170l217 1010q31 143 -32.5 222t-223.5 79q-108 0 -198 -37.5t-144 -89.5l-4 -16q58 -9 124 -38t103 -59l-16 -73q-79 -9 -119.5 -59t-67.5 -152l-73 -350q-45 -203 -250 -203q-90 0 -146.5 51 t-56.5 131q0 101 67 163t158 62q82 0 113 -39l8 5q-13 47 0 114l14 64q47 198 176 254q-42 23 -108 36t-131 13l20 94q72 110 222 192t321 82q232 0 341 -123.5t67 -322.5zM311 209q0 34 -24 55t-60 21q-47 0 -73.5 -26.5t-26.5 -72.5q0 -33 23 -54t57 -21q46 0 75 25t29 73 z" />
<glyph unicode="&#xe0f;" horiz-adv-x="1359" d="M176 -479q51 0 82 32t31 85q0 36 -26 62t-62 26q-51 0 -82 -31.5t-31 -83.5q0 -40 25 -65t63 -25zM1016 -391l-240 -209h-20l-103 123l-151 -123h-23l-43 57q-47 62 -37 109h-8q-25 -67 -83 -113.5t-148 -46.5q-88 0 -147.5 53.5t-59.5 143.5q0 100 72.5 168.5 t179.5 68.5q63 0 92 -22l4 2q-4 38 6 74l4 14h152l-43 -193l100 -149l135 110h19l88 -106l98 88l240 1110q31 143 -32.5 222t-223.5 79q-108 0 -198 -37.5t-144 -89.5l-4 -16q58 -9 124 -38t103 -59l-16 -73q-79 -9 -119.5 -59t-67.5 -152l-73 -350q-45 -203 -250 -203 q-90 0 -146.5 51t-56.5 131q0 101 67 163t158 62q82 0 113 -39l8 5q-13 47 0 114l14 64q47 198 176 254q-42 23 -108 36t-131 13l20 94q72 110 222 192t321 82q232 0 341.5 -123.5t66.5 -322.5zM311 209q0 34 -24 55t-60 21q-47 0 -73.5 -26.5t-26.5 -72.5q0 -33 23 -54 t57 -21q46 0 75 25t29 73z" />
<glyph unicode="&#xe10;" horiz-adv-x="1114" d="M797 -248q0 33 -20.5 52.5t-53.5 19.5q-36 0 -61 -22.5t-25 -59.5q0 -27 20.5 -48.5t51.5 -21.5q38 0 63 21.5t25 58.5zM504 532q0 32 -24 56t-58 24q-45 0 -74 -26.5t-29 -71.5q0 -32 24.5 -55t59.5 -23q47 0 74 25t27 71zM748 0h-191l-37 254q-4 49 -1 71t16 66h-9 q-55 -67 -145 -67q-74 0 -126 51t-52 123q0 102 67 161.5t164 59.5q90 0 143.5 -53.5t59.5 -139.5l18 -223q6 -93 -6 -184h13q6 31 16 61.5t30 82t25 65.5l90 256q19 54 18 93t-28.5 64.5t-88 37.5t-161.5 12q-104 0 -209.5 -16.5t-167.5 -39.5h-20l24 115q11 52 27.5 98 t48.5 97t73.5 86.5t106.5 59t144 23.5q68 0 184 -35.5t172 -35.5q105 0 133 125q53 -18 144 -43q-25 -103 -98.5 -165.5t-170.5 -62.5q-67 0 -180 38t-196 38q-85 0 -146.5 -44.5t-73.5 -106.5l-6 -29q152 31 275 31q56 0 106 -7t100 -22.5t86 -43.5t58 -66.5t20.5 -95.5 t-28.5 -126zM199 -500q0 36 -26 62t-62 26q-54 0 -84.5 -30.5t-30.5 -83.5q0 -35 25.5 -61.5t62.5 -26.5q51 0 83 31t32 83zM649 -735h-20l-84 125l-133 -125h-21l-41 55q-51 68 -39 131h-8q-68 -176 -244 -176q-81 0 -136.5 51.5t-55.5 130.5q0 106 68.5 174t170.5 68 q60 0 107 -31l8 4q-15 23 -6 84l4 17h154l-43 -195l100 -149l119 110h12l70 -110l86 88l6 24q7 27 22 51l-4 5q-11 -10 -16 -13.5t-19 -7.5t-34 -4q-59 0 -105.5 46.5t-46.5 113.5q0 86 62.5 139t152.5 53q91 0 141 -58.5t29 -152.5l-51 -243z" />
<glyph unicode="&#xe11;" horiz-adv-x="1554" d="M1290 0h-164l195 907q30 146 -86 146h-21l-561 -1053h-215l137 641q18 83 47 138t76 102l95 92l-48 88l-116 -96h-11q-9 58 -48 93.5t-103 35.5q-54 0 -101 -32.5t-57 -68.5l2 -2q47 37 111 37q69 0 113.5 -47.5t44.5 -114.5q0 -97 -66 -157t-162 -60q-89 0 -149 58 t-60 153q0 83 29 151.5t77 112t108 67t124 23.5q63 0 116 -27.5t71 -66.5l90 72q20 16 42 17.5t34 -17.5l102 -191q21 -44 -29 -94l-53 -53q-49 -47 -72 -88t-41 -125l-28 -139q-21 -101 -95 -324h17q60 194 125 318l373 704h112q150 0 210.5 -80t27.5 -229zM463 856 q0 32 -20.5 55t-57.5 23q-44 0 -73 -27t-29 -67q0 -32 23 -56t59 -24q43 0 70.5 26t27.5 70z" />
<glyph unicode="&#xe12;" horiz-adv-x="1998" d="M1735 0h-183q-19 130 -112.5 225.5t-241.5 128.5l-37 -172q-21 -96 -83 -147t-148 -51q-89 0 -139 52.5t-50 141.5q0 90 48 160t119 106.5t151 42.5l82 375q44 199 -80 199q-9 0 -18 -1t-19 -4t-16.5 -4.5t-18 -7t-16 -7.5t-18 -10t-16.5 -10t-19 -12t-19 -12l-80 -49 h-20l-60 49q-5 4 -18 15t-18 15t-16 12t-18 11l-17.5 7.5t-21 6t-22.5 1.5q-122 0 -166 -199l-92 -426q-47 -221 -82 -291l9 -4q62 78 108 117l154 125q51 44 110 63l2 5q-55 8 -99 53.5t-44 113.5q0 95 66.5 162.5t173.5 67.5q87 0 142.5 -50.5t55.5 -129.5 q0 -71 -33.5 -118t-107.5 -108l-537 -442h-172l187 866q15 72 40.5 130.5t64 107t94 75.5t124.5 27q99 0 172 -69l45 -43l64 43q101 69 205 69q133 0 189.5 -100.5t23.5 -251.5l-82 -367q130 -21 234 -90.5t151 -160.5h10l205 962h166zM1004 197l34 165q-159 -28 -159 -176 q0 -37 14 -57t37 -20q55 0 74 88zM821 651q0 35 -23.5 58.5t-60.5 23.5q-46 0 -74 -27t-28 -73q0 -31 24.5 -54.5t57.5 -23.5q48 0 76 25.5t28 70.5z" />
<glyph unicode="&#xe13;" horiz-adv-x="1869" d="M457 215q0 33 -20 51.5t-56 18.5q-49 0 -79 -29.5t-30 -77.5q0 -32 19.5 -49.5t52.5 -17.5q47 0 80 27.5t33 76.5zM1550 489l154 709h166l-164 -760q90 -46 90 -164q0 -131 -87 -210.5t-210 -79.5q-90 0 -144.5 49t-54.5 133q0 59 29.5 108t71.5 74l-2 8 q-106 -17 -228.5 -125.5t-189.5 -230.5h-170l166 772q31 143 -28.5 220t-213.5 77q-101 0 -186.5 -37t-142.5 -90l-5 -16q59 -9 125 -37.5t105 -59.5l-17 -73q-96 -9 -163.5 -75.5t-85.5 -176.5l-5 -25q-9 -56 -41 -108l5 -4q40 32 102 32q66 0 113 -46.5t47 -119.5 q0 -98 -79.5 -169.5t-189.5 -71.5q-104 0 -152.5 60.5t-27.5 154.5l62 297q22 107 88 181.5t151 105.5q-42 23 -108 36t-131 13l20 100q83 112 231 193t318 81q226 0 323 -117t52 -325l-113 -518h6q85 107 209 174.5t246 67.5q24 0 59 -7zM1667 242q0 43 -24.5 68.5 t-67.5 25.5q-62 0 -102.5 -41t-40.5 -105q0 -41 24.5 -65.5t67.5 -24.5q61 0 102 39.5t41 102.5z" />
<glyph unicode="&#xe14;" horiz-adv-x="1359" d="M821 651q0 35 -23.5 58.5t-60.5 23.5q-46 0 -74 -27t-28 -73q0 -31 24.5 -54.5t57.5 -23.5q48 0 76 25.5t28 70.5zM1100 0h-166l149 696q36 173 -27 273t-227 100q-165 0 -274.5 -102.5t-146.5 -270.5l-58 -260q-5 -20 -14.5 -63t-13.5 -60t-11.5 -48t-13 -48t-12.5 -37 t-15 -35l9 -4q62 78 108 117l154 125q51 44 110 63l2 5q-55 8 -99 53.5t-44 113.5q0 95 66.5 162.5t173.5 67.5q87 0 142.5 -50.5t55.5 -129.5q0 -71 -33.5 -118t-107.5 -108l-537 -442h-174l150 696q23 111 71 203t120.5 163.5t176.5 111.5t230 40q97 0 174.5 -27.5 t127.5 -75.5t81 -113.5t34 -141.5t-12 -160z" />
<glyph unicode="&#xe15;" horiz-adv-x="1384" d="M821 651q0 35 -23.5 58.5t-60.5 23.5q-46 0 -74 -27t-28 -73q0 -31 24.5 -54.5t57.5 -23.5q48 0 76 25.5t28 70.5zM1122 0h-166l185 862q44 199 -80 199q-9 0 -18 -1t-19 -4t-16.5 -4.5t-18 -7t-16 -7.5t-18 -10t-16.5 -10t-19 -12t-19 -12l-80 -49h-20l-60 49 q-5 4 -18 15t-18 15t-16 12t-18 11l-17.5 7.5t-21 6t-22.5 1.5q-122 0 -166 -199l-92 -426q-47 -221 -82 -291l9 -4q62 78 108 117l154 125q51 44 110 63l2 5q-55 8 -99 53.5t-44 113.5q0 95 66.5 162.5t173.5 67.5q87 0 142.5 -50.5t55.5 -129.5q0 -71 -33.5 -118 t-107.5 -108l-537 -442h-172l187 866q15 72 40.5 130.5t64 107t94 75.5t124.5 27q99 0 172 -69l45 -43l64 43q101 69 205 69q88 0 145 -48t71.5 -126t-3.5 -178z" />
<glyph unicode="&#xe16;" horiz-adv-x="1269" d="M457 209q0 33 -23 54.5t-59 21.5q-48 0 -75.5 -28t-27.5 -73q0 -32 22.5 -52.5t55.5 -20.5q47 0 77 24.5t30 73.5zM1010 0h-166l166 768q31 142 -33.5 221.5t-224.5 79.5q-108 0 -199 -37.5t-145 -89.5l-5 -16q58 -9 124.5 -38t103.5 -59l-17 -73q-93 -9 -159.5 -75 t-89.5 -177l-5 -25q-8 -49 -47 -112l4 -5q32 29 95 29q75 0 124.5 -48.5t49.5 -129.5q0 -98 -70 -159.5t-178 -61.5q-102 0 -160.5 63t-38.5 160l60 289q22 107 89 184.5t150 108.5q-42 23 -108 36t-131 13l20 94q72 110 223 192t322 82q232 0 342.5 -123.5t67.5 -322.5z " />
<glyph unicode="&#xe17;" horiz-adv-x="1355" d="M1092 0h-164l194 907q30 146 -86 146h-20l-561 -1053h-215l155 727q10 48 49 104l-6 5q-36 -29 -96 -29q-70 0 -121 53t-51 127q0 98 69 162.5t175 64.5q112 0 167 -67.5t35 -159.5l-102 -485q-22 -109 -94 -324h16q60 194 125 318l373 704h113q149 0 209.5 -80 t27.5 -229zM485 1022q0 32 -22.5 54t-56.5 22q-44 0 -74.5 -26.5t-30.5 -70.5q0 -32 23.5 -54.5t58.5 -22.5q47 0 74.5 26.5t27.5 71.5z" />
<glyph unicode="&#xe18;" horiz-adv-x="1153" d="M764 145l76 357q19 86 -18 136t-128 50h-202l-117 -543h389zM895 0h-848l31 145h135l115 539h-178l36 174q11 52 39 102t75 96.5t107.5 81t143.5 55.5t178 21q225 0 342.5 -92.5t87.5 -224.5l-6 -27h-166l6 25q19 72 -53.5 123t-226.5 51q-158 0 -251 -60.5t-108 -144.5 l-6 -35h354q79 0 138.5 -18t93.5 -49t54.5 -72.5t21 -89t-8.5 -98.5z" />
<glyph unicode="&#xe19;" horiz-adv-x="1327" d="M993 100q59 0 95 35t36 98q0 44 -28 73.5t-74 29.5q-60 0 -95.5 -37t-35.5 -100q0 -42 28 -70.5t74 -28.5zM1008 487l151 711h166l-162 -766q97 -55 97 -180q0 -129 -78 -198.5t-197 -69.5q-101 0 -163 54.5t-62 139.5q0 60 26.5 105.5t67.5 70.5l-2 8 q-123 -13 -246.5 -121.5t-197.5 -240.5h-168l155 727q10 48 49 104l-6 5q-36 -29 -96 -29q-70 0 -121 53t-51 127q0 98 69 162.5t175 64.5q112 0 167 -67.5t35 -159.5l-153 -706h20q79 96 205 155.5t248 59.5q42 0 72 -9zM485 1022q0 32 -22.5 54t-56.5 22 q-44 0 -74.5 -26.5t-30.5 -70.5q0 -32 23.5 -54.5t58.5 -22.5q47 0 74.5 26.5t27.5 71.5z" />
<glyph unicode="&#xe1a;" horiz-adv-x="1314" d="M1051 0h-961l33 145h147l125 582q10 48 49 104l-6 5q-36 -29 -96 -29q-70 0 -121 53t-51 127q0 98 69 162.5t175 64.5q113 0 168.5 -67.5t35.5 -159.5l-180 -842h480l225 1053h166zM485 1022q0 32 -22.5 54t-56.5 22q-44 0 -74.5 -26.5t-30.5 -70.5q0 -32 23.5 -54.5 t58.5 -22.5q47 0 74.5 26.5t27.5 71.5z" />
<glyph unicode="&#xe1b;" horiz-adv-x="1314" d="M1051 0h-961l33 145h147l125 582q10 48 49 104l-6 5q-36 -29 -96 -29q-70 0 -121 53t-51 127q0 98 69 162.5t175 64.5q113 0 168.5 -67.5t35.5 -159.5l-180 -842h480l362 1694h166zM485 1022q0 32 -22.5 54t-56.5 22q-44 0 -74.5 -26.5t-30.5 -70.5q0 -32 23.5 -54.5 t58.5 -22.5q47 0 74.5 26.5t27.5 71.5z" />
<glyph unicode="&#xe1c;" horiz-adv-x="1355" d="M1092 0h-134l-241 485l-451 -485h-166l213 989q22 98 89.5 161.5t172.5 63.5q85 0 140 -50.5t55 -129.5q0 -102 -72 -164.5t-163 -62.5q-75 0 -101 33l-6 -4q8 -38 -6 -109l-103 -475l359 385h113l190 -381l203 942h166zM639 1020q0 34 -23.5 56t-58.5 22 q-45 0 -73.5 -26.5t-28.5 -72.5q0 -32 22 -53.5t58 -21.5q50 0 77 24.5t27 71.5z" />
<glyph unicode="&#xe1d;" horiz-adv-x="1355" d="M1092 0h-134l-241 485l-451 -485h-166l213 989q22 98 89.5 161.5t172.5 63.5q85 0 140 -50.5t55 -129.5q0 -102 -72 -164.5t-163 -62.5q-75 0 -101 33l-6 -4q8 -38 -6 -109l-103 -475l359 385h113l190 -381l340 1583h166zM639 1020q0 34 -23.5 56t-58.5 22 q-45 0 -73.5 -26.5t-28.5 -72.5q0 -32 22 -53.5t58 -21.5q50 0 77 24.5t27 71.5z" />
<glyph unicode="&#xe1e;" horiz-adv-x="1478" d="M1214 0h-161l-119 936l-512 -936h-182l155 727q10 48 49 104l-6 5q-36 -29 -96 -29q-70 0 -121 53t-51 127q0 98 69 162.5t175 64.5q114 0 167 -65t29 -162l-80 -375q-24 -114 -122 -379l14 -2q68 176 180 377l311 559h121l76 -559q24 -175 20 -377l15 2q8 223 41 379 l125 586h159zM485 1022q0 32 -22.5 54t-56.5 22q-44 0 -74.5 -26.5t-30.5 -70.5q0 -32 23.5 -54.5t58.5 -22.5q47 0 74.5 26.5t27.5 71.5z" />
<glyph unicode="&#xe1f;" horiz-adv-x="1478" d="M1214 0h-161l-119 936l-512 -936h-182l155 727q10 48 49 104l-6 5q-36 -29 -96 -29q-70 0 -121 53t-51 127q0 98 69 162.5t175 64.5q114 0 167 -65t29 -162l-80 -375q-24 -114 -122 -379l14 -2q68 176 180 377l311 559h121l76 -559q24 -175 20 -377l15 2q8 223 41 379 l262 1225h160zM485 1022q0 32 -22.5 54t-56.5 22q-44 0 -74.5 -26.5t-30.5 -70.5q0 -32 23.5 -54.5t58.5 -22.5q47 0 74.5 26.5t27.5 71.5z" />
<glyph unicode="&#xe20;" horiz-adv-x="1359" d="M1100 0h-166l166 768q31 143 -32.5 222t-223.5 79q-108 0 -198 -37.5t-144 -89.5l-4 -16q58 -9 124 -38t103 -59l-16 -73q-79 -9 -119.5 -59t-67.5 -152l-73 -350q-45 -203 -250 -203q-90 0 -146.5 51t-56.5 131q0 101 67 163t158 62q82 0 113 -39l8 5q-13 47 0 114 l14 64q47 198 176 254q-42 23 -108 36t-131 13l20 94q72 110 222 192t321 82q232 0 341.5 -123.5t66.5 -322.5zM311 209q0 34 -24 55t-60 21q-47 0 -73.5 -26.5t-26.5 -72.5q0 -33 23 -54t57 -21q46 0 75 25t29 73z" />
<glyph unicode="&#xe21;" horiz-adv-x="1341" d="M348 203l41 186q-184 -44 -184 -192q0 -38 16 -60t43 -22q67 0 84 88zM1077 0h-184q-22 137 -111.5 247t-232.5 142l-45 -199q-22 -99 -86.5 -152.5t-159.5 -53.5q-92 0 -152.5 57t-60.5 147q0 139 104.5 230t262.5 114l43 195q10 48 49 104l-6 5q-36 -29 -97 -29 q-70 0 -121 53t-51 127q0 98 69 162.5t175 64.5q113 0 169 -67.5t36 -159.5l-98 -455q126 -28 224 -103.5t144 -170.5h17l202 940h168zM545 1022q0 32 -23 54t-57 22q-44 0 -74.5 -26.5t-30.5 -70.5q0 -32 23.5 -54.5t58.5 -22.5q47 0 75 27t28 71z" />
<glyph unicode="&#xe22;" horiz-adv-x="1232" d="M969 0h-879l76 352q20 91 71.5 153t120.5 83v4q-79 25 -127.5 85.5t-48.5 156.5q0 162 106.5 270t280.5 108q94 0 153.5 -50.5t59.5 -133.5q0 -102 -70 -164.5t-173 -62.5q-91 0 -139 60t-27 130l-6 2q-14 -12 -26.5 -55.5t-12.5 -77.5q0 -84 58.5 -142.5t162.5 -58.5 h135l-29 -141h-135q-65 0 -119 -46.5t-69 -119.5l-43 -207h547l225 1053h166zM657 1010q0 36 -24 61t-62 25q-46 0 -75 -28t-29 -73q0 -33 25.5 -58.5t62.5 -25.5q45 0 73.5 27t28.5 72z" />
<glyph unicode="&#xe23;" horiz-adv-x="1019" d="M561 360l8 5q-11 39 4 114l29 139q16 74 -55 74h-408l35 164q31 148 167 253t341 105q100 0 180 -27t127.5 -72.5t66.5 -104t5 -121.5l-4 -19h-166l4 21q16 74 -43 126t-184 52q-133 0 -217.5 -58t-110.5 -155l-6 -22h244q115 0 164 -56t26 -160l-92 -423 q-45 -203 -250 -203q-90 0 -146.5 51t-56.5 131q0 101 67.5 163t158.5 62q81 0 112 -39zM539 209q0 34 -24 55t-60 21q-47 0 -74 -26.5t-27 -72.5q0 -33 23 -54t57 -21q46 0 75.5 25t29.5 73z" />
<glyph unicode="&#xe24;" horiz-adv-x="1269" d="M457 209q0 33 -23 54.5t-59 21.5q-48 0 -75.5 -28t-27.5 -73q0 -32 22.5 -52.5t55.5 -20.5q47 0 77 24.5t30 73.5zM885 -578h-166l291 1346q31 142 -33.5 221.5t-224.5 79.5q-108 0 -199 -37.5t-145 -89.5l-5 -16q58 -9 124.5 -38t103.5 -59l-17 -73q-93 -9 -159.5 -75 t-89.5 -177l-5 -25q-8 -49 -47 -112l4 -5q32 29 95 29q75 0 124.5 -48.5t49.5 -129.5q0 -98 -70 -159.5t-178 -61.5q-102 0 -160.5 63t-38.5 160l60 289q22 107 89 184.5t150 108.5q-42 23 -108 36t-131 13l20 94q72 110 223 192t322 82q232 0 342.5 -123.5t67.5 -322.5z " />
<glyph unicode="&#xe25;" horiz-adv-x="1261" d="M999 0h-163q-7 204 -65.5 410.5t-131.5 310.5q-229 -167 -317 -356h6q30 24 82 24q74 0 118.5 -47.5t44.5 -122.5q0 -105 -72 -170t-173 -65q-94 0 -152.5 50.5t-58.5 141.5q0 117 78 254t194 252t250 201h51q88 -91 156 -282t76 -349l12 6q0 179 27 303l38 184 q30 143 -41 233.5t-235 90.5q-163 0 -272.5 -77t-143.5 -232l-12 -55h-158l13 55q47 214 195.5 334t393.5 120q231 0 347 -131.5t73 -337.5zM446 197q0 37 -24 60.5t-62 23.5q-48 0 -79 -28.5t-31 -76.5q0 -35 24.5 -59.5t61.5 -24.5q48 0 79 28.5t31 76.5z" />
<glyph unicode="&#xe26;" horiz-adv-x="1359" d="M975 -578h-166l291 1346q31 143 -32.5 222t-223.5 79q-108 0 -198 -37.5t-144 -89.5l-4 -16q58 -9 124 -38t103 -59l-16 -73q-79 -9 -119.5 -59t-67.5 -152l-73 -350q-45 -203 -250 -203q-90 0 -146.5 51t-56.5 131q0 101 67 163t158 62q82 0 113 -39l8 5q-13 47 0 114 l14 64q47 198 176 254q-42 23 -108 36t-131 13l20 94q72 110 222 192t321 82q232 0 341.5 -123.5t66.5 -322.5zM311 209q0 34 -24 55t-60 21q-47 0 -73.5 -26.5t-26.5 -72.5q0 -33 23 -54t57 -21q46 0 75 25t29 73z" />
<glyph unicode="&#xe27;" horiz-adv-x="1081" d="M745 360l9 5q-11 39 4 114l67 320q25 119 -26.5 192.5t-184.5 73.5q-123 0 -212 -72t-115 -190l-17 -72h-159l16 72q41 182 176.5 296.5t327.5 114.5q197 0 298 -119t62 -296l-131 -604q-45 -203 -250 -203q-90 0 -146 51t-56 131q0 101 67 163t158 62q81 0 112 -39z M723 209q0 34 -24 55t-60 21q-47 0 -73.5 -26.5t-26.5 -72.5q0 -33 22.5 -54t56.5 -21q46 0 75.5 25t29.5 73z" />
<glyph unicode="&#xe28;" horiz-adv-x="1368" d="M889 807l-131 35q274 250 461 520l102 -55q-146 -225 -432 -500zM834 651q0 35 -22.5 60.5t-61.5 25.5q-48 0 -75.5 -29t-27.5 -75q0 -31 23.5 -54.5t58.5 -23.5q47 0 76 25t29 71zM1108 0h-166l150 696q36 172 -28.5 272.5t-229.5 100.5q-166 0 -278.5 -103t-147.5 -270 l-48 -221q-27 -127 -81 -272l12 -4q50 132 123 264l110 199q51 94 107 139t139 45q75 0 126.5 -49t51.5 -127q0 -100 -64 -163t-163 -63q-53 0 -97 27t-53 64l-4 -3q-28 -91 -57 -143l-211 -389h-203l150 696q23 111 71.5 203.5t122 163.5t178 111t230.5 40q97 0 175 -27.5 t128.5 -75.5t82 -113.5t35 -141.5t-11.5 -160z" />
<glyph unicode="&#xe29;" horiz-adv-x="1409" d="M1071 0h-981l33 145h147l125 582q10 48 49 104l-6 5q-36 -29 -96 -29q-70 0 -121 53t-51 127q0 98 69 162.5t175 64.5q113 0 168.5 -67.5t35.5 -159.5l-180 -842h500l68 320q-20 -2 -60 -2q-137 0 -235.5 73t-98.5 179q0 98 61 160.5t158 62.5q78 0 128.5 -45t50.5 -111 q0 -67 -43.5 -111.5t-100.5 -58.5l-2 -4q40 -20 99 -20q46 0 69 4l131 606h166l-115 -534q92 73 117 192l15 68h151l-14 -68q-27 -123 -107.5 -212.5t-193.5 -135.5zM485 1022q0 32 -22.5 54t-56.5 22q-44 0 -74.5 -26.5t-30.5 -70.5q0 -32 23.5 -54.5t58.5 -22.5 q47 0 74.5 26.5t27.5 71.5zM893 766q0 32 -19.5 51t-50.5 19q-43 0 -67.5 -24t-24.5 -67q0 -29 20 -48t52 -19q40 0 65 23.5t25 64.5z" />
<glyph unicode="&#xe2a;" horiz-adv-x="1269" d="M1008 0h-164q-7 202 -68.5 408.5t-136.5 312.5q-229 -167 -317 -356h6q30 24 82 24q74 0 118.5 -47.5t44.5 -122.5q0 -105 -72 -170t-173 -65q-94 0 -152.5 50.5t-58.5 141.5q0 89 45 188.5t121 192t166.5 175t189.5 151.5q105 73 197 172q-54 14 -109 14 q-163 0 -274.5 -77t-145.5 -232l-12 -55h-158l13 55q47 213 197.5 333.5t395.5 120.5q121 0 205 -34q97 104 150 182l102 -55q-59 -91 -149 -187q79 -62 109.5 -159t6.5 -216zM930 252l12 6q0 179 27 303l39 184q17 82 -1 149.5t-69 111.5q-19 -18 -199 -187 q74 -108 128.5 -271.5t62.5 -295.5zM446 197q0 37 -24 60.5t-62 23.5q-48 0 -79 -28.5t-31 -76.5q0 -35 24.5 -59.5t61.5 -24.5q48 0 79 28.5t31 76.5z" />
<glyph unicode="&#xe2b;" horiz-adv-x="1355" d="M1051 858q131 99 131 168q0 34 -24.5 56t-63.5 22q-50 0 -81.5 -33.5t-31.5 -77.5q0 -37 19 -73.5t51 -61.5zM1090 0h-164l123 578q16 80 -25 108l-633 -686h-155l155 727q10 48 49 104l-6 5q-36 -29 -96 -29q-70 0 -121 53t-51 127q0 98 69 162.5t175 64.5 q112 0 167 -67.5t35 -159.5l-120 -567q-23 -117 -66 -215h8q64 109 131 180l375 397q-90 98 -90 185q0 110 69.5 180t194.5 70q96 0 148.5 -47t52.5 -123q0 -120 -162 -256q43 -32 60.5 -79.5t0.5 -129.5zM481 1022q0 32 -23 54t-57 22q-44 0 -74 -26.5t-30 -70.5 q0 -32 23.5 -54.5t58.5 -22.5q47 0 74.5 26.5t27.5 71.5z" />
<glyph unicode="&#xe2c;" horiz-adv-x="1478" d="M1376 1421q6 53 -40 93t-128 40q-62 0 -106.5 -24t-44.5 -62q0 -33 40 -53t107 -20q88 0 172 26zM1214 0h-161l-119 936l-512 -936h-182l155 727q10 48 49 104l-6 5q-36 -29 -96 -29q-70 0 -121 53t-51 127q0 98 69 162.5t175 64.5q113 0 165 -65t31 -162l-80 -375 q-24 -114 -122 -379l14 -2q68 176 180 377l311 559h121l76 -559q24 -175 20 -377l15 2q8 223 41 379l143 678q-90 -20 -143 -20q-124 0 -205.5 52.5t-81.5 143.5q0 89 84 148t229 59q119 0 198 -52.5t93 -127.5q119 80 185 188l110 -73q-76 -96 -145 -158.5t-150 -101.5z M485 1022q0 32 -22.5 54t-56.5 22q-44 0 -74.5 -26.5t-30.5 -70.5q0 -32 23.5 -54.5t58.5 -22.5q47 0 74.5 26.5t27.5 71.5z" />
<glyph unicode="&#xe2d;" horiz-adv-x="1267" d="M1008 0h-818l134 627q21 95 88 151t170 56q84 0 139 -53.5t55 -127.5q0 -101 -66.5 -162t-156.5 -61q-82 0 -115 41l-6 -4q11 -52 -2 -117l-45 -205h487l134 613q32 144 -41.5 227.5t-251.5 83.5q-156 0 -272 -77t-142 -195l-14 -66h-164l14 66q39 178 198 297.5 t396 119.5q86 0 158.5 -17t124 -48t90 -73.5t56 -93t23 -107t-9.5 -115.5zM647 639q0 35 -22.5 56.5t-61.5 21.5q-46 0 -74 -25t-28 -74q0 -32 22.5 -53.5t59.5 -21.5q50 0 77 24.5t27 71.5z" />
<glyph unicode="&#xe2e;" horiz-adv-x="1200" d="M936 0h-819l114 532q21 95 88 151t170 56q84 0 139.5 -53t55.5 -127q0 -101 -66.5 -162t-156.5 -61q-82 0 -115 41l-6 -4q11 -52 -2 -117l-23 -111h488l133 629q18 76 10 129q-86 -44 -161 -65t-171 -21q-174 0 -272 54t-98 143q0 93 108.5 155t309.5 62q118 0 222.5 -31 t155.5 -86q83 80 121 137l115 -69q-69 -92 -172 -178q26 -95 -2 -228zM920 1024q-34 37 -106.5 57.5t-162.5 20.5q-103 0 -175.5 -27.5t-72.5 -64.5q0 -28 58 -46t168 -18q68 0 149 21.5t142 56.5zM555 545q0 35 -22.5 56.5t-61.5 21.5q-46 0 -74 -25t-28 -74 q0 -32 22.5 -53.5t59.5 -21.5q50 0 77 24.5t27 71.5z" />
<glyph unicode="&#xe2f;" horiz-adv-x="1101" d="M496 1034q0 35 -22.5 55.5t-59.5 20.5q-46 0 -71.5 -24.5t-25.5 -67.5q0 -30 22.5 -50t57.5 -20q46 0 72.5 22.5t26.5 63.5zM838 0h-164l160 745q23 117 59 183l-14 4q-60 -104 -163.5 -173t-228.5 -69q-127 0 -213 81t-86 198q0 115 67.5 183.5t174.5 68.5 q81 0 131.5 -46.5t50.5 -119.5q0 -51 -21.5 -93.5t-53.5 -66t-66.5 -35t-62.5 -8.5l-2 -4q35 -21 112 -21q211 0 418 377h162z" />
<glyph unicode="&#xe30;" horiz-adv-x="1021" d="M1090 1184l-11 -54q-36 -185 -179.5 -292t-334.5 -107q-157 0 -247.5 71t-90.5 181q0 92 60.5 153.5t161.5 61.5q79 0 124 -43t45 -108q0 -75 -52 -123.5t-109 -53.5l-2 -4q40 -14 84 -14q148 0 251.5 72t133.5 206l12 54h154zM504 1030q0 26 -20.5 44t-49.5 18 q-38 0 -61 -21.5t-23 -58.5q0 -27 18.5 -44.5t47.5 -17.5q39 0 63.5 21.5t24.5 58.5zM942 496l-10 -54q-36 -185 -179.5 -292t-334.5 -107q-157 0 -247.5 71t-90.5 181q0 92 60 153.5t161 61.5q79 0 124.5 -43.5t45.5 -108.5q0 -75 -52 -123t-110 -53l-2 -4q40 -14 84 -14 q148 0 251.5 72t133.5 206l12 54h154zM356 342q0 26 -20 43.5t-49 17.5q-38 0 -61 -21t-23 -58q0 -27 18 -44.5t47 -17.5q39 0 63.5 21.5t24.5 58.5z" />
<glyph unicode="&#xe31;" d="M469 1841l-10 -53q-36 -185 -191 -292t-370 -107q-179 0 -287.5 66.5t-108.5 191.5q0 91 61.5 149.5t160.5 58.5q83 0 132.5 -43.5t49.5 -109.5q0 -116 -125 -168l-2 -4q40 -12 115 -12q156 0 265.5 69.5t139.5 200.5l12 53h158zM-215 1686q0 28 -18 45.5t-52 17.5 q-39 0 -61.5 -20t-22.5 -58q0 -27 20 -45t50 -18q39 0 61.5 20t22.5 58z" />
<glyph unicode="&#xe32;" horiz-adv-x="1069" d="M809 0h-166l170 799q27 122 -21 196t-186 74q-122 0 -209 -73.5t-114 -192.5l-17 -72h-155l16 72q41 182 173.5 296.5t322.5 114.5q197 0 296 -119t60 -296z" />
<glyph unicode="&#xe33;" horiz-adv-x="1069" d="M242 1669q0 -113 -73.5 -184.5t-188.5 -71.5q-96 0 -156 58.5t-60 142.5q0 109 77 182.5t186 73.5q96 0 155.5 -59t59.5 -142zM-10 1524q61 0 96 37t35 96q0 43 -25.5 72.5t-72.5 29.5q-63 0 -100.5 -38.5t-37.5 -96.5q0 -42 28 -71t77 -29zM809 0h-166l170 799 q27 122 -21 196t-186 74q-122 0 -209 -73.5t-114 -192.5l-17 -72h-155l16 72q41 182 173.5 296.5t322.5 114.5q197 0 296 -119t60 -296z" />
<glyph unicode="&#xe34;" d="M33 1343h-33q-219 132 -557 132q-95 0 -207.5 -11t-175.5 -26h-29q30 81 82 152.5t121.5 128.5t161 90.5t190.5 33.5q113 0 205 -40.5t149 -109t82 -159.5t11 -191zM-106 1513q-27 84 -107 144.5t-207 60.5q-119 0 -202 -42t-126 -105q114 24 232 24q269 0 410 -82z" />
<glyph unicode="&#xe35;" d="M33 1343h-33q-219 132 -557 132q-95 0 -207.5 -11t-175.5 -26h-29q30 81 82 152.5t121.5 128.5t161 90.5t190.5 33.5q135 0 240.5 -61t148.5 -162l11 4q-22 94 -4 182l18 86h147zM-106 1513q-27 84 -107 144.5t-207 60.5q-119 0 -202 -42t-126 -105q114 24 232 24 q269 0 410 -82z" />
<glyph unicode="&#xe36;" d="M33 1343h-33q-219 132 -557 132q-95 0 -207.5 -11t-175.5 -26h-29q30 81 82 152.5t121.5 128.5t161 90.5t190.5 33.5q144 0 230 -51q36 44 86 72t102 28q69 0 112.5 -45t43.5 -112q0 -61 -38.5 -113.5t-98.5 -81.5q22 -95 10 -197zM-106 1513q-27 84 -107 144.5 t-207 60.5q-119 0 -202 -42t-126 -105q114 24 232 24q269 0 410 -82zM-98 1741q57 -54 84 -111q26 13 43.5 36.5t17.5 51.5q0 29 -17.5 50.5t-45.5 21.5q-24 0 -46.5 -14.5t-35.5 -34.5z" />
<glyph unicode="&#xe37;" d="M33 1343h-33q-219 132 -557 132q-95 0 -207.5 -11t-175.5 -26h-29q30 81 82 152.5t121.5 128.5t161 90.5t190.5 33.5q46 0 96.5 -11.5t77.5 -27.5l2 2q-5 25 0 45l9 41h145l-31 -151q64 -58 90 -121l11 4q-19 85 0 182l18 86h143zM-106 1513q-27 84 -107 144.5t-207 60.5 q-119 0 -202 -42t-126 -105q114 24 232 24q269 0 410 -82z" />
<glyph unicode="&#xe38;" d="M-410 -700h-143l33 149q6 29 28 57l-2 2q-43 -26 -71 -26q-58 0 -99 41.5t-41 103.5q0 89 56.5 147t150.5 58q85 0 131 -58t29 -139zM-451 -342q0 26 -16 43.5t-43 17.5q-34 0 -55 -19t-21 -52q0 -25 18.5 -42.5t45.5 -17.5q32 0 51.5 18.5t19.5 51.5z" />
<glyph unicode="&#xe39;" d="M-410 -700h-501l24 116h74l6 33q6 27 29 57l-2 2q-43 -26 -72 -26q-58 0 -98.5 41.5t-40.5 103.5q0 89 56.5 147t150.5 58q85 0 131.5 -58.5t29.5 -138.5l-47 -219h140l88 404h145zM-737 -342q0 26 -16.5 43.5t-43.5 17.5q-34 0 -54.5 -19t-20.5 -52q0 -25 18 -42.5 t45 -17.5q32 0 52 18.5t20 51.5z" />
<glyph unicode="&#xe3a;" d="M-246 -299q0 -71 -62 -126.5t-138 -55.5q-56 0 -91.5 37.5t-35.5 91.5q0 72 60.5 128t133.5 56q58 0 95.5 -38t37.5 -93z" />
<glyph unicode="&#xe3f;" horiz-adv-x="1138" d="M496 -213h-105l45 213h-375l304 1413h374l37 174h105l-37 -176q71 -5 126 -20.5t101.5 -46t71 -83t24.5 -124.5q0 -60 -11.5 -111t-29.5 -87t-45 -66t-52.5 -49.5t-57.5 -35.5t-55 -24.5t-49 -17.5q-5 -1 -7.5 -2t-6.5 -2.5t-7 -2.5q23 -6 36 -10t39.5 -15.5t43 -23.5 t38.5 -33.5t35 -46.5t22 -61.5t9 -79.5q0 -115 -39 -202t-110.5 -142.5t-166 -85.5t-212.5 -37zM680 645l-105 -483q128 16 212.5 91t84.5 198q0 80 -50.5 132t-141.5 62zM469 160l106 489h-182l-106 -489h182zM610 817l95 432h-183l-94 -432h182zM809 1245l-92 -422 q244 43 244 267q0 139 -152 155z" />
<glyph unicode="&#xe40;" horiz-adv-x="679" d="M471 209q0 33 -23 54.5t-59 21.5q-48 0 -75 -28t-27 -73q0 -32 22.5 -52.5t55.5 -20.5q47 0 76.5 24.5t29.5 73.5zM328 367l4 -5q32 29 94 29q75 0 124.5 -48.5t49.5 -129.5q0 -98 -70 -159.5t-178 -61.5q-102 0 -160 63t-38 160l211 983h163l-153 -719q-8 -49 -47 -112z " />
<glyph unicode="&#xe41;" horiz-adv-x="1245" d="M471 209q0 33 -23 54.5t-59 21.5q-48 0 -75 -28t-27 -73q0 -32 22.5 -52.5t55.5 -20.5q47 0 76.5 24.5t29.5 73.5zM328 367l4 -5q32 29 94 29q75 0 124.5 -48.5t49.5 -129.5q0 -98 -70 -159.5t-178 -61.5q-102 0 -160 63t-38 160l211 983h163l-153 -719q-8 -49 -47 -112z M1036 209q0 33 -23 54.5t-59 21.5q-48 0 -75 -28t-27 -73q0 -32 22.5 -52.5t55.5 -20.5q47 0 76.5 24.5t29.5 73.5zM893 367l4 -5q32 29 94 29q75 0 124.5 -48.5t49.5 -129.5q0 -98 -69.5 -159.5t-177.5 -61.5q-102 0 -160.5 63t-38.5 160l211 983h164l-154 -719 q-8 -49 -47 -112z" />
<glyph unicode="&#xe42;" horiz-adv-x="819" d="M598 209q0 33 -23 54.5t-59 21.5q-48 0 -75 -28t-27 -73q0 -32 22.5 -52.5t55.5 -20.5q47 0 76.5 24.5t29.5 73.5zM455 367l4 -5q32 29 94 29q75 0 124.5 -48.5t49.5 -129.5q0 -98 -70 -159.5t-178 -61.5q-102 0 -160 63t-38 160l241 1135q17 84 -47 112l-293 127l11 49 q33 153 163.5 251t339.5 98q233 0 344 -91t82 -227l-6 -29h-166l6 31q13 72 -53 118t-219 46q-124 0 -210 -46t-101 -99l-4 -15l182 -78q173 -73 135 -249l-184 -869q-10 -53 -47 -112z" />
<glyph unicode="&#xe43;" horiz-adv-x="860" d="M639 209q0 33 -23 54.5t-59 21.5q-48 0 -75 -28t-27 -73q0 -32 22 -52.5t55 -20.5q47 0 77 24.5t30 73.5zM496 367l4 -5q32 29 94 29q75 0 124.5 -48.5t49.5 -129.5q0 -98 -70 -159.5t-178 -61.5q-102 0 -160.5 63.5t-37.5 159.5l217 1010q11 49 45 98t75 90t80 83.5 t65.5 95t26.5 108.5q0 70 -50 112.5t-132 42.5q-91 0 -147 -45v-4q67 -3 109 -47.5t42 -116.5q0 -91 -67 -150.5t-162 -59.5q-90 0 -147.5 50.5t-57.5 145.5t65 178.5t167.5 131t212.5 47.5q158 0 245.5 -76t87.5 -203q0 -56 -27.5 -113t-68 -105.5t-82.5 -94t-76 -94 t-43 -89.5l-157 -731q-10 -53 -47 -112zM532 1640q0 34 -21 57t-58 23q-45 0 -74 -28t-29 -74q0 -32 22 -55t54 -23q49 0 77.5 27t28.5 73z" />
<glyph unicode="&#xe44;" horiz-adv-x="890" d="M670 209q0 33 -23 54.5t-59 21.5q-48 0 -75.5 -28t-27.5 -73q0 -32 22.5 -52.5t55.5 -20.5q47 0 77 24.5t30 73.5zM526 367l4 -5q32 29 95 29q75 0 124.5 -48.5t49.5 -129.5q0 -98 -70 -159.5t-178 -61.5q-102 0 -161 63.5t-38 159.5l279 1298q22 108 67 207l-8 4 q-144 -176 -346 -313h-137l51 240q21 85 16.5 152t-21.5 108.5t-50 81.5l139 63q25 -36 40.5 -71t26 -83t7.5 -110.5t-19 -138.5l-12 -58q185 151 330 383h180l-322 -1499q-10 -53 -47 -112z" />
<glyph unicode="&#xe45;" horiz-adv-x="1069" d="M682 -578h-166l297 1377q27 122 -21 196t-186 74q-122 0 -209 -73.5t-114 -192.5l-17 -72h-155l16 72q41 182 173.5 296.5t322.5 114.5q197 0 296 -119t60 -296z" />
<glyph unicode="&#xe46;" horiz-adv-x="1153" d="M766 -578h-166l348 1627h-24q-52 0 -84 -27t-41 -72l-8 -43h-136l9 43q10 53 -28.5 100.5t-121.5 47.5q-23 0 -74 -17l2 -4q63 -6 102.5 -53.5t39.5 -108.5q0 -100 -66.5 -159.5t-161.5 -59.5q-86 0 -146 54t-60 141q0 136 103.5 229.5t262.5 93.5q181 0 240 -122 q77 106 198 106h191zM463 905q0 34 -22 57t-60 23q-45 0 -72.5 -27.5t-27.5 -74.5q0 -33 21.5 -55.5t55.5 -22.5q46 0 75.5 27.5t29.5 72.5z" />
<glyph unicode="&#xe47;" d="M-281 1497l5 4q-9 8 -18 33t-9 47q0 69 49 113.5t129 44.5q74 0 117 -42.5t43 -101.5q0 -96 -68.5 -151t-171.5 -55q-215 0 -276 145q-68 -68 -101 -141h-41q-60 35 -99.5 100t-39.5 147q0 58 20.5 114t60.5 105t109 79t156 30h262q78 0 130 27.5t104 79.5l74 -95 q-126 -143 -316 -143h-260q-98 0 -146 -51.5t-48 -128.5q0 -64 34 -103q58 81 125 125h37q0 -56 42.5 -113t96.5 -69zM-143 1507q75 0 75 80q0 26 -16 44t-45 18q-36 0 -56 -21.5t-20 -56.5q0 -25 17.5 -44.5t44.5 -19.5z" />
<glyph unicode="&#xe48;" d="M180 2038h-153l82 375h153z" />
<glyph unicode="&#xe49;" d="M481 2464l-10 -47q-26 -123 -114 -213t-198 -131t-227 -41q-106 0 -188 16l8 80q4 1 18 5t20 6t19 6t20.5 7t19 7.5t19 9t16.5 9.5t16 11l2 11q-38 6 -77.5 42.5t-39.5 92.5q0 69 47.5 114t120.5 45q72 0 116 -41.5t44 -103.5q0 -112 -144 -192v-5q121 2 224.5 79 t128.5 186l10 47h149zM4 2343q0 22 -13.5 38.5t-41.5 16.5q-30 0 -46 -15.5t-16 -41.5q0 -21 14.5 -38t39.5 -17q30 0 46.5 15.5t16.5 41.5z" />
<glyph unicode="&#xe4a;" d="M-186 2126q55 0 55 57q0 21 -13 36t-36 15q-27 0 -43.5 -15.5t-16.5 -41.5q0 -20 14 -35.5t40 -15.5zM584 2515l-11 -49q-43 -203 -188.5 -311.5t-370.5 -108.5l21 88q162 64 162 207q0 32 -13.5 52t-40.5 20q-49 0 -110 -78h-80q-20 82 -84 82q-52 0 -88 -40t-41 -98 q16 15 26 22t30.5 14t47.5 7q58 0 98 -33.5t40 -90.5q0 -81 -49 -120.5t-132 -39.5q-75 0 -129.5 51.5t-54.5 136.5q0 118 70.5 207.5t187.5 89.5q50 0 82.5 -21t44.5 -51q27 29 74 50.5t96 21.5q26 0 51 -8t48.5 -24t38 -46.5t14.5 -70.5q0 -96 -76 -189q76 36 114 105 t62 176l10 49h150z" />
<glyph unicode="&#xe4b;" d="M375 2204l-168 4l-31 -170h-145l39 170l-166 -4l28 131l164 -4l33 166h145l-41 -166l170 4z" />
<glyph unicode="&#xe4c;" d="M352 2402l-178 -67q-57 -21 -190 -29l-2 -6q33 -14 58.5 -52.5t25.5 -80.5q0 -93 -59 -146t-148 -53q-80 0 -129 46t-49 116q0 145 163 223q80 38 238.5 83t236.5 77zM-133 2068q40 0 60 25t20 59q0 28 -18.5 50t-53.5 22q-37 0 -57.5 -25t-20.5 -61q0 -28 19 -49t51 -21 z" />
<glyph unicode="&#xe4d;" d="M242 1669q0 -113 -73.5 -184.5t-188.5 -71.5q-96 0 -156 58.5t-60 142.5q0 109 77 182.5t186 73.5q96 0 155.5 -59t59.5 -142zM-10 1524q61 0 96 37t35 96q0 43 -25.5 72.5t-72.5 29.5q-63 0 -100.5 -38.5t-37.5 -96.5q0 -42 28 -71t77 -29z" />
<glyph unicode="&#xe4e;" d="M86 1642h-152q-54 0 -84 -20t-30 -59q0 -24 15 -41t36 -17q36 0 84 31l45 -92q-75 -55 -168 -55q-88 0 -128 41t-40 98q0 74 53.5 126t141.5 70q-12 9 -21.5 31.5t-9.5 42.5q0 82 82 134.5t201 52.5q114 0 180 -39l-53 -101q-53 29 -121 29q-142 0 -142 -76q0 -47 52 -47 h108z" />
<glyph unicode="&#xe4f;" horiz-adv-x="980" d="M688 573q0 -76 -60.5 -132t-138.5 -56q-56 0 -92.5 37.5t-36.5 93.5q0 76 60.5 133.5t136.5 57.5q58 0 94.5 -38t36.5 -96zM858 600q0 117 -73.5 194.5t-190.5 77.5q-102 0 -195 -53.5t-149.5 -143t-56.5 -188.5q0 -114 73 -190t189 -76q102 0 195 52t150.5 140t57.5 187 zM909 610q0 -117 -67 -218.5t-174.5 -159.5t-225.5 -58q-132 0 -215.5 86.5t-83.5 218.5q0 116 65.5 218.5t172.5 162.5t223 60q135 0 220 -89t85 -221z" />
<glyph unicode="&#xe50;" horiz-adv-x="1372" d="M1092 563q0 126 -83.5 209.5t-228.5 83.5q-186 0 -319 -128.5t-133 -317.5q0 -127 86 -205t225 -78q118 0 221.5 55t167.5 156.5t64 224.5zM1251 575q0 -166 -86.5 -303t-231.5 -213.5t-315 -76.5q-197 0 -323.5 116.5t-126.5 294.5q0 121 50 233.5t133.5 194.5t199 131 t240.5 49q205 0 332.5 -120.5t127.5 -305.5z" />
<glyph unicode="&#xe51;" horiz-adv-x="1462" d="M754 -205l-68 125q86 42 154 84.5t133 99t108 118t69 141.5t26 169q0 152 -100 238t-261 86q-219 0 -354 -120.5t-135 -307.5q0 -69 22 -125.5t57 -90.5t72.5 -54t73.5 -25l2 6q-33 18 -54.5 57t-21.5 85q0 93 71 162t187 69q92 0 146.5 -56.5t54.5 -136.5 q0 -141 -109 -231t-264 -90q-74 0 -144 27.5t-127.5 77.5t-92.5 130t-35 177q0 258 187.5 424.5t488.5 166.5q223 0 361 -121.5t138 -324.5q0 -116 -33.5 -218.5t-86 -178.5t-133 -146t-157.5 -118.5t-175 -98.5zM690 197q48 0 74.5 32t26.5 74q0 34 -20 57t-54 23 q-46 0 -71 -31t-25 -73q0 -31 18.5 -56.5t50.5 -25.5z" />
<glyph unicode="&#xe52;" horiz-adv-x="1648" d="M1135 0h-1049l246 1141q17 82 -3 133.5t-81 83.5l108 119q88 -45 121.5 -131.5t9.5 -198.5l-213 -1002h883q62 0 95 28t46 93l93 436q36 158 -64 158q-54 0 -105.5 -48.5t-86.5 -115.5h-95q-5 70 -43.5 117t-115.5 47q-60 0 -109.5 -27.5t-79 -69t-45.5 -86t-16 -83.5 l8 2q67 102 192 102q86 0 144.5 -51t58.5 -137q0 -63 -22.5 -111.5t-61 -77t-85.5 -43t-101 -14.5q-123 0 -209 84t-86 215q0 60 15.5 120.5t50 118t83 101.5t120.5 71t157 27q171 0 213 -133q98 133 242 133q52 0 94 -16t73 -51.5t39.5 -91t-6.5 -133.5l-94 -449 q-29 -136 -108 -198t-213 -62zM893 489q0 38 -23.5 63.5t-60.5 25.5q-44 0 -77.5 -28.5t-33.5 -80.5q0 -38 25 -62t61 -24q43 0 76 28t33 78z" />
<glyph unicode="&#xe53;" horiz-adv-x="1638" d="M1389 0h-156l149 700q22 99 -4 153t-102 54q-92 0 -159.5 -77t-96.5 -214l-131 -616h-154l131 616q29 137 -14 214t-150 77q-109 0 -202 -85.5t-143 -211t-50 -252.5q0 -41 6 -59h6q22 53 76 91t125 38q88 0 146.5 -52t58.5 -140q0 -126 -74.5 -191t-193.5 -65 q-130 0 -215.5 96.5t-85.5 283.5q0 97 25 195.5t74.5 187t117 157t158.5 109t192 40.5q114 0 174 -45.5t86 -126.5q57 75 140 123.5t180 48.5q138 0 205 -88.5t30 -262.5zM477 106q37 0 67.5 30.5t30.5 78.5q0 38 -23 61t-60 23q-40 0 -72.5 -27.5t-32.5 -78.5 q0 -38 25 -62.5t65 -24.5z" />
<glyph unicode="&#xe54;" horiz-adv-x="1501" d="M1290 0h-620q-146 0 -258 45.5t-179 142.5t-67 234q0 258 176 411.5t485 153.5h338q126 0 221 50t177 169l98 -82q-92 -137 -224.5 -209.5t-287.5 -72.5h-338q-229 0 -357 -108t-128 -308q0 -58 16 -103.5t46.5 -75.5t66.5 -51t83.5 -32.5t89 -17t91.5 -7.5l2 4 q-54 36 -91.5 107t-37.5 164q0 129 76 208.5t204 79.5q88 0 146.5 -48t58.5 -134q0 -101 -65.5 -163t-155.5 -62q-72 0 -100 18q20 -69 91 -118.5t200 -49.5h272zM940 504q0 35 -22.5 57.5t-61.5 22.5q-40 0 -70 -25t-30 -72q0 -35 25 -58t59 -23q42 0 71 24.5t29 73.5z" />
<glyph unicode="&#xe55;" horiz-adv-x="1529" d="M893 1010q60 22 94.5 64t34.5 95q0 33 -21.5 53.5t-64.5 20.5q-62 0 -95.5 -31.5t-33.5 -83.5q0 -38 24 -70.5t62 -47.5zM1290 0h-620q-146 0 -258 45.5t-179 142.5t-67 234q0 96 28.5 176.5t77.5 139t121.5 105.5t153 78.5t178.5 55.5q-32 25 -52 65t-20 80 q0 104 80 176t215 72q102 0 162.5 -51.5t60.5 -132.5q0 -122 -129 -209q43 -12 136 -12q246 0 411 235l99 -82q-105 -136 -239 -210t-263 -74q-203 0 -328 47q-62 -11 -112 -23t-107.5 -31.5t-100.5 -43t-84.5 -58t-68.5 -76.5t-43 -99t-16 -124q0 -58 16 -103.5t46.5 -75.5 t66.5 -51t83.5 -32.5t89 -17t91.5 -7.5l2 4q-54 36 -91.5 107t-37.5 164q0 129 76 208.5t204 79.5q88 0 146.5 -48t58.5 -134q0 -101 -65.5 -163t-155.5 -62q-72 0 -100 18q20 -69 91 -118.5t200 -49.5h272zM940 504q0 35 -22.5 57.5t-61.5 22.5q-40 0 -70 -25t-30 -72 q0 -35 25 -58t59 -23q42 0 71 24.5t29 73.5z" />
<glyph unicode="&#xe56;" horiz-adv-x="1431" d="M553 381q0 37 -22.5 60.5t-61.5 23.5q-49 0 -75.5 -31t-26.5 -76q0 -34 20 -59t57 -25q51 0 80 31.5t29 75.5zM375 672h-144l101 469q34 160 -84 217l108 119q88 -45 121.5 -131.5t9.5 -198.5l-61 -287q52 42 86 65.5t94.5 56.5t131 49t151.5 16q108 0 192.5 -34 t136.5 -92.5t78.5 -132.5t26.5 -159q0 -136 -37 -245t-100.5 -182t-152 -122t-188 -70.5t-212.5 -21.5q-177 0 -298.5 100t-121.5 236q0 116 78 193t198 77q100 0 153.5 -58t53.5 -137q0 -99 -63.5 -158.5t-161.5 -78.5q66 -39 174 -39q107 0 199 30t164 89.5t113.5 156.5 t41.5 222q0 130 -70 207t-216 77q-273 0 -502 -233z" />
<glyph unicode="&#xe57;" horiz-adv-x="1687" d="M1114 0h-190l143 666q41 192 -53 192q-54 0 -102 -63.5t-70 -157.5h-150q18 96 -2 158.5t-82 62.5q-117 0 -209 -149t-92 -351q0 -41 6 -59h6q22 53 76 91t125 38q88 0 146.5 -52t58.5 -140q0 -126 -74.5 -191t-193.5 -65q-130 0 -215.5 96.5t-85.5 283.5q0 162 61 308.5 t170 238.5t238 92q75 0 120 -39t56 -100q42 61 104 100t137 39q129 0 173 -85.5t10 -237.5l-117 -539h55q68 0 120 54.5t65 119.5l163 766q31 147 -90 199q47 49 117 127q85 -47 119 -130t12 -190l-164 -770q-33 -157 -135 -235t-256 -78zM477 106q37 0 67.5 30.5t30.5 78.5 q0 38 -23 61t-60 23q-40 0 -72.5 -27.5t-32.5 -78.5q0 -38 25 -62.5t65 -24.5z" />
<glyph unicode="&#xe58;" horiz-adv-x="1527" d="M1221 289q0 31 -17.5 54.5t-56.5 23.5q-47 0 -72.5 -28.5t-25.5 -66.5q0 -31 18 -54t57 -23q44 0 70.5 28.5t26.5 65.5zM999 127l-2 4q-30 7 -61 50.5t-31 92.5q0 89 70.5 154.5t183.5 65.5q93 0 148 -53.5t55 -139.5q0 -139 -110.5 -228t-286.5 -89q-91 0 -164.5 39.5 t-113.5 92.5t-58 113q-39 -45 -78 -116t-53 -119h-123q-84 48 -145.5 168.5t-61.5 261.5q0 171 85.5 300t229.5 196t324 67h276q126 0 222 50t178 169l98 -82q-92 -137 -224.5 -209.5t-287.5 -72.5h-276q-203 0 -334 -111t-131 -299q0 -94 31.5 -169.5t64.5 -102.5h4 q40 74 101.5 157.5t111.5 124.5h74q5 -141 72 -232t169 -91q32 0 43 8z" />
<glyph unicode="&#xe59;" horiz-adv-x="1597" d="M1223 78l-99 -111q-63 29 -106.5 88.5t-61.5 137.5l-90 409q-10 45 -18 72t-25 65t-37 59t-54 36.5t-77 15.5q-85 0 -154 -48.5t-110 -124t-62.5 -158.5t-21.5 -161q0 -41 6 -59h6q22 53 76 91t125 38q88 0 146.5 -52t58.5 -140q0 -126 -74.5 -191t-193.5 -65 q-130 0 -215.5 96.5t-85.5 283.5q0 83 20 169.5t62.5 170.5t101.5 149.5t146 105.5t188 40q212 0 295 -213q29 94 90.5 154.5t154.5 60.5q67 0 121 -42t78 -109q29 14 48 42t30 81l22 108q14 70 -9.5 121.5t-82.5 77.5q10 11 53 57.5t66 69.5q83 -46 116.5 -130.5 t10.5 -191.5l-27 -127q-27 -127 -107 -203.5t-181 -76.5h-33q-2 18 -4.5 34.5t-12 43t-23 45.5t-38 33t-55.5 14q-73 0 -117.5 -80t-30.5 -160l64 -356q10 -63 37.5 -101t83.5 -69zM477 106q37 0 67.5 30.5t30.5 78.5q0 38 -23 61t-60 23q-40 0 -72.5 -27.5t-32.5 -78.5 q0 -38 25 -62.5t65 -24.5z" />
<glyph unicode="&#xe5b;" horiz-adv-x="2316" d="M2324 614h-237q-13 -24 -56 -92t-81 -131h-72q-6 127 -45 234q-7 -11 -29.5 -40.5t-62 -87t-88.5 -137.5h-103q7 72 -3.5 144.5t-30.5 116.5q-40 -70 -105 -164.5t-84 -126.5h-104q6 169 -45 284q-23 -99 -61 -184t-95 -160t-129 -128.5t-168.5 -84t-208.5 -30.5 q-175 0 -284 106.5t-109 290.5q0 127 42.5 239.5t113.5 191.5t166.5 125t199.5 46q143 0 224 -84t81 -209q0 -170 -113.5 -294t-258.5 -124q-84 0 -147.5 51.5t-63.5 145.5q0 107 77 171.5t179 64.5q67 0 118.5 -35.5t57.5 -89.5l8 2q23 117 -18.5 193.5t-153.5 76.5 q-105 0 -191 -65t-132 -166t-46 -211q0 -143 79.5 -218t201.5 -75q151 0 271 82.5t183.5 216.5t63.5 291v28h149q37 -48 66.5 -118t36.5 -136q127 184 166 254h82q72 -134 75 -250q20 34 73.5 119t78.5 131h78q65 -106 82 -200l90 141h305zM694 541q0 37 -25.5 61.5 t-62.5 24.5q-45 0 -76.5 -26.5t-31.5 -76.5q0 -35 24.5 -58.5t59.5 -23.5q46 0 79 25t33 74z" />
<glyph unicode="&#x2000;" horiz-adv-x="1261" />
<glyph unicode="&#x2001;" horiz-adv-x="2523" />
<glyph unicode="&#x2002;" horiz-adv-x="1261" />
<glyph unicode="&#x2003;" horiz-adv-x="2523" />
<glyph unicode="&#x2004;" horiz-adv-x="841" />
<glyph unicode="&#x2005;" horiz-adv-x="630" />
<glyph unicode="&#x2006;" horiz-adv-x="420" />
<glyph unicode="&#x2007;" horiz-adv-x="420" />
<glyph unicode="&#x2008;" horiz-adv-x="315" />
<glyph unicode="&#x2009;" horiz-adv-x="504" />
<glyph unicode="&#x200a;" horiz-adv-x="140" />
<glyph unicode="&#x2010;" horiz-adv-x="681" d="M621 469h-517l29 127h516z" />
<glyph unicode="&#x2011;" horiz-adv-x="681" d="M621 469h-517l29 127h516z" />
<glyph unicode="&#x2012;" horiz-adv-x="681" d="M621 469h-517l29 127h516z" />
<glyph unicode="&#x2013;" horiz-adv-x="1024" d="M1049 481h-1024l22 103h1024z" />
<glyph unicode="&#x2014;" horiz-adv-x="2048" d="M2073 481h-2048l22 103h2048z" />
<glyph unicode="&#x2018;" horiz-adv-x="569" d="M514 983h-201l52 225l192 291h86l-160 -291h82z" />
<glyph unicode="&#x2019;" horiz-adv-x="569" d="M393 963h-86l162 290h-82l49 226h201l-49 -226z" />
<glyph unicode="&#x201a;" horiz-adv-x="569" d="M117 -291h-86l159 291h-81l49 225h200l-49 -225z" />
<glyph unicode="&#x201c;" horiz-adv-x="1024" d="M547 983h-201l51 225l193 291h86l-160 -291h82zM965 983h-201l51 225l193 291h86l-160 -291h82z" />
<glyph unicode="&#x201d;" horiz-adv-x="1024" d="M815 963h-86l162 290h-82l49 226h201l-49 -226zM397 963h-86l162 290h-82l49 226h201l-49 -226z" />
<glyph unicode="&#x201e;" horiz-adv-x="1024" d="M539 -291h-86l159 291h-82l50 225h200l-49 -225zM121 -291h-86l160 291h-82l49 225h200l-49 -225z" />
<glyph unicode="&#x2020;" horiz-adv-x="1024" d="M424 -172h-66l136 827l129 357l-340 -54l34 160l318 -45l45 426h164l-144 -426l338 45l-34 -160l-316 54l-31 -357z" />
<glyph unicode="&#x2021;" horiz-adv-x="1024" d="M473 -172h-164l144 426l-336 -45l35 160l315 -54l29 349l127 348l-340 -54l34 160l318 -45l45 426h164l-144 -426l338 45l-34 -160l-316 54l-29 -348l-127 -349l340 54l-34 -160l-320 45z" />
<glyph unicode="&#x2022;" horiz-adv-x="1024" d="M963 739q-34 -154 -166.5 -262t-286.5 -108t-237.5 108t-49.5 262t165.5 261.5t285.5 107.5t238.5 -107.5t50.5 -261.5z" />
<glyph unicode="&#x2026;" horiz-adv-x="2048" d="M360 0h-200l49 225h201zM1042 0h-200l49 225h201zM1724 0h-200l49 225h201z" />
<glyph unicode="&#x202f;" horiz-adv-x="504" />
<glyph unicode="&#x2030;" horiz-adv-x="2048" d="M2009 367q0 -90 -52.5 -175t-140.5 -138.5t-184 -53.5q-105 0 -174 68.5t-69 171.5q0 94 56.5 180t144 136t177.5 50q105 0 173.5 -68t68.5 -171zM1888 342q0 63 -44.5 104t-102.5 41q-48 0 -100.5 -27.5t-91 -80.5t-38.5 -115t41.5 -103.5t106.5 -41.5q85 0 157 68 t72 155zM1268 367q0 -90 -52.5 -175t-140.5 -138.5t-184 -53.5q-105 0 -174.5 68.5t-69.5 171.5q0 94 56.5 180t144.5 136t178 50q105 0 173.5 -68t68.5 -171zM1147 342q0 63 -45 104t-103 41q-48 0 -100 -27.5t-90.5 -80.5t-38.5 -115t41.5 -103.5t106.5 -41.5q85 0 157 68 t72 155zM821 1239q0 -90 -52.5 -175t-140.5 -138.5t-184 -53.5q-105 0 -174 68.5t-69 171.5q0 94 56.5 180t144.5 136.5t178 50.5q105 0 173 -68.5t68 -171.5zM700 1214q0 64 -44.5 105t-102.5 41q-76 0 -152.5 -65.5t-76.5 -155.5q0 -63 40.5 -105.5t106.5 -42.5 q85 0 157 68t72 155zM215 -20h-121l1153 1519h125z" />
<glyph unicode="&#x2039;" horiz-adv-x="681" d="M485 209h-139l-199 323l338 324h144l-336 -324z" />
<glyph unicode="&#x203a;" horiz-adv-x="681" d="M608 532l-342 -323h-139l336 323l-193 324h144z" />
<glyph unicode="&#x2044;" horiz-adv-x="342" d="M-307 -20h-121l1235 1519h127z" />
<glyph unicode="&#x205f;" horiz-adv-x="630" />
<glyph unicode="&#x20ac;" horiz-adv-x="1251" d="M1087 303l-38 -170q-169 -153 -396 -153q-196 0 -303.5 115t-107.5 300q0 31 8 97h-170l72 126h127l38 181h-170l72 127h127q26 115 84 219t139 182.5t188.5 125t223.5 46.5q40 0 74 -3t80.5 -16t84.5 -34.5t76.5 -62.5t65.5 -97l-94 -168q-9 29 -20.5 55.5t-37.5 65 t-58 66t-84 47.5t-114 20q-76 0 -144 -27.5t-118 -72.5t-90.5 -104.5t-65.5 -119.5t-40 -122h663l-72 -127h-616l-39 -181h555l-72 -126h-512q-8 -41 -8 -89q0 -132 78 -214.5t207 -82.5q72 0 135 17t115 51t83.5 60.5t73.5 68.5z" />
<glyph unicode="&#x2113;" horiz-adv-x="1067" d="M930 315l59 -57q-203 -268 -469 -268q-72 0 -127 21t-86.5 58t-50.5 87t-19 107.5t9 119.5l6 27q-23 -15 -75 -51t-79 -54l-26 82q17 12 93.5 64t113.5 81l129 586q25 112 64 200.5t83 144t95.5 92t100 51t97.5 14.5q67 0 114 -27t68.5 -73.5t26 -108t-12.5 -129.5 q-42 -191 -205.5 -382t-437.5 -402l-14 -60q-36 -170 20 -255t164 -85q100 0 196.5 65t162.5 152zM543 1137l-111 -504q215 181 344.5 335.5t163.5 307.5q25 112 -1.5 177t-115.5 65q-35 0 -72 -20t-76 -62t-74.5 -119.5t-57.5 -179.5z" />
<glyph unicode="&#x2122;" horiz-adv-x="2027" d="M567 635h-139l162 733h-258l24 111h660l-25 -111h-262zM1882 635h-139l155 704h-4l-432 -704h-90l-121 704h-4l-155 -704h-140l187 844h215l112 -639l387 639h215z" />
<glyph unicode="&#x2126;" horiz-adv-x="1634" d="M1434 0h-531l19 82q80 41 156.5 104t147 147.5t126 196t82.5 234.5q15 71 15.5 143t-13.5 140t-46 127.5t-78.5 104t-115.5 70t-152 25.5q-119 0 -231 -48.5t-198.5 -132t-150 -195.5t-91.5 -238q-37 -160 -12.5 -296t82 -232t139.5 -150l-19 -82h-528l24 111h344l3 6 q-54 51 -94 116t-67 150t-28.5 182t21.5 213q45 205 171 368t300 252t362 89q116 0 213 -37.5t160.5 -103t104 -154.5t45.5 -191.5t-17 -214.5q-49 -219 -180 -394.5t-285 -274.5l-2 -6h348z" />
<glyph unicode="&#x212e;" horiz-adv-x="2162" d="M1710 274h121q-116 -135 -292 -213.5t-376 -78.5q-171 0 -327.5 59.5t-269.5 160.5t-180 241t-67 294q0 155 67 296.5t180 243.5t269.5 162t327.5 60q172 0 328.5 -60t270 -162t180.5 -243.5t67 -296.5v-18h-1368q-10 0 -10 -10v-414q0 -26 18 -47q101 -106 234 -165.5 t282 -59.5q160 0 301 67t244 184zM1698 772v416q0 31 -21 49q-101 101 -233 159t-279 58t-280 -59.5t-234 -163.5q-20 -20 -20 -51v-408q0 -4 3 -9t7 -5h1049q8 0 8 14z" />
<glyph unicode="&#x2202;" horiz-adv-x="1204" d="M1042 778h2q14 46 25 101q65 291 -21.5 472t-263.5 181q-167 0 -323 -102l-31 96q177 116 391 116q108 0 194.5 -49t144 -148t69 -247.5t-30.5 -347.5q-39 -176 -109.5 -330.5t-166.5 -274t-222.5 -188.5t-265.5 -69q-70 0 -127 20t-94.5 54.5t-63 81t-36 101t-9 112 t14.5 116.5q35 156 128 278.5t213 186t245 63.5q76 0 140 -25t103.5 -63.5t62 -72.5t31.5 -62zM469 98h4q107 0 211.5 77t182.5 198t126 266q-5 39 -25.5 81t-55 81.5t-90.5 64.5t-122 25q-143 0 -274.5 -122t-169.5 -294q-36 -162 22.5 -269.5t190.5 -107.5z" />
<glyph unicode="&#x2206;" horiz-adv-x="1449" d="M1296 0h-1308l22 100l889 1405h160l260 -1405zM1171 111l-157 847q-5 38 -35 190.5t-33 207.5h-10q-21 -43 -111 -187t-108 -174l-563 -884h1017z" />
<glyph unicode="&#x220f;" horiz-adv-x="1873" d="M1485 -203h-137v1542h-662v-1542h-135v1542h-254v123h1440v-123h-252v-1542z" />
<glyph unicode="&#x2211;" horiz-adv-x="1558" d="M1425 -203h-1134v92l614 738l-588 741v94h1076v-119h-875v-8l549 -690l-590 -711v-6h948v-131z" />
<glyph unicode="&#x2212;" horiz-adv-x="1228" d="M1169 469h-1065l29 127h1065z" />
<glyph unicode="&#x2215;" horiz-adv-x="342" d="M-307 -20h-121l1235 1519h127z" />
<glyph unicode="&#x2219;" horiz-adv-x="624" d="M473 530q-10 -52 -55.5 -88t-98.5 -36q-55 0 -83 35.5t-17 88.5q12 55 56.5 92t99.5 37q53 0 81.5 -37.5t16.5 -91.5z" />
<glyph unicode="&#x221a;" horiz-adv-x="1585" d="M1012 -317h-127l-363 983l-166 -64l-30 86l284 111l299 -817q5 -18 18 -68.5t19 -73.5h2q2 13 29 140l424 1755h106z" />
<glyph unicode="&#x221e;" horiz-adv-x="1908" d="M1714 608v-2q0 -150 -99 -245t-233 -95q-67 0 -133 32.5t-125 85t-145 146.5q-46 -51 -72.5 -79t-72.5 -69t-83 -62t-87.5 -37.5t-102.5 -16.5q-131 0 -226 97.5t-95 236.5q0 146 96 242t242 96q59 0 115 -21t109.5 -63t92.5 -80.5t92 -99.5q39 44 51.5 57.5t49 51.5 t55 52t54.5 40t63.5 36t64 18.5t74.5 8.5q142 0 228.5 -91.5t86.5 -238.5zM575 358h3q34 0 70.5 12.5t62.5 27t62.5 46t53.5 48t54.5 56t46.5 48.5q-94 112 -134 150q-114 106 -233 106q-102 0 -162.5 -75t-60.5 -181q0 -101 66 -169.5t171 -68.5zM1389 852h-3 q-43 0 -86 -17t-82 -48.5t-67.5 -59t-65 -67.5t-51.5 -54q130 -139 203 -193.5t156 -54.5q101 0 162 73.5t61 168.5q0 117 -63.5 184.5t-163.5 67.5z" />
<glyph unicode="&#x222b;" horiz-adv-x="1093" d="M270 -295l29 98q50 -28 102 -28q62 0 105 49q80 98 80 369q0 170 -15.5 540.5t-15.5 532.5q0 173 26.5 275.5t90.5 164.5q75 78 192 78q68 0 119 -31l-27 -96q-36 24 -82 24q-74 0 -112 -49q-43 -46 -61.5 -135.5t-18.5 -243.5q0 -162 15.5 -528.5t15.5 -534.5 q0 -285 -99 -421q-33 -50 -86.5 -75.5t-115.5 -25.5q-38 0 -78.5 11.5t-63.5 25.5z" />
<glyph unicode="&#x2248;" horiz-adv-x="1460" d="M1210 905l60 -53q-107 -201 -281 -201q-45 0 -90.5 13.5t-73.5 27.5t-102 53q-46 25 -70.5 37t-65 24.5t-75.5 12.5q-71 0 -122 -43t-103 -121l-62 52q51 96 129.5 149t171.5 53q38 0 79 -11.5t61.5 -20.5t63.5 -33t48 -27q12 -6 37 -19.5t36 -19t32 -14.5t35.5 -13 t34.5 -7t40 -3q67 0 117.5 39.5t99.5 124.5zM1210 539l60 -54q-107 -198 -281 -198q-42 0 -85 12t-68 23.5t-91 45.5l-22 11q-43 25 -69.5 38.5t-66 25.5t-75.5 12q-72 0 -122 -43t-103 -123l-62 53q51 96 129.5 149.5t171.5 53.5q39 0 79 -10.5t63.5 -21.5t61 -32t48.5 -26 q5 -3 29.5 -17t31.5 -17t27 -13.5t31 -13.5t29 -8.5t34.5 -7t34.5 -1.5q66 0 114.5 38t100.5 124z" />
<glyph unicode="&#x2260;" horiz-adv-x="1505" d="M1309 340h-596l-123 -266l-76 37l107 229h-345v92h386l153 328h-539v92h578l121 258l76 -35l-105 -223h363v-92h-402l-155 -328h557v-92z" />
<glyph unicode="&#x2264;" horiz-adv-x="1540" d="M1337 188l-1011 492v96l1011 492v-113l-907 -424v-4l907 -426v-113zM1343 4h-1032v94h1032v-94z" />
<glyph unicode="&#x2265;" horiz-adv-x="1538" d="M1339 680l-1011 -492v113l905 424v4l-905 426v113l1011 -492v-96zM1341 4h-1028v94h1028v-94z" />
<glyph unicode="&#x25ca;" horiz-adv-x="1587" d="M932 -100h-113l-446 831l450 832h113l448 -832zM877 12h6q16 52 39 101l333 614l-333 616q-31 63 -43 105h-5q-17 -54 -45 -105l-329 -610l336 -620q33 -68 41 -101z" />
<glyph unicode="&#x25fc;" horiz-adv-x="1064" d="M0 1065h1065v-1065h-1065v1065z" />
<glyph unicode="&#xf700;" horiz-adv-x="1114" d="M504 532q0 32 -24 56t-58 24q-45 0 -74 -26.5t-29 -71.5q0 -32 24.5 -55t59.5 -23q47 0 74 25t27 71zM748 0h-191l-37 254q-4 49 -1 71t16 66h-9q-55 -67 -145 -67q-74 0 -126 51t-52 123q0 102 67 161.5t164 59.5q90 0 143.5 -53.5t59.5 -139.5l18 -223q6 -93 -6 -184 h13q6 31 16 61.5t30 82t25 65.5l90 256q19 54 18 93t-28.5 64.5t-88 37.5t-161.5 12q-104 0 -209.5 -16.5t-167.5 -39.5h-20l24 115q11 52 27.5 98t48.5 97t73.5 86.5t106.5 59t144 23.5q68 0 184 -35.5t172 -35.5q105 0 133 125q53 -18 144 -43q-25 -103 -98.5 -165.5 t-170.5 -62.5q-67 0 -180 38t-196 38q-85 0 -146.5 -44.5t-73.5 -106.5l-6 -29q152 31 275 31q56 0 106 -7t100 -22.5t86 -43.5t58 -66.5t20.5 -95.5t-28.5 -126z" />
<glyph unicode="&#xf701;" d="M-254 1343h-33q-219 132 -547 132q-209 0 -364 -37h-29q30 81 80 152.5t118 128.5t158 90.5t189 33.5q150 0 255 -69.5t148.5 -182.5t24.5 -248zM-393 1513q-27 86 -100 145.5t-199 59.5q-213 0 -314 -147q114 24 218 24q254 0 395 -82z" />
<glyph unicode="&#xf702;" d="M-254 1343h-33q-219 132 -547 132q-209 0 -364 -37h-29q30 81 80 152.5t118 128.5t158 90.5t189 33.5q133 0 230 -60t141 -163l10 4q-22 94 -4 182l18 86h148zM-393 1513q-27 86 -100 145.5t-199 59.5q-213 0 -314 -147q114 24 218 24q254 0 395 -82z" />
<glyph unicode="&#xf703;" d="M-254 1343h-33q-219 132 -547 132q-209 0 -364 -37h-29q30 81 80 152.5t118 128.5t158 90.5t189 33.5q120 0 215 -45q35 43 83.5 68.5t100.5 25.5q69 0 112.5 -45t43.5 -112q0 -61 -38.5 -113.5t-98.5 -81.5q22 -95 10 -197zM-393 1513q-27 86 -100 145.5t-199 59.5 q-213 0 -314 -147q114 24 218 24q254 0 395 -82zM-385 1741q57 -54 84 -111q26 13 43.5 36.5t17.5 51.5q0 29 -17.5 50.5t-45.5 21.5q-24 0 -46.5 -14.5t-35.5 -34.5z" />
<glyph unicode="&#xf704;" d="M-254 1343h-33q-219 132 -547 132q-209 0 -364 -37h-29q63 170 204 287.5t323 117.5q106 0 174 -39l2 2q-5 25 0 45l8 41h145l-30 -151q64 -58 90 -121l10 4q-19 85 0 182l18 86h144zM-393 1513q-27 86 -100 145.5t-199 59.5q-213 0 -314 -147q114 24 218 24 q254 0 395 -82z" />
<glyph unicode="&#xf705;" d="M-377 1401h-158l95 444h157z" />
<glyph unicode="&#xf706;" d="M-76 1860l-10 -52q-16 -81 -59.5 -150t-101 -117t-125.5 -82t-135 -50t-128 -16q-134 0 -237 18l6 78q118 37 159 72l2 10q-45 7 -91 44t-46 105q0 71 51.5 121.5t141.5 50.5q76 0 125 -44t49 -111q0 -70 -45.5 -125.5t-110.5 -91.5l2 -4q76 1 156.5 37t144 104.5 t80.5 150.5l10 52h162zM-596 1731q0 23 -14.5 41t-44.5 18q-32 0 -50 -18t-18 -46q0 -23 17 -41t42 -18q33 0 50.5 17t17.5 47z" />
<glyph unicode="&#xf707;" d="M-918 1487q62 0 62 63q0 21 -14.5 37.5t-42.5 16.5q-31 0 -46.5 -17t-15.5 -45q0 -23 16 -39t41 -16zM-63 1907l-13 -54q-49 -219 -210.5 -335.5t-411.5 -116.5l20 90q75 29 125.5 84t50.5 137q0 39 -16.5 61.5t-48.5 22.5t-65.5 -25t-55.5 -59h-86q-20 88 -82 88 q-56 0 -97.5 -39.5t-41.5 -105.5q44 41 104 41q62 0 102.5 -38t40.5 -102q0 -82 -46.5 -122.5t-120.5 -40.5q-90 0 -149.5 61t-59.5 154q0 128 70.5 218.5t197.5 90.5q53 0 91.5 -28t55.5 -62q31 35 77 62.5t97 27.5q72 0 120 -38t48 -122q0 -64 -29.5 -121.5t-72.5 -97.5 q88 33 149.5 120.5t86.5 194.5l12 54h158z" />
<glyph unicode="&#xf708;" d="M-225 1587l-189 4l-37 -190h-149l45 190l-186 -4l28 133l187 -4l37 189h149l-45 -189l188 4z" />
<glyph unicode="&#xf709;" d="M-100 1970l32 -112q-126 -56 -203 -77.5t-184 -27.5v-6q35 -15 56.5 -56t21.5 -89q0 -97 -63 -154t-152 -57q-91 0 -145 46.5t-54 125.5q0 82 45 137.5t132 97.5q85 41 257.5 89t256.5 83zM-594 1495q44 0 67 26.5t23 63.5q0 30 -22.5 54.5t-55.5 23.5q-40 -3 -62 -30 t-22 -64q0 -29 20.5 -51.5t51.5 -22.5z" />
<glyph unicode="&#xf70a;" d="M41 1401h-158l94 444h158z" />
<glyph unicode="&#xf70b;" d="M307 1860l-10 -52q-16 -81 -59.5 -150t-101 -117t-125.5 -82t-135 -50t-128 -16q-134 0 -237 18l6 78q118 37 159 72l2 10q-45 7 -91 44t-46 105q0 71 51.5 121.5t141.5 50.5q76 0 125 -44t49 -111q0 -70 -45.5 -125.5t-110.5 -91.5l2 -4q76 1 156.5 37t144 104.5 t80.5 150.5l10 52h162zM-213 1731q0 23 -14.5 41t-44.5 18q-32 0 -50 -18t-18 -46q0 -23 17 -41t42 -18q33 0 50.5 17t17.5 47z" />
<glyph unicode="&#xf70c;" d="M-446 1487q61 0 61 63q0 21 -14.5 37.5t-42.5 16.5q-31 0 -46.5 -17t-15.5 -45q0 -22 16 -38.5t42 -16.5zM408 1907l-13 -54q-49 -219 -210.5 -335.5t-411.5 -116.5l20 90q75 29 125.5 84t50.5 137q0 39 -16.5 61.5t-48.5 22.5t-65.5 -25t-55.5 -59h-86q-20 88 -82 88 q-56 0 -97.5 -39.5t-41.5 -105.5q44 41 104 41q62 0 103 -38t41 -102q0 -82 -47 -122.5t-121 -40.5q-90 0 -149.5 61t-59.5 154q0 128 70.5 218.5t197.5 90.5q53 0 91.5 -28t55.5 -62q31 35 77.5 62.5t97.5 27.5q72 0 119.5 -38t47.5 -122q0 -64 -29.5 -121.5t-72.5 -97.5 q88 33 149.5 120.5t86.5 194.5l12 54h158z" />
<glyph unicode="&#xf70d;" d="M254 1587l-188 4l-37 -190h-150l45 190l-186 -4l29 133l186 -4l37 189h149l-45 -189l189 4z" />
<glyph unicode="&#xf70e;" d="M289 1970l33 -112q-125 -56 -202.5 -77.5t-185.5 -27.5v-6q35 -15 56.5 -56t21.5 -89q0 -97 -63 -154t-152 -57q-91 0 -144.5 46.5t-53.5 125.5q0 82 44.5 137.5t131.5 97.5q85 41 257.5 89t256.5 83zM-205 1495q44 0 67 26.5t23 63.5q0 30 -22.5 54.5t-55.5 23.5 q-39 -3 -61 -30t-22 -64q0 -29 20 -51.5t51 -22.5z" />
<glyph unicode="&#xf70f;" horiz-adv-x="1880" d="M457 209q0 33 -23 54.5t-59 21.5q-48 0 -75.5 -28t-27.5 -73q0 -32 22.5 -52.5t55.5 -20.5q47 0 77 24.5t30 73.5zM1616 0h-805l166 768q10 44 10 96q0 205 -252 205q-196 0 -327 -127l-5 -16q58 -9 124.5 -38t103.5 -59l-17 -73q-93 -9 -159.5 -75t-89.5 -177l-5 -25 q-8 -49 -47 -112l4 -5q32 29 95 29q75 0 124.5 -48.5t49.5 -129.5q0 -98 -70 -159.5t-178 -61.5q-90 0 -146.5 49.5t-56.5 128.5q0 29 4 45l60 289q22 107 89 184.5t150 108.5q-42 23 -108 36t-131 13l20 94q73 112 216 193t313 81q197 0 301 -90.5t104 -246.5 q0 -50 -12 -109l-131 -623h471l227 1053h166z" />
<glyph unicode="&#xf710;" d="M53 1839l-10 -51q-36 -187 -176 -293t-340 -106q-172 0 -278.5 66.5t-106.5 191.5q0 91 61 149.5t160 58.5q83 0 132.5 -43.5t49.5 -109.5q0 -116 -125 -168l-2 -4q40 -12 115 -12q134 0 227 69t123 201l13 51h157zM-575 1686q0 28 -18 45.5t-52 17.5q-39 0 -61.5 -20 t-22.5 -58q0 -27 20 -45t50 -18q39 0 61.5 20t22.5 58z" />
<glyph unicode="&#xf711;" d="M-217 1669q0 -113 -73.5 -184.5t-188.5 -71.5q-96 0 -155.5 58.5t-59.5 142.5q0 109 76.5 182.5t185.5 73.5q96 0 155.5 -59t59.5 -142zM-469 1524q61 0 96 37t35 96q0 43 -25.5 72.5t-72.5 29.5q-63 0 -100 -38t-37 -97q0 -42 27.5 -71t76.5 -29z" />
<glyph unicode="&#xf712;" d="M-518 1497l4 4q-9 8 -18 33t-9 47q0 69 49 113.5t130 44.5q74 0 116.5 -42.5t42.5 -101.5q0 -96 -68 -151t-171 -55q-216 0 -277 145q-66 -66 -100 -141h-41q-60 35 -99.5 100t-39.5 147q0 58 20.5 114t60.5 105t109 79t156 30h262q78 0 129.5 27.5t103.5 79.5l74 -95 q-126 -143 -315 -143h-260q-98 0 -146.5 -51.5t-48.5 -128.5q0 -63 35 -103q58 81 125 125h37q0 -56 42.5 -113t96.5 -69zM-381 1507q37 0 56.5 21t19.5 59q0 26 -16.5 44t-45.5 18q-36 0 -55.5 -21.5t-19.5 -56.5q0 -25 17 -44.5t44 -19.5z" />
<glyph unicode="&#xf713;" d="M-113 2038h-153l82 375h153z" />
<glyph unicode="&#xf714;" d="M145 2464l-10 -47q-20 -93 -75 -168.5t-130.5 -121.5t-161 -70.5t-171.5 -24.5q-107 0 -189 16l8 80q4 1 18 5t20 6t19 6t20.5 7t19 7.5t19 9t16.5 9.5t16 11l2 11q-38 6 -77.5 42.5t-39.5 92.5q0 69 47.5 114t120.5 45q72 0 116 -41.5t44 -103.5q0 -112 -144 -192v-5 q121 2 224.5 79t128.5 186l10 47h149zM-332 2343q0 22 -13.5 38.5t-41.5 16.5q-30 0 -46 -15.5t-16 -41.5q0 -21 14.5 -38t39.5 -17q30 0 46.5 15.5t16.5 41.5z" />
<glyph unicode="&#xf715;" d="M-541 2126q56 0 56 57q0 20 -13.5 35.5t-36.5 15.5q-26 0 -42.5 -15.5t-16.5 -41.5q0 -20 13.5 -35.5t39.5 -15.5zM229 2515l-10 -49q-43 -203 -188.5 -311.5t-370.5 -108.5l21 88q161 64 161 207q0 72 -53 72q-50 0 -111 -78h-79q-20 82 -84 82q-52 0 -88 -40t-41 -98 q16 15 26 22t30.5 14t47.5 7q58 0 97.5 -33.5t39.5 -90.5q0 -81 -49 -120.5t-131 -39.5q-75 0 -129.5 51.5t-54.5 136.5q0 118 70.5 207.5t187.5 89.5q50 0 82.5 -21t44.5 -51q27 29 74 50.5t96 21.5q35 0 67.5 -13t58 -48t25.5 -88q0 -97 -75 -189q76 36 114 105t62 176 l10 49h149z" />
<glyph unicode="&#xf716;" d="M82 2204l-168 4l-31 -170h-145l39 170l-166 -4l29 131l163 -4l33 166h146l-41 -166l170 4z" />
<glyph unicode="&#xf717;" d="M86 2402l-178 -67q-56 -21 -191 -29l-2 -6q33 -14 58.5 -52.5t25.5 -80.5q0 -93 -59 -146t-148 -53q-80 0 -129 46t-49 116q0 144 164 223q80 38 238.5 83t236.5 77zM-399 2068q40 0 60 25t20 59q0 28 -18.5 50t-53.5 22q-37 0 -57.5 -25t-20.5 -61q0 -28 19 -49t51 -21z " />
<glyph unicode="&#xf718;" d="M-500 -1116h-143l33 149q6 30 28 58l-2 2q-44 -27 -71 -27q-58 0 -99 42t-41 104q0 89 56.5 146.5t150.5 57.5q85 0 131 -58t29 -138zM-541 -758q0 26 -16 44t-43 18q-34 0 -55 -19.5t-21 -52.5q0 -25 18 -42t46 -17q32 0 51.5 18t19.5 51z" />
<glyph unicode="&#xf719;" d="M-500 -1116h-501l24 117h74l6 32q6 28 29 58l-2 2q-44 -27 -72 -27q-58 0 -98.5 42t-40.5 104q0 89 56.5 146.5t150.5 57.5q85 0 131.5 -58t29.5 -138l-47 -219h139l89 403h145zM-827 -758q0 26 -16.5 44t-43.5 18q-34 0 -55 -19.5t-21 -52.5q0 -25 18 -42t46 -17 q32 0 52 18t20 51z" />
<glyph unicode="&#xf71a;" d="M-336 -715q0 -71 -62.5 -126.5t-138.5 -55.5q-56 0 -91.5 37.5t-35.5 91.5q0 72 61 128t134 56q58 0 95.5 -38t37.5 -93z" />
<glyph unicode="&#xf71b;" horiz-adv-x="1361" d="M307 -299q0 37 -26 63.5t-64 26.5q-54 0 -86.5 -31.5t-32.5 -83.5q0 -36 25.5 -63t64.5 -27q53 0 86 31.5t33 83.5zM1044 -242l-331 -297h-21l-170 123q-77 57 -88 103h-8q-19 -91 -84.5 -152t-169.5 -61q-96 0 -151.5 55t-55.5 135q0 105 72.5 174.5t189.5 69.5 q30 0 57.5 -8.5t37.5 -18.5l8 6q-8 13 -8 43q0 11 4 35l4 19h162l-35 -154l243 -180l193 170l207 948q10 52 10 88q0 102 -67 157.5t-199 55.5q-108 0 -198 -37.5t-144 -89.5l-4 -16q58 -9 124 -38t103 -59l-16 -73q-81 -9 -123.5 -59.5t-63.5 -151.5l-73 -350 q-45 -203 -250 -203q-90 0 -146.5 51t-56.5 131q0 101 67 163t158 62q82 0 113 -39l8 5q-8 28 -8 51q0 13 8 63l14 64q44 197 176 254q-42 23 -108 36t-131 13l20 94q72 110 222 192t321 82q199 0 308.5 -93t109.5 -251q0 -58 -10 -102zM311 209q0 34 -24 55t-60 21 q-47 0 -73.5 -26.5t-26.5 -72.5q0 -33 23 -54t57 -21q46 0 75 25t29 73z" />
<glyph unicode="&#xf71c;" horiz-adv-x="1359" d="M186 -418q51 0 82 32t31 85q0 36 -26 62t-62 26q-51 0 -82 -31.5t-31 -83.5q0 -40 25 -65t63 -25zM1026 -330l-240 -209h-20l-102 123l-152 -123h-23l-43 58q-38 50 -38 88q0 12 2 20h-9q-25 -66 -83 -112.5t-148 -46.5q-88 0 -147.5 53.5t-59.5 142.5q0 100 72.5 169 t179.5 69q61 0 92 -23l4 2q-2 8 -2 25q0 22 8 49l5 14h151l-43 -192l100 -150l136 111h18l88 -107l98 88l230 1049q10 52 10 88q0 102 -67 157.5t-199 55.5q-108 0 -198 -37.5t-144 -89.5l-4 -16q58 -9 124 -38t103 -59l-16 -73q-81 -9 -123.5 -59.5t-63.5 -151.5l-73 -350 q-45 -203 -250 -203q-90 0 -146.5 51t-56.5 131q0 101 67 163t158 62q82 0 113 -39l8 5q-8 28 -8 51q0 13 8 63l14 64q44 197 176 254q-42 23 -108 36t-131 13l20 94q72 110 222 192t321 82q199 0 309.5 -93t110.5 -249q0 -48 -12 -104zM311 209q0 34 -24 55t-60 21 q-47 0 -73.5 -26.5t-26.5 -72.5q0 -33 23 -54t57 -21q46 0 75 25t29 73z" />
<glyph unicode="&#xf71d;" horiz-adv-x="1495" d="M485 1022q0 32 -22.5 54t-56.5 22q-44 0 -74.5 -26.5t-30.5 -70.5q0 -32 23.5 -54.5t58.5 -22.5q47 0 74.5 26.5t27.5 71.5zM1309 1051v12q0 50 -46 85.5t-122 35.5q-62 0 -107 -24t-45 -62q0 -33 40.5 -53.5t107.5 -20.5q84 0 172 27zM1225 0h-148l-211 635l-481 -635 h-145l155 727q10 48 49 104l-6 5q-36 -29 -96 -29q-70 0 -121 53t-51 127q0 98 69 162.5t175 64.5q97 0 149.5 -49t52.5 -127q0 -24 -6 -51l-149 -694l373 493h129l163 -493l136 627q-94 -21 -144 -21q-124 0 -205.5 53t-81.5 144q0 89 84.5 148t229.5 59q119 0 198 -53 t93 -128q116 78 184 189l111 -74q-76 -96 -145 -158.5t-150 -101.5z" />
<glyph unicode="&#xf883;" horiz-adv-x="1269" d="M457 209q0 33 -23 54.5t-59 21.5q-48 0 -75.5 -28t-27.5 -73q0 -32 22.5 -52.5t55.5 -20.5q47 0 77 24.5t30 73.5zM918 -414h-166l258 1182q10 52 10 86q0 103 -67.5 159t-200.5 56q-108 0 -199 -37.5t-145 -89.5l-5 -16q58 -9 124.5 -38t103.5 -59l-17 -73 q-93 -9 -159.5 -75t-89.5 -177l-5 -25q-8 -49 -47 -112l4 -5q32 29 95 29q75 0 124.5 -48.5t49.5 -129.5q0 -98 -70 -159.5t-178 -61.5q-90 0 -146.5 49.5t-56.5 128.5q0 29 4 45l60 289q22 107 89 184.5t150 108.5q-42 23 -108 36t-131 13l20 94q72 110 223 192t322 82 q199 0 310.5 -93t111.5 -249q0 -48 -12 -104z" />
<glyph unicode="&#xf884;" horiz-adv-x="1359" d="M1008 -414h-166l258 1182q10 52 10 88q0 102 -67 157.5t-199 55.5q-108 0 -198 -37.5t-144 -89.5l-4 -16q58 -9 124 -38t103 -59l-16 -73q-81 -9 -123.5 -59.5t-63.5 -151.5l-73 -350q-45 -203 -250 -203q-90 0 -146.5 51t-56.5 131q0 101 67 163t158 62q82 0 113 -39 l8 5q-8 28 -8 51q0 13 8 63l14 64q44 197 176 254q-42 23 -108 36t-131 13l20 94q72 110 222 192t321 82q199 0 309.5 -93t110.5 -249q0 -48 -12 -104zM311 209q0 34 -24 55t-60 21q-47 0 -73.5 -26.5t-26.5 -72.5q0 -33 23 -54t57 -21q46 0 75 25t29 73z" />
<glyph unicode="&#xf8ff;" horiz-adv-x="1843" d="M922 -18q-160 0 -266.5 11t-192.5 43t-134 80t-80 134t-43 192.5t-11 266.5t11 266.5t43 192.5t80 134t134 80t192.5 43t266.5 11t266.5 -11t192.5 -43t134 -80t80 -134t43 -192.5t11 -266.5t-11 -266.5t-43 -192.5t-80 -134t-134 -80t-192.5 -43t-266.5 -11zM1358 293 v457q0 175 -125 288t-311 113t-311.5 -113t-125.5 -288v-457h174l195 209q32 -13 68 -13q78 0 131 52t53 133q0 79 -53.5 131.5t-130.5 52.5q-78 0 -132.5 -52.5t-54.5 -131.5q0 -52 27 -99l-133 -145v320q0 123 84.5 197.5t208.5 74.5t208 -74.5t84 -197.5v-457h144z M922 596q-31 0 -54.5 23t-23.5 55t23.5 54t54.5 22t53 -22t22 -54t-22 -55t-53 -23z" />
<glyph horiz-adv-x="1069" d="M-217 1669q0 -113 -73.5 -184.5t-188.5 -71.5q-96 0 -155.5 58.5t-59.5 142.5q0 109 76.5 182.5t185.5 73.5q96 0 155.5 -59t59.5 -142zM-469 1524q61 0 96 37t35 96q0 43 -25.5 72.5t-72.5 29.5q-63 0 -100 -38t-37 -97q0 -42 27.5 -71t76.5 -29zM809 0h-166l170 799 q27 122 -21 196t-186 74q-122 0 -209 -73.5t-114 -192.5l-17 -72h-155l16 72q41 182 173.5 296.5t322.5 114.5q197 0 296 -119t60 -296z" />
<glyph d="M-295 1642h-151q-54 0 -84.5 -20t-30.5 -59q0 -24 15 -41t36 -17q36 0 84 31l45 -92q-75 -55 -168 -55q-88 0 -128 41t-40 98q0 74 53.5 126t141.5 70q-12 9 -21.5 31.5t-9.5 42.5q0 82 82 134.5t201 52.5q114 0 180 -39l-53 -101q-53 29 -121 29q-142 0 -142 -76 q0 -47 52 -47h108z" />
</font>
</defs>
</svg>
